<?xml version="1.0" encoding="UTF-8"?>
<svg id="katman_2" data-name="katman 2" xmlns="http://www.w3.org/2000/svg" xmlns:xlink="http://www.w3.org/1999/xlink" viewBox="0 0 56.44 56.72">
  <defs>
    <style>
      .cls-1 {
        fill: #fff;
      }

      .cls-2 {
        fill: #5c0026;
      }

      .cls-3 {
        fill: url(#Adsız_degrade);
      }
    </style>
    <linearGradient id="Adsız_degrade" data-name="Adsız degrade" x1="28.22" y1="-143.58" x2="28.22" y2="-87.98" gradientTransform="translate(0 -87.42) scale(1 -1)" gradientUnits="userSpaceOnUse">
      <stop offset="0" stop-color="#b99f6c"/>
      <stop offset=".6" stop-color="#eee6db"/>
    </linearGradient>
  </defs>
  <g id="katman_2-2" data-name="katman 2">
    <g>
      <path class="cls-3" d="M28.22,.56h0c15.35,0,27.8,12.45,27.8,27.8h0c0,15.35-12.45,27.8-27.8,27.8h0C12.87,56.16,.42,43.71,.42,28.36H.42C.42,13.01,12.87,.56,28.22,.56Z"/>
      <g>
        <g>
          <path class="cls-1" d="M33.29,19.01h-10.41v-3.69c0-.95-1.07-1.5-1.85-.95l-12.7,9.03c-.26,.18-.39,.47-.39,.75s.13,.57,.39,.75l12.7,9.03c.77,.55,1.85,0,1.85-.95v-3.71h5.33l.32-.11v-1.6l-.32-.11h-7.15v4.27l-10.66-7.57,10.66-7.58v4.25h12.22c.25,0,.48-.1,.64-.27,.16-.17,.26-.39,.26-.64,0-.5-.41-.91-.91-.91Z"/>
          <path class="cls-1" d="M28.54,27.56v1.6l-.32,.11h-5.33v3.71c0,.95-1.07,1.5-1.85,.95l-12.7-9.03c-.26-.18-.39-.47-.39-.75h2.47l10.66,7.57v-4.27h7.15l.32,.11Z"/>
        </g>
        <g>
          <path class="cls-2" d="M48.11,31.82l-12.7-9.03c-.77-.55-1.85,0-1.85,.95v3.71h-5.33v1.82h7.15v-4.27l10.66,7.57-10.66,7.58v-4.25h-12.22c-.25,0-.48,.1-.64,.27-.16,.17-.26,.39-.26,.64,0,.5,.41,.91,.91,.91h10.41v3.69c0,.95,1.07,1.5,1.85,.95l12.7-9.03c.26-.18,.39-.47,.39-.75s-.13-.57-.39-.75Z"/>
          <path class="cls-2" d="M48.49,32.57c0,.28-.13,.57-.39,.75l-12.7,9.03c-.77,.55-1.85,0-1.85-.95v-3.69h-10.41c-.5,0-.91-.41-.91-.91,0-.25,.1-.48,.26-.64,.16-.16,.39-.27,.64-.27h12.22v4.25l10.66-7.58h2.47Z"/>
        </g>
      </g>
    </g>
  </g>
</svg>