<?xml version="1.0" encoding="UTF-8"?>
<svg id="katman_2" data-name="katman 2" xmlns="http://www.w3.org/2000/svg" xmlns:xlink="http://www.w3.org/1999/xlink" viewBox="0 0 286.62 86.27">
  <defs>
    <style>
      .cls-1 {
        fill: url(#Adsız_degrade_18);
      }

      .cls-2 {
        fill: url(#Adsız_degrade_19);
        fill-rule: evenodd;
      }

      .cls-3 {
        fill: url(#Adsız_degrade_18-5);
      }

      .cls-4 {
        fill: url(#Adsız_degrade_18-4);
      }

      .cls-5 {
        fill: url(#Adsız_degrade_18-3);
      }

      .cls-6 {
        fill: url(#Adsız_degrade_18-2);
      }
    </style>
    <linearGradient id="Adsız_degrade_18" data-name="Adsız degrade 18" x1="267.68" y1="23.35" x2="267.68" y2="86.27" gradientUnits="userSpaceOnUse">
      <stop offset=".58" stop-color="#eee6db"/>
      <stop offset="1" stop-color="#b99f6c"/>
    </linearGradient>
    <linearGradient id="Adsız_degrade_18-2" data-name="Adsız degrade 18" x1="32.43" y1="25.37" x2="32.43" y2="85.33" xlink:href="#Adsız_degrade_18"/>
    <linearGradient id="Adsız_degrade_18-3" data-name="Adsız degrade 18" x1="91.97" y1="25.15" x2="91.97" y2="85.68" xlink:href="#Adsız_degrade_18"/>
    <linearGradient id="Adsız_degrade_18-4" data-name="Adsız degrade 18" x1="150.59" y1="24.99" x2="150.59" y2="85.37" xlink:href="#Adsız_degrade_18"/>
    <linearGradient id="Adsız_degrade_18-5" data-name="Adsız degrade 18" x1="219.14" y1="24.83" x2="219.14" y2="85.29" xlink:href="#Adsız_degrade_18"/>
    <linearGradient id="Adsız_degrade_19" data-name="Adsız degrade 19" x1="253.46" y1="0" x2="253.46" y2="80.77" gradientUnits="userSpaceOnUse">
      <stop offset=".49" stop-color="#eee6db"/>
      <stop offset="1" stop-color="#b99f6c"/>
    </linearGradient>
  </defs>
  <g id="katman_1" data-name="katman 1">
    <g>
      <path class="cls-1" d="M261.95,24.87c-7.01,2.72-10.79,7.92-10.79,14.78,.08,7.39,3.77,11.99,15.24,18.93,3.62,2.19,7.77,5.36,9.28,7.09,2.34,2.87,2.64,3.54,2.64,7.62s-.23,4.68-2.49,6.94c-2.87,2.87-6.41,3.85-11.31,3.09-6.03-.91-10.26-4.9-12.52-11.99-.68-1.96-1.36-2.79-2.19-2.64-1.43,.3-1.43,3.62,.08,10.41,.83,3.7,1.21,4.3,3.92,5.66,2.49,1.21,4.53,1.51,11.31,1.51,7.62,0,8.6-.15,11.69-2.04,6.56-3.85,9.81-8.9,9.81-15.31,0-6.94-4.3-11.92-15.24-17.8-10.11-5.43-12.67-8.3-12.67-14.26,0-6.34,4.22-10.56,10.71-10.56s10.56,3.39,11.31,9.81c.15,1.06,.75,1.96,1.43,2.11,.91,.15,1.36-1.13,2.04-6.34,.45-3.62,.75-6.71,.68-6.86-.53-.53-11.09-1.73-14.86-1.66-2.26,0-5.88,.68-8.07,1.51h0Z"/>
      <path class="cls-6" d="M29.72,25.93c-6.71,19.31-15.69,42.54-18.86,49.25-2.72,5.66-5.2,7.69-9.35,7.69-.83,0-1.51,.53-1.51,1.13,0,.98,1.81,1.13,11.69,1.13s11.69-.15,11.69-1.13c0-.6-.68-1.13-1.51-1.13s-2.79-.53-4.22-1.13c-2.64-1.06-2.72-1.28-2.19-3.92,.23-1.51,1.58-5.66,2.94-9.2l2.41-6.49h19.46l2.94,8.22c1.58,4.6,2.79,8.98,2.64,9.81-.15,1.13-1.06,1.81-3.24,2.26-3.77,.91-4.07,1.13-2.56,2.19,.83,.6,4.83,.83,12.97,.68,9.73-.15,11.84-.45,11.84-1.28,0-.6-.68-1.13-1.51-1.13-3.24,0-6.71-2.11-8.15-5.05-1.43-2.72-10.56-27.23-16.44-44.12l-2.79-7.99-3.02-.3c-1.66-.15-3.09,.08-3.24,.53v-.02Zm5.44,20.97c1.81,5.43,3.32,9.96,3.32,10.11s-3.54,.23-7.92,.23-7.92-.15-7.92-.3c0-.23,1.73-5.36,3.85-11.39,3.02-8.6,4.07-10.79,4.6-9.81,.45,.68,2.26,5.73,4.07,11.16Z"/>
      <path class="cls-5" d="M68.64,26c0,1.06,1.66,1.81,4.07,1.81,.98,0,2.26,.6,2.94,1.36,1.13,1.21,1.28,4.07,1.28,25.12,0,13.05-.23,24.44-.45,25.34-.53,1.81-3.7,3.24-7.17,3.24-2.41,0-3.17,2.26-.83,2.34,26.32,.98,31.3,.6,37.79-2.72,4.15-2.04,7.84-5.58,9.5-9.05,1.43-3.09,1.51-9.43,.08-12.67-1.28-3.24-5.73-7.01-9.5-8.15-3.62-1.13-3.77-1.66-.75-2.94,7.92-3.24,9.65-15.39,3.02-20.97-3.62-3.02-5.96-3.39-23.16-3.54-12.67-.08-16.82,.15-16.82,.83h0Zm29.94,3.7c5.13,2.19,7.47,9.81,4.83,15.76-1.96,4.45-4.68,5.73-12.52,5.73h-5.66v-11.24c0-10.11,.15-11.31,1.36-11.69,1.96-.53,9.28,.3,11.99,1.43h0Zm-.75,25.35c6.94,1.81,11.62,8.98,10.48,16.07-1.21,7.47-5.43,11.09-13.05,11.09-5.13,.08-8.15-.91-9.2-3.02-.53-.83-.83-6.41-.83-13.2v-11.77h4.6c2.49,0,6.11,.38,7.99,.83h.01Z"/>
      <path class="cls-4" d="M116.6,25.4c-.91,.83,1.28,2.41,3.32,2.41,1.13,0,2.79,.6,3.7,1.28,1.51,1.28,1.66,2.19,2.04,17.57,.45,18.55-.38,33.71-2.04,34.69-.53,.38-2.34,.91-3.92,1.13-1.96,.38-2.79,.91-2.64,1.58s.45,1.13,.83,1.13c.3-.08,5.96-.08,12.6-.08,10.18,0,12.07-.15,12.07-1.13,0-.68-1.06-1.28-3.02-1.58-5.58-.91-5.66-1.06-5.88-14.18l-.3-11.77,16.89,.15,16.82,.23v11.92c0,13.12,.08,12.9-5.05,13.73-1.66,.3-2.87,.91-2.87,1.51,0,.83,2.41,1.13,11.62,1.28,12.9,.23,14.03,.15,14.03-1.28,0-.53-1.36-1.13-3.39-1.43-5.73-.91-5.66-.53-5.66-27.45,0-14.78,.3-24.21,.75-25.12,.45-.83,2.26-1.81,4.22-2.26,6.56-1.66,3.39-2.56-9.35-2.72-9.58-.08-12.22,.15-12.22,.91,0,.53,1.51,1.36,3.39,1.81s3.7,1.43,4.15,2.26c.38,.83,.75,6.11,.75,11.69,0,9.96-.08,10.26-1.66,10.63-.98,.23-8.52,.3-16.82,.23l-15.08-.23-.23-9.88c-.08-5.43,.15-10.79,.53-11.77,.53-1.36,1.73-2.26,3.85-2.94,5.88-1.96,3.85-2.56-8.82-2.64-6.71-.08-12.37,.08-12.6,.3v.02Z"/>
      <path class="cls-3" d="M188.56,25.85c0,.83,.98,1.36,3.02,1.66,5.96,.98,5.66-.53,5.66,26.85,0,18.1-.23,24.81-.98,26.02-.6,1.13-1.96,1.81-4.3,2.19-2.19,.3-3.39,.83-3.39,1.51,0,.91,2.19,1.06,13.05,.91,13.35-.23,15.76-.91,9.13-2.64-1.96-.45-3.92-1.28-4.37-1.73s-.91-5.05-1.06-11.31l-.3-10.56h4.37c2.49,0,4.83,.3,5.28,.6s3.32,4.22,6.34,8.82c7.84,11.77,9.73,14.03,13.12,15.54,2.72,1.13,8.45,1.81,13.88,1.51,2.94-.15,1.89-2.11-1.51-2.64-2.72-.45-4.07-1.36-8.52-5.96-4.98-5.05-15.08-18.63-15.08-20.14,0-.3,1.43-1.66,3.17-2.94,1.81-1.28,4.15-3.77,5.28-5.51,1.81-2.64,2.11-3.92,2.11-8.15,0-6.41-2.34-10.26-7.69-12.9-3.39-1.73-4.53-1.81-20.36-2.04-14.86-.23-16.82-.15-16.82,.91h-.03Zm28.13,3.02c5.88,2.11,8.3,6.03,8.37,13.27,.08,9.35-3.62,12.82-13.65,12.82h-6.26v-12.14c0-6.86,.3-12.75,.75-13.58,.98-1.73,6.34-1.96,10.79-.38h0Z"/>
    </g>
    <path class="cls-2" d="M233.71,10.44c6.15,25.35,15.51,40.55,30.34,49.41,9.66,5.78,12,8.31,11.88,13.29-.06,4.68-3.38,7.63-8.55,7.63-6.46,0-10.03-3.02-13.78-11.63-1.42-3.2-4.12-8.8-6.09-12.37-9.41-17.6-12.61-27.07-15.38-45.9-1.29-9.11-1.54-13.54-.49-9.17,.31,1.35,1.29,5.29,2.09,8.74h-.02Z"/>
  </g>
</svg>