<?xml version="1.0" encoding="UTF-8"?>
<svg id="katman_2" data-name="katman 2" xmlns="http://www.w3.org/2000/svg" viewBox="0 0 321.87 292.94">
  <defs>
    <style>
      .cls-1, .cls-2 {
        fill: #fff;
      }

      .cls-3, .cls-4 {
        fill: none;
      }

      .cls-3, .cls-4, .cls-5, .cls-2 {
        stroke: #fff;
      }

      .cls-3, .cls-5, .cls-2 {
        stroke-miterlimit: 10;
      }

      .cls-4 {
        stroke-miterlimit: 10;
        stroke-width: 1px;
      }

      .cls-5 {
        fill: #f5f8fa;
      }
    </style>
  </defs>
  <g id="katman_2-2" data-name="katman 2">
    <g id="katman_1" data-name="katman 1">
      <g>
        <g>
          <path class="cls-1" d="M246.37,19.14c-.18,0-.36-.02-.54-.06-1.35-.3-2.2-1.63-1.9-2.98l3.13-14.14c.3-1.35,1.64-2.2,2.98-1.9,1.35,.3,2.2,1.63,1.9,2.98l-3.13,14.14c-.26,1.17-1.29,1.96-2.44,1.96Z"/>
          <path class="cls-1" d="M282.13,64c-.99,0-1.92-.59-2.32-1.56-.52-1.28,.09-2.74,1.37-3.26l13.41-5.48c1.28-.52,2.74,.09,3.26,1.37,.52,1.28-.09,2.74-1.37,3.26l-13.41,5.48c-.31,.13-.63,.19-.94,.19Z"/>
          <path class="cls-1" d="M199.41,46.3c-.66,0-1.32-.26-1.81-.78l-9.99-10.48c-.95-1-.91-2.58,.08-3.53,1-.95,2.58-.91,3.53,.09l9.99,10.48c.95,1,.91,2.58-.08,3.53-.48,.46-1.1,.69-1.72,.69Z"/>
        </g>
        <path class="cls-1" d="M197.54,291.81H47.8c-1.38,0-2.5-1.12-2.5-2.5V77.77c0-1.38,1.12-2.5,2.5-2.5H238.42c1.38,0,2.5,1.12,2.5,2.5V248.43c0,23.92-19.46,43.37-43.37,43.37h-.01Zm-147.24-4.99H197.54c21.16,0,38.37-17.21,38.37-38.37V80.27H50.3v206.54h0Z"/>
        <g>
          <path class="cls-2" d="M191.93,289.31H52.45c-26.97,0-48.82-21.85-48.82-48.82H143.11c0,26.97,21.85,48.82,48.82,48.82Z"/>
          <path class="cls-2" d="M191.93,292.44H52.45c-28.65,0-51.95-23.3-51.95-51.95,0-1.73,1.4-3.13,3.13-3.13H143.11c1.73,0,3.13,1.4,3.13,3.13,0,25.19,20.49,45.68,45.68,45.68,1.73,0,3.13,1.4,3.13,3.13s-1.4,3.13-3.13,3.13h0ZM6.87,243.62c1.62,23.73,21.44,42.55,45.58,42.55h114.76c-15.34-8.33-26.04-24.17-27.14-42.55H6.87Z"/>
        </g>
        <g>
          <g>
            <path class="cls-1" d="M173.92,119.16h-29.67c-1.38,0-2.5-1.12-2.5-2.5s1.12-2.5,2.5-2.5h29.67c1.38,0,2.5,1.12,2.5,2.5s-1.12,2.5-2.5,2.5Z"/>
            <path class="cls-2" d="M215.95,154.25h-71.71c-1.38,0-2.5-1.12-2.5-2.5s1.12-2.5,2.5-2.5h71.71c1.38,0,2.5,1.12,2.5,2.5s-1.12,2.5-2.5,2.5h0Z"/>
            <path class="cls-2" d="M159.08,189.34h-14.84c-1.38,0-2.5-1.12-2.5-2.5s1.12-2.5,2.5-2.5h14.84c1.38,0,2.5,1.12,2.5,2.5s-1.12,2.5-2.5,2.5Z"/>
          </g>
          <circle class="cls-3" cx="93.76" cy="129.82" r="20.05"/>
          <circle class="cls-3" cx="93.76" cy="195.58" r="20.05"/>
          <path class="cls-5" d="M93.76,141.4c-.71,0-1.39-.31-1.87-.84l-10.65-12.01c-.92-1.03-.82-2.61,.21-3.53s2.61-.82,3.53,.21l8.68,9.79,14.55-18.29c.86-1.08,2.43-1.26,3.51-.4s1.26,2.43,.4,3.51l-16.4,20.62c-.46,.58-1.15,.92-1.89,.94h-.07Z"/>
          <path class="cls-1" d="M110.16,120.79c-.55,0-1.1-.18-1.56-.54-1.08-.86-1.26-2.43-.4-3.51l6.78-8.52c.86-1.08,2.43-1.26,3.51-.4s1.26,2.43,.4,3.51l-6.78,8.52c-.49,.62-1.22,.94-1.96,.94h0Z"/>
          <path class="cls-5" d="M93.76,207.16c-.71,0-1.39-.31-1.87-.84l-10.65-12.01c-.92-1.03-.82-2.61,.21-3.53,1.03-.91,2.61-.82,3.53,.21l8.68,9.79,14.55-18.29c.86-1.08,2.43-1.26,3.51-.4s1.26,2.43,.4,3.51l-16.4,20.61c-.46,.58-1.15,.92-1.89,.94h-.07Z"/>
          <path class="cls-1" d="M110.16,186.55c-.55,0-1.1-.18-1.56-.54-1.08-.86-1.26-2.43-.4-3.51l6.78-8.52c.86-1.08,2.43-1.26,3.51-.4s1.26,2.43,.4,3.51l-6.78,8.52c-.49,.62-1.22,.94-1.96,.94h0Z"/>
        </g>
        <g>
          <rect class="cls-4" x="205.48" y="148.19" width="114.31" height="25.66" transform="translate(-24.02 273.87) rotate(-53)"/>
          <polygon class="cls-1" points="213.29 205.2 233.78 220.64 217.57 228.47 208.51 232.84 210.23 222.93 213.29 205.2"/>
          <polygon class="cls-3" points="210.23 222.93 217.57 228.47 208.51 232.84 210.23 222.93"/>
          <path class="cls-1" d="M316.76,89.2c5.66,4.26,6.79,12.31,2.52,17.97l-7.29,9.68-20.49-15.44,7.29-9.68c4.26-5.66,12.31-6.79,17.97-2.52h0Z"/>
        </g>
        <path class="cls-1" d="M249.59,136.72c-.55,0-1.1-.18-1.56-.55-1.08-.86-1.26-2.43-.39-3.51l32.99-41.33c3.82-4.79,10.85-5.61,15.67-1.84l5.64,4.42c1.09,.85,1.28,2.42,.43,3.51-.85,1.09-2.42,1.28-3.51,.43l-5.64-4.42c-2.67-2.09-6.56-1.64-8.68,1.02l-32.99,41.33c-.49,.62-1.22,.94-1.96,.94Z"/>
        <rect class="cls-5" x="221.97" y="196.96" width="7.83" height="25.66" transform="translate(-77.61 263.94) rotate(-53)"/>
        <g>
          <path class="cls-5" d="M160.68,247.75s11.52-15.34,20.89-5.62c9.36,9.72,2.16,14.4,13.68,9s15.49-12.53,22.33-3.38h-56.9Z"/>
          <path class="cls-2" d="M189.08,255.92c-.56,0-1.07-.1-1.56-.31-1.68-.7-2.24-2.25-2.78-3.74-.65-1.8-1.63-4.52-4.98-8-1.7-1.77-3.51-2.57-5.54-2.45-4.83,.29-9.97,5.75-11.54,7.84-.83,1.1-2.4,1.32-3.5,.49s-1.32-2.39-.5-3.5c.29-.38,7.09-9.32,15.22-9.82,3.54-.21,6.71,1.12,9.46,3.97,4.09,4.25,5.34,7.71,6.08,9.78,.07,.2,.15,.42,.23,.62,1.2-.37,3.53-1.46,4.52-1.92,2.88-1.35,5.28-2.82,7.41-4.12,5.95-3.64,11.56-7.08,17.98,1.51,.83,1.11,.6,2.67-.51,3.5s-2.67,.6-3.5-.5c-3.69-4.94-5.16-4.04-11.37-.24-2.24,1.37-4.77,2.92-7.9,4.39-3.51,1.65-5.58,2.52-7.22,2.52v-.02Z"/>
        </g>
      </g>
    </g>
  </g>
</svg>