<?xml version="1.0" encoding="UTF-8"?>
<svg id="katman_2" data-name="katman 2" xmlns="http://www.w3.org/2000/svg" viewBox="0 0 35.45 35.48">
  <defs>
    <style>
      .cls-1 {
        fill: #fff;
      }
    </style>
  </defs>
  <g id="katman_2-2" data-name="katman 2">
    <g id="katman_1" data-name="katman 1">
      <g>
        <path class="cls-1" d="M35.21,18.78c-.96-.63-2.14-1.01-3.37-1.15-.26-.34-.52-.63-.69-.82-.02-.93-.15-8.9,2.35-16.32,.06-.19-.04-.4-.23-.46-.19-.06-.4,.04-.46,.23-2.47,7.32-2.42,15.15-2.39,16.48-.16,.17-.46,.5-.76,.89-1.18,.14-2.31,.49-3.25,1.07-.94-.58-2.07-.94-3.25-1.08-.27-.35-.54-.65-.7-.83-.03-1-.14-8.92,2.35-16.31,.06-.19-.04-.4-.23-.46-.19-.06-.4,.04-.46,.23-2.48,7.35-2.42,15.2-2.39,16.49-.16,.17-.45,.49-.75,.88-1.18,.14-2.31,.49-3.25,1.08-.94-.58-2.07-.94-3.25-1.08-.28-.36-.55-.66-.72-.84-.03-1.06-.13-8.94,2.35-16.29,.06-.19-.04-.4-.23-.46-.19-.06-.4,.04-.46,.23-2.49,7.37-2.42,15.26-2.39,16.51-.16,.17-.45,.49-.74,.86-1.18,.14-2.31,.49-3.25,1.08-.94-.58-2.07-.94-3.25-1.07-.29-.37-.57-.68-.73-.86-.03-1.12-.11-8.96,2.35-16.28,.06-.19-.04-.4-.23-.46-.19-.06-.4,.04-.46,.23-2.5,7.4-2.42,15.32-2.39,16.52-.17,.18-.44,.49-.72,.85-1.23,.14-2.41,.52-3.37,1.15-.14,.05-.24,.19-.24,.34v15.98c0,.2,.16,.37,.37,.37H35.08c.2,0,.37-.16,.37-.37v-15.98c0-.16-.1-.29-.24-.34h0Zm-4.47-1.33c.59,.67,1.27,1.6,1.27,2.05,0,.7-.57,1.27-1.27,1.27s-1.27-.57-1.27-1.27c0-.45,.67-1.38,1.27-2.05Zm-8.68,0c.59,.67,1.27,1.6,1.27,2.05,0,.7-.57,1.27-1.27,1.27s-1.27-.57-1.27-1.27c0-.45,.67-1.38,1.27-2.05Zm-8.68,0c.59,.67,1.27,1.6,1.27,2.05,0,.7-.57,1.27-1.27,1.27s-1.27-.57-1.27-1.27c0-.45,.67-1.38,1.27-2.05Zm-8.68,0c.59,.67,1.27,1.6,1.27,2.05,0,.7-.57,1.27-1.27,1.27s-1.27-.57-1.27-1.27c0-.45,.67-1.38,1.27-2.05Zm-1.64,.99c-.21,.37-.35,.74-.35,1.06,0,1.1,.9,2,2,2s2-.9,2-2c0-.32-.15-.69-.36-1.06,.91,.18,1.78,.51,2.49,1,.12,.08,.29,.08,.41,0,.72-.49,1.58-.82,2.49-1-.21,.37-.36,.74-.36,1.06,0,1.1,.9,2,2,2s2-.9,2-2c0-.32-.15-.69-.36-1.06,.91,.18,1.78,.51,2.49,1,.12,.08,.29,.08,.41,0,.72-.49,1.58-.82,2.49-1-.21,.37-.36,.74-.36,1.06,0,1.1,.9,2,2,2s2-.9,2-2c0-.32-.15-.69-.36-1.06,.91,.18,1.78,.51,2.49,1,.12,.08,.29,.08,.41,0,.72-.49,1.58-.82,2.49-1-.21,.37-.36,.74-.36,1.06,0,1.1,.9,2,2,2s2-.9,2-2c0-.32-.15-.69-.35-1.06,.85,.17,1.65,.46,2.33,.89v6.93c-.94,.06-1.46,.32-1.97,.58-.52,.26-1.01,.51-2.01,.51s-1.49-.25-2.01-.51c-.57-.29-1.16-.59-2.34-.59s-1.76,.3-2.34,.59c-.52,.26-1.01,.51-2.01,.51s-1.49-.25-2.01-.51c-.57-.29-1.16-.59-2.34-.59s-1.76,.3-2.34,.59c-.52,.26-1.01,.51-2.01,.51s-1.49-.25-2.01-.51c-.57-.29-1.16-.59-2.34-.59s-1.76,.3-2.34,.59c-.52,.26-1.01,.51-2.01,.51s-1.49-.25-2.01-.51c-.51-.26-1.03-.52-1.97-.58v-6.93c.68-.43,1.49-.72,2.33-.89h.09ZM.72,34.74v-7.74c.76,.05,1.19,.27,1.64,.5,.57,.29,1.16,.59,2.34,.59s1.76-.3,2.34-.59c.52-.26,1.01-.51,2.01-.51s1.49,.25,2.01,.51c.57,.29,1.16,.59,2.34,.59s1.76-.3,2.34-.59c.52-.26,1.01-.51,2.01-.51s1.49,.25,2.01,.51c.57,.29,1.16,.59,2.34,.59s1.76-.3,2.34-.59c.52-.26,1.01-.51,2.01-.51s1.49,.25,2.01,.51c.57,.29,1.16,.59,2.34,.59s1.76-.3,2.34-.59c.45-.23,.88-.44,1.64-.5v7.74H.72Z"/>
        <path class="cls-1" d="M5.51,31.06h-1.62c-.2,0-.37,.16-.37,.37s.16,.37,.37,.37h1.62c.2,0,.37-.16,.37-.37s-.16-.37-.37-.37Z"/>
        <path class="cls-1" d="M14.19,31.06h-1.62c-.2,0-.37,.16-.37,.37s.16,.37,.37,.37h1.62c.2,0,.37-.16,.37-.37s-.16-.37-.37-.37Z"/>
        <path class="cls-1" d="M22.87,31.06h-1.62c-.2,0-.37,.16-.37,.37s.16,.37,.37,.37h1.62c.2,0,.37-.16,.37-.37s-.16-.37-.37-.37Z"/>
        <path class="cls-1" d="M31.55,31.06h-1.62c-.2,0-.37,.16-.37,.37s.16,.37,.37,.37h1.62c.2,0,.37-.16,.37-.37s-.16-.37-.37-.37Z"/>
      </g>
    </g>
  </g>
</svg>