<?xml version="1.0" encoding="UTF-8"?>
<svg id="katman_2" data-name="katman 2" xmlns="http://www.w3.org/2000/svg" viewBox="0 0 163.52 163.54">
  <defs>
    <style>
      .cls-1 {
        fill: #fff;
      }
    </style>
  </defs>
  <g id="katman_2-2" data-name="katman 2">
    <g id="katman_1" data-name="katman 1">
      <g>
        <path class="cls-1" d="M33.38,145.14h-9.95c-.93,0-1.69,.76-1.69,1.69s.76,1.69,1.69,1.69h9.95c.93,0,1.69-.76,1.69-1.69s-.76-1.69-1.69-1.69Z"/>
        <path class="cls-1" d="M86.75,145.14h-9.95c-.93,0-1.69,.76-1.69,1.69s.76,1.69,1.69,1.69h9.95c.93,0,1.69-.76,1.69-1.69s-.76-1.69-1.69-1.69Z"/>
        <path class="cls-1" d="M140.13,145.14h-9.95c-.93,0-1.69,.76-1.69,1.69s.76,1.69,1.69,1.69h9.95c.93,0,1.69-.76,1.69-1.69s-.76-1.69-1.69-1.69Z"/>
        <path class="cls-1" d="M162.78,86.79c-5.99-4.05-13.45-6.48-21.23-7.35-1.9-2.5-3.8-4.58-4.72-5.56v-29.69c0-.93-.76-1.69-1.69-1.69s-1.69,.76-1.69,1.69v29.69c-.92,.98-2.82,3.06-4.72,5.56-7.37,.82-14.46,3.05-20.28,6.73-5.82-3.68-12.91-5.91-20.28-6.73-1.81-2.39-3.62-4.39-4.58-5.42v-11.3h4.91c7.01,0,8.03-3.71,8.18-4.85,.39-3.01-2.12-6.02-5.83-7-1.99-.53-4.7-1.4-7.26-2.27V20.3c0-.93-.76-1.69-1.69-1.69s-1.69,.76-1.69,1.69v27.12c-1.58-.56-2.9-1.04-3.66-1.32L59.29,1.09c-.33-.87-1.31-1.31-2.18-.97-.87,.33-1.31,1.31-.97,2.18l17.54,45.74c.17,.45,.53,.81,.99,.98,.41,.15,10.06,3.74,15.33,5.12,2.18,.58,3.49,2.17,3.34,3.3-.15,1.16-2.05,1.91-4.83,1.91h-14.15c-2.74,0-4.91-.33-7.88-4.64C63.31,50.13,31.25,1.26,30.92,.76c-.51-.78-1.56-1-2.34-.49s-1,1.56-.49,2.34c1.32,2.02,32.41,49.4,35.59,54.01,3.51,5.08,6.68,6.1,10.66,6.1h5.86v11.01c-.86,.91-2.85,3.08-4.85,5.71-7.37,.82-14.46,3.05-20.28,6.73-5.82-3.68-12.91-5.91-20.28-6.73-1.9-2.5-3.8-4.59-4.72-5.56v-29.69c0-.93-.76-1.69-1.69-1.69s-1.69,.76-1.69,1.69v29.69c-.92,.98-2.82,3.06-4.72,5.56-7.78,.87-15.24,3.3-21.23,7.35-.46,.31-.74,.84-.74,1.4v73.66c0,.93,.76,1.69,1.69,1.69H161.83c.93,0,1.69-.76,1.69-1.69V88.19c0-.56-.28-1.08-.74-1.4Zm-27.63-9.76c3.64,4.01,8.35,10.27,8.35,13.43,0,4.6-3.75,8.35-8.35,8.35s-8.35-3.74-8.35-8.35c0-3.17,4.71-9.42,8.35-13.43Zm-53.37,0c3.64,4.01,8.35,10.27,8.35,13.43,0,4.6-3.74,8.35-8.35,8.35s-8.35-3.74-8.35-8.35c0-3.17,4.71-9.42,8.35-13.43Zm-53.37,0c3.64,4.01,8.35,10.26,8.35,13.43,0,4.6-3.75,8.35-8.35,8.35s-8.35-3.74-8.35-8.35c0-3.17,4.71-9.42,8.35-13.43Zm-8.98,6.13c-1.57,2.54-2.75,5.16-2.75,7.3,0,6.47,5.26,11.73,11.73,11.73s11.73-5.26,11.73-11.73c0-2.14-1.18-4.76-2.75-7.3,6.15,1.05,11.96,3.18,16.76,6.43,.57,.39,1.32,.39,1.89,0,4.8-3.24,10.62-5.38,16.77-6.43-1.57,2.54-2.75,5.16-2.75,7.3,0,6.47,5.26,11.73,11.73,11.73s11.73-5.26,11.73-11.73c0-2.14-1.18-4.76-2.75-7.3,6.15,1.05,11.97,3.19,16.77,6.43,.57,.39,1.32,.39,1.89,0,4.8-3.24,10.62-5.38,16.76-6.43-1.57,2.54-2.75,5.16-2.75,7.3,0,6.47,5.26,11.73,11.73,11.73s11.73-5.26,11.73-11.73c0-2.14-1.18-4.76-2.75-7.3,5.83,1,11.37,2.97,16.02,5.94v35c-5.98,.26-9.25,1.91-12.43,3.51-3.25,1.64-6.31,3.19-12.58,3.19s-9.34-1.55-12.58-3.19c-3.46-1.75-7.03-3.55-14.1-3.55s-10.65,1.81-14.1,3.55c-3.25,1.64-6.31,3.19-12.58,3.19s-9.34-1.55-12.58-3.19c-3.46-1.75-7.03-3.55-14.1-3.55s-10.65,1.81-14.1,3.55c-3.25,1.64-6.31,3.19-12.58,3.19s-9.33-1.55-12.58-3.19c-3.17-1.6-6.44-3.25-12.41-3.51v-35c4.65-2.97,10.19-4.95,16.02-5.94h-.04ZM3.41,160.16v-32.68c5.15,.25,7.95,1.66,10.89,3.14,3.46,1.75,7.03,3.55,14.1,3.55s10.65-1.81,14.1-3.55c3.25-1.64,6.31-3.19,12.58-3.19s9.34,1.55,12.58,3.19c3.46,1.75,7.03,3.55,14.1,3.55s10.65-1.81,14.1-3.55c3.25-1.64,6.31-3.19,12.58-3.19s9.34,1.55,12.58,3.19c3.46,1.75,7.03,3.55,14.1,3.55s10.65-1.81,14.11-3.55c2.94-1.49,5.74-2.89,10.9-3.15v32.68H3.41Z"/>
      </g>
    </g>
  </g>
</svg>