<?xml version="1.0" encoding="UTF-8"?>
<svg id="katman_2" data-name="katman 2" xmlns="http://www.w3.org/2000/svg" viewBox="0 0 60.67 114.76">
  <defs>
    <style>
      .cls-1 {
        fill: #fff;
      }
    </style>
  </defs>
  <g id="katman_2-2" data-name="katman 2">
    <g id="katman_1" data-name="katman 1">
      <g>
        <path class="cls-1" d="M14.97,.08c-2.78,.5-5.04,2.64-5.6,5.29l-.14,.72-1.65,.05c-1.33,.05-1.82,.13-2.55,.38-1.61,.58-3.03,1.82-3.8,3.33-.67,1.33-.64,.47-.64,21.23s-.05,19.91,.78,21.49c.55,1.03,1.84,2.3,2.87,2.8,1.56,.77,1.97,.83,5.78,.86l3.46,.04,.06,24.56c.06,23.28,.08,24.61,.3,25.33,.59,1.97,1.62,3.61,3.14,5.06,1.66,1.57,3.65,2.62,6.07,3.21,1.02,.24,1.55,.26,6.51,.31,5.7,.06,7.08-.01,8.77-.48,1.23-.34,3.24-1.33,4.26-2.1,2.25-1.71,3.9-4.31,4.4-6.95,.11-.62,.14-6.12,.13-22.94,0-12.17,.03-23.01,.08-24.08l.08-1.95h3.41c2.77-.03,3.56-.06,4.21-.24,2.67-.69,4.56-2.63,5.11-5.19,.28-1.3,.28-38.03,0-39.34-.28-1.33-.86-2.39-1.81-3.33-1.43-1.41-3.04-2.01-5.43-2.01h-1.33l-.15-.73c-.29-1.28-.84-2.26-1.89-3.29-1.12-1.12-2.11-1.65-3.65-1.95-1.76-.36-3.68-.01-5.18,.94-1.35,.88-2.55,2.62-2.92,4.23l-.18,.74-7.16,.04-7.17,.03-.15-.74c-.35-1.7-1.67-3.52-3.18-4.38C18.39,.19,16.48-.18,14.97,.08Zm2.98,2.07c1.46,.52,2.69,1.82,3.16,3.36,.74,2.41-.36,4.92-2.64,6.05-.78,.38-.89,.4-2.28,.4-1.31,0-1.51-.04-2.18-.34-.99-.47-2.01-1.47-2.5-2.45-.7-1.43-.62-3.33,.23-4.77,.64-1.09,1.95-2.05,3.26-2.4,.75-.19,2.18-.13,2.96,.15h0Zm27.53-.19c1.02,.19,1.97,.73,2.7,1.52,.72,.77,1.02,1.32,1.28,2.31,.62,2.28-.6,4.79-2.8,5.82-.67,.3-.87,.34-2.18,.34-1.38,0-1.5-.03-2.28-.4-1.06-.53-1.89-1.36-2.4-2.4-.39-.79-.41-.92-.41-2.16s.03-1.37,.43-2.19c1.08-2.19,3.27-3.29,5.66-2.84Zm9.86,6.29c1.37,.53,2.4,1.61,2.79,2.94,.28,.93,.29,38.96,0,39.88-.39,1.31-1.56,2.5-2.96,3.04-.48,.18-1.14,.21-4.24,.26l-3.68,.05v-9.21h1.32c1.47,0,1.94-.14,2.48-.7,.54-.6,.6-1.09,.6-5.22v-3.85l.52-.08c.63-.09,.99-.39,.99-.84,0-.53-.36-.88-.98-.97l-.53-.08v-7.42l.5-.43c.29-.25,.67-.78,.91-1.27,.38-.75,.41-.94,.41-1.97s-.05-1.23-.36-1.92c-.47-.99-1.43-1.91-2.44-2.3-.58-.23-.98-.29-2.06-.29h-1.36v-4.48l.41-.16c.65-.29,1.87-1.27,2.38-1.94,.58-.75,1.06-1.77,1.24-2.64l.15-.65,.64-.05c1.13-.1,2.58,.04,3.26,.29h0Zm-45.96,.44c.3,1.47,1.37,3.04,2.72,3.99,.48,.34,.94,.62,1.03,.62s.23,.11,.3,.24c.13,.25,.19,3.86,.06,4.19-.05,.13-.3,.15-1.02,.13-2.97-.15-5.03,1.31-5.45,3.87-.28,1.66,.48,3.47,1.79,4.34l.34,.21v7.23l-.52,.08c-.67,.09-.99,.39-.99,.92s.48,.93,1.08,.93h.41l.04,4.26c.04,4.09,.05,4.29,.3,4.62,.58,.78,.82,.87,2.52,.91l1.56,.05-.03,4.54-.04,4.55-3.19,.04c-1.8,0-3.51-.03-3.9-.1-1.62-.29-2.89-1.26-3.62-2.75l-.35-.7V11.47l.33-.69c.57-1.22,1.35-1.95,2.62-2.46,.6-.25,.93-.3,2.29-.3h1.58l.14,.68v-.02Zm28.28,.01c.36,1.71,1.81,3.61,3.35,4.39l.72,.35v4.44l-.99-.04c-2.41-.1-4,.67-4.92,2.39-.39,.72-.44,.92-.48,2.01-.05,1.14-.04,1.27,.33,2.04,.34,.73,1.27,1.84,1.55,1.84,.06,0,.11,1.66,.11,3.71,0,3.65,0,3.71-.25,3.71-.14,0-.45,.08-.68,.18-1.01,.43-.55,1.71,.6,1.71h.31l.04,4.18c.04,4.15,.04,4.19,.34,4.67,.48,.77,1.02,.97,2.65,.97h1.38v9.18h-8.55v-1.17c0-.63-.04-3.31-.06-5.92-.03-3.18,.04-4.9,.23-5.16,.26-.36,.28-.54,.31-3.03,.04-3.01-.04-3.32-.88-3.77l-.48-.25v-8.21c0-9.08,.03-8.78-.79-9.36-.57-.4-1.53-.44-2.15-.08-1.01,.59-.96,.13-.96,9.43v8.27l-.4,.16c-.93,.39-1.11,1.04-1.11,3.91,.01,1.94,.13,2.62,.55,3.08,.18,.2,.2,.91,.2,6.15v5.94h-8.68v-9.18h1.36c1.16,0,1.43-.04,1.91-.29,1.09-.55,1.07-.41,1.11-5.23l.04-4.25,.5-.08c.65-.09,.99-.39,.99-.91s-.34-.82-.99-.91l-.52-.08v-7.42l.5-.43c.68-.58,1.24-1.77,1.33-2.82,.29-2.98-2.33-5.32-5.51-4.95l-.73,.09v-4.53l.72-.34c1.06-.53,2.21-1.74,2.8-2.97,.28-.57,.53-1.27,.58-1.57l.08-.55h14.39l.14,.69h0Zm-20.46,7.18v1.95h-.55c-.3,0-.73,.04-.94,.08l-.39,.08v-4.05h1.89v1.95h-.01Zm28.17-.02v1.94l-.88,.05-.88,.04v-3.96h1.76v1.94h0Zm-14.52,3.08c.08,.2,.11,3.14,.09,8.26l-.03,7.96h-1.13v-8.15c0-6.33,.04-8.19,.15-8.3,.26-.26,.78-.13,.92,.23Zm-9.32,.91c1.02,.31,1.84,1.48,1.84,2.64,0,.63-.58,1.7-1.12,2.05-.25,.18-.84,.39-1.33,.49-.94,.2-1.19,.4-1.19,.98,0,.65,.44,.92,1.48,.86l.4-.03v6.69H10.91v-6.66h1.43c1.18,0,1.47-.04,1.69-.23,.43-.35,.47-.82,.11-1.23-.31-.36-.34-.36-1.94-.43-1.79-.08-2.13-.19-2.77-.93-1.18-1.33-.68-3.32,1.03-4.11,.47-.21,.92-.24,5.52-.24,3.61,0,5.16,.04,5.53,.15h.02Zm28.56,.09c1.37,.63,1.96,2.28,1.31,3.63-.31,.64-1.08,1.24-1.74,1.35-1.3,.2-1.65,.44-1.65,1.08,0,.52,.48,.87,1.16,.87h.6v6.66h-10.56v-6.66h1.5c1.27,0,1.53-.04,1.79-.23,.38-.31,.38-.94,0-1.32-.24-.25-.44-.28-1.94-.34-1.79-.06-2.11-.16-2.75-.84-1.26-1.32-.79-3.4,.97-4.2,.47-.21,.92-.24,5.66-.24s5.19,.03,5.66,.24h0Zm-28.48,17.24v1.76H10.91v-3.52h10.69v1.76h.01Zm28.17,0v1.76h-10.56v-3.52h10.56v1.76Zm-17.56-.35c.16,.23,.2,.68,.2,2.26,0,2.59,.09,2.49-2.13,2.49s-2.02,.13-2.02-2.6c0-1.69,.04-2.06,.2-2.23,.15-.16,.52-.2,1.87-.2,1.6,0,1.7,0,1.87,.28h0Zm-10.61,5.03c0,.64-.05,1.24-.1,1.33-.09,.13-1.23,.15-5.32,.13l-5.21-.04-.04-1.22-.04-1.23,5.19-.04c2.85,0,5.27-.04,5.36-.06,.11,0,.15,.28,.15,1.13h.01Zm28.17,.19v1.3h-10.56v-2.58h10.56v1.28Zm-18.49,33.98v33.06l-.88,.05-.88,.04-.03-26.53c-.03-14.6-.03-29.49,0-33.11l.03-6.56h1.76v33.06h0Zm-14.08-1.48c0,32.56-.06,30.06,.86,31.92,.34,.7,.72,1.21,1.47,1.95,1.11,1.12,2.14,1.72,3.71,2.23,.93,.29,.99,.29,7.17,.29h6.22l1.01-.34c2.24-.77,4.02-2.25,4.95-4.14,1.04-2.11,.94,1.12,.98-31.84l.04-29.39h1.76v29.39c0,31.82,.03,30.12-.67,31.85-1.32,3.24-4.29,5.56-8.01,6.24-1.36,.24-11.23,.24-12.6-.01-4.25-.75-7.37-3.4-8.49-7.17-.21-.72-.23-2.39-.26-30.53l-.03-29.77h1.89v29.33h0Zm10.46,8.11l.04,26.43h-1.5c-1.7,0-2.65-.2-3.77-.79-1.41-.75-2.48-1.96-3.11-3.55l-.3-.75-.04-23.89-.03-23.89h8.68l.03,26.45h0Zm14.06-2.94c0,25.5,.03,24.3-.68,25.69-.74,1.46-2.13,2.67-3.79,3.29-.6,.24-1.08,.3-2.41,.35l-1.67,.05v-3.31c0-1.82,0-10.81-.03-19.98s0-19.58,0-23.14l.03-6.48h8.55v23.52h0Z"/>
        <path class="cls-1" d="M4.56,63.63c-.83,.39-1.65,1.32-1.89,2.14-.41,1.38-.13,2.55,.87,3.56,2.26,2.26,6.05,.72,6.04-2.46-.01-1.33-.64-2.44-1.79-3.11-.45-.28-.77-.34-1.58-.38-.88-.05-1.11,0-1.65,.25Zm2.59,1.51c.47,.3,.99,1.22,.99,1.72,0,.45-.5,1.38-.89,1.67-1.35,.98-3.26-.01-3.26-1.69,0-1.55,1.87-2.57,3.16-1.71h0Z"/>
        <path class="cls-1" d="M53.66,63.45c-1.5,.47-2.45,1.82-2.44,3.47,.03,3.79,5.21,4.79,6.75,1.33,.8-1.79-.2-4.1-2.02-4.72-.6-.21-1.75-.25-2.29-.09h0Zm2.11,1.66c.78,.48,1.14,1.4,.91,2.28-.43,1.58-2.36,2.06-3.45,.86-.92-1.01-.7-2.43,.48-3.14,.53-.33,1.52-.31,2.06,.01h0Z"/>
        <path class="cls-1" d="M4.14,77.94c-1.43,.24-3.01,1.43-3.66,2.79-.64,1.33-.64,3.11,0,4.45,.4,.84,1.58,1.99,2.46,2.4,.65,.3,.87,.34,2.18,.34s1.51-.03,2.16-.35c1.53-.75,2.58-2.11,2.88-3.77,.39-2.11-.78-4.45-2.7-5.37-.65-.3-2.1-.65-2.53-.62-.06,.01-.43,.06-.79,.13Zm2.46,2.18c2.44,1.23,2.29,4.73-.26,5.8-.7,.29-1.91,.24-2.67-.11-2.09-.97-2.45-3.76-.68-5.27,1.03-.89,2.38-1.04,3.61-.41h0Z"/>
        <path class="cls-1" d="M54.72,77.93c-1.67,.24-3.36,1.57-3.96,3.11-.4,1.04-.41,2.83,0,3.85,.4,1.02,1.45,2.11,2.5,2.63,.8,.39,.91,.41,2.29,.41s1.5-.03,2.2-.36c.41-.21,1.04-.67,1.4-1.02,1.57-1.57,1.95-3.72,1.02-5.76-.91-1.99-3.19-3.18-5.45-2.85h0Zm2.34,2.19c1.62,.82,2.19,2.72,1.3,4.36-.59,1.08-1.52,1.61-2.83,1.61-2.4,0-3.94-2.34-2.94-4.48,.79-1.69,2.78-2.36,4.48-1.5h0Z"/>
      </g>
    </g>
  </g>
</svg>