<?xml version="1.0" encoding="UTF-8"?>
<svg id="katman_2" data-name="katman 2" xmlns="http://www.w3.org/2000/svg" viewBox="0 0 118.42 107.7">
  <defs>
    <style>
      .cls-1 {
        stroke-miterlimit: 10;
      }

      .cls-1, .cls-2 {
        fill: none;
        stroke: #fff;
      }

      .cls-2 {
        stroke-miterlimit: 10;
        stroke-width: 1px;
      }
    </style>
  </defs>
  <g id="katman_2-2" data-name="katman 2">
    <g id="katman_1" data-name="katman 1">
      <g>
        <g>
          <path class="cls-1" d="M112.07,16.46c-.32,0-.63-.14-.84-.42-.35-.46-.25-1.12,.21-1.46l4.81-3.6c.46-.35,1.12-.25,1.46,.21,.35,.46,.25,1.12-.21,1.46l-4.81,3.6c-.19,.14-.41,.21-.63,.21h0Z"/>
          <path class="cls-1" d="M116.87,42.15c-.11,0-.22-.02-.33-.05l-5.7-1.91c-.55-.18-.84-.78-.66-1.32,.18-.55,.77-.84,1.32-.66l5.7,1.91c.55,.18,.84,.78,.66,1.32-.15,.44-.55,.71-.99,.71Z"/>
          <path class="cls-1" d="M89.96,12.28c-.55,0-1.02-.43-1.04-.99l-.3-6c-.03-.58,.41-1.07,.99-1.1,.58-.03,1.07,.41,1.1,.99l.3,6c.03,.58-.41,1.07-.99,1.1h-.06Z"/>
        </g>
        <g>
          <rect class="cls-2" x="1.68" y="1.66" width="69.38" height="79.64" transform="translate(-.14 .12) rotate(-.19)"/>
          <path class="cls-1" d="M1.81,82.46c-.58,0-1.04-.47-1.05-1.04L.5,1.78c0-.28,.11-.54,.3-.74,.2-.2,.46-.31,.74-.31l69.38-.23c.58,0,1.05,.47,1.05,1.04l.26,79.64c0,.28-.11,.54-.3,.74-.2,.2-.46,.31-.74,.31l-69.38,.23h0ZM2.59,2.82l.26,77.55,67.29-.22-.26-77.55L2.59,2.82Z"/>
        </g>
        <g>
          <rect class="cls-2" x="13.93" y="15.04" width="69.38" height="79.64" transform="translate(-.18 .16) rotate(-.19)"/>
          <path class="cls-1" d="M14.06,96.01c-.67,0-1.21-.54-1.21-1.21l-.26-79.64c0-.32,.13-.63,.35-.86s.53-.36,.86-.36l69.38-.23c.67,0,1.21,.54,1.22,1.21l.26,79.64c0,.32-.13,.63-.35,.86-.23,.23-.53,.36-.86,.36l-69.38,.23h-.01Zm.96-79.64l.25,77.21,66.96-.22-.25-77.21s-66.96,.22-66.96,.22Z"/>
        </g>
        <g>
          <polygon class="cls-1" points="27.29 60.43 27.18 26.51 96.56 26.28 96.82 105.92 27.44 106.15 27.29 60.43 27.29 60.43"/>
          <path class="cls-1" d="M27.44,107.2c-.28,0-.54-.11-.74-.3-.2-.2-.31-.46-.31-.74l-.26-79.64c0-.28,.11-.54,.3-.74,.2-.2,.46-.31,.74-.31l69.38-.23c.58,0,1.05,.47,1.05,1.04l.26,79.64c0,.58-.46,1.05-1.04,1.05l-69.38,.23h0Zm.79-79.64l.25,77.55,67.29-.22-.26-77.55-67.29,.22h.01Z"/>
        </g>
        <path class="cls-1" d="M86.72,38.19H37.62c-.58,0-1.05-.47-1.05-1.05s.47-1.05,1.05-1.05h49.1c.58,0,1.05,.47,1.05,1.05s-.47,1.05-1.05,1.05Z"/>
        <path class="cls-1" d="M86.72,47.67H37.62c-.58,0-1.05-.47-1.05-1.05s.47-1.05,1.05-1.05h49.1c.58,0,1.05,.47,1.05,1.05s-.47,1.05-1.05,1.05Z"/>
        <path class="cls-1" d="M85.56,57.15h-25.33c-.58,0-1.05-.47-1.05-1.05s.47-1.05,1.05-1.05h25.33c.58,0,1.05,.47,1.05,1.05s-.47,1.05-1.05,1.05Z"/>
      </g>
    </g>
  </g>
</svg>