<?xml version="1.0" encoding="UTF-8"?>
<svg id="katman_2" data-name="katman 2" xmlns="http://www.w3.org/2000/svg" xmlns:xlink="http://www.w3.org/1999/xlink" viewBox="0 0 46.14 40.84">
  <defs>
    <style>
      .cls-1 {
        fill: url(#Adsız_degrade_4-5);
      }

      .cls-2 {
        fill: url(#Adsız_degrade_4-4);
      }

      .cls-3 {
        fill: url(#Adsız_degrade_4-2);
      }

      .cls-4 {
        fill: url(#Adsız_degrade-22);
      }

      .cls-4, .cls-5, .cls-6, .cls-7, .cls-8, .cls-9, .cls-10, .cls-11, .cls-12, .cls-13, .cls-14, .cls-15, .cls-16, .cls-17, .cls-18, .cls-19, .cls-20, .cls-21, .cls-22, .cls-23, .cls-24, .cls-25, .cls-26, .cls-27, .cls-28, .cls-29, .cls-30 {
        fill-rule: evenodd;
      }

      .cls-5 {
        fill: url(#Adsız_degrade-12);
      }

      .cls-6 {
        fill: url(#Adsız_degrade-30);
      }

      .cls-7 {
        fill: url(#Adsız_degrade-17);
      }

      .cls-31 {
        fill: url(#Adsız_degrade_4-3);
      }

      .cls-8 {
        fill: url(#Adsız_degrade-11);
      }

      .cls-9 {
        fill: url(#Adsız_degrade-10);
      }

      .cls-10 {
        fill: url(#Adsız_degrade-25);
      }

      .cls-32 {
        fill: url(#Adsız_degrade_4);
      }

      .cls-11 {
        fill: url(#Adsız_degrade-21);
      }

      .cls-33 {
        fill: url(#Adsız_degrade_4-6);
      }

      .cls-12 {
        fill: url(#Adsız_degrade-27);
      }

      .cls-13 {
        fill: url(#Adsız_degrade-28);
      }

      .cls-34 {
        fill: url(#Adsız_degrade-5);
      }

      .cls-35 {
        fill: url(#Adsız_degrade_4-7);
      }

      .cls-14 {
        fill: url(#Adsız_degrade-31);
      }

      .cls-15 {
        fill: url(#Adsız_degrade-16);
      }

      .cls-16 {
        fill: url(#Adsız_degrade-15);
      }

      .cls-17 {
        fill: url(#Adsız_degrade-32);
      }

      .cls-18 {
        fill: url(#Adsız_degrade-18);
      }

      .cls-19 {
        fill: url(#Adsız_degrade-26);
      }

      .cls-20 {
        fill: url(#Adsız_degrade-34);
      }

      .cls-21 {
        fill: url(#Adsız_degrade-24);
      }

      .cls-22 {
        fill: url(#Adsız_degrade-9);
      }

      .cls-36 {
        fill: url(#Adsız_degrade-7);
      }

      .cls-37 {
        fill: url(#Adsız_degrade-2);
      }

      .cls-23 {
        fill: url(#Adsız_degrade-13);
      }

      .cls-38 {
        fill: url(#Adsız_degrade);
      }

      .cls-24 {
        fill: url(#Adsız_degrade-20);
      }

      .cls-39 {
        fill: url(#Adsız_degrade-6);
      }

      .cls-25 {
        fill: url(#Adsız_degrade-19);
      }

      .cls-26 {
        fill: url(#Adsız_degrade-29);
      }

      .cls-40 {
        fill: url(#Adsız_degrade-3);
      }

      .cls-27 {
        fill: url(#Adsız_degrade-33);
      }

      .cls-28 {
        fill: url(#Adsız_degrade-8);
      }

      .cls-29 {
        fill: url(#Adsız_degrade-14);
      }

      .cls-41 {
        fill: url(#Adsız_degrade-4);
      }

      .cls-30 {
        fill: url(#Adsız_degrade-23);
      }
    </style>
    <linearGradient id="Adsız_degrade" data-name="Adsız degrade" x1=".83" y1="17.18" x2="8.01" y2="17.18" gradientTransform="translate(-6.58 31.08) rotate(-127.21)" gradientUnits="userSpaceOnUse">
      <stop offset="0" stop-color="#b99f6c"/>
      <stop offset=".6" stop-color="#eee6db"/>
    </linearGradient>
    <linearGradient id="Adsız_degrade-2" data-name="Adsız degrade" x1="0" y1="14.87" x2="2.72" y2="14.87" gradientTransform="matrix(1, 0, 0, 1, 0, 0)" xlink:href="#Adsız_degrade"/>
    <linearGradient id="Adsız_degrade-3" data-name="Adsız degrade" x1="14.12" y1="26.88" x2="20.15" y2="26.88" gradientTransform="translate(6.09 56.78) rotate(-127.21)" xlink:href="#Adsız_degrade"/>
    <linearGradient id="Adsız_degrade-4" data-name="Adsız degrade" x1="2.57" y1="20.28" x2="14.58" y2="20.28" gradientTransform="translate(-2.05 40.4) rotate(-127.21)" xlink:href="#Adsız_degrade"/>
    <linearGradient id="Adsız_degrade-5" data-name="Adsız degrade" x1="4.31" y1="19.78" x2="15.17" y2="19.78" gradientTransform="matrix(1, 0, 0, 1, 0, 0)" xlink:href="#Adsız_degrade"/>
    <linearGradient id="Adsız_degrade-6" data-name="Adsız degrade" x1="13.71" y1="24.96" x2="15.55" y2="24.96" gradientTransform="matrix(1, 0, 0, 1, 0, 0)" xlink:href="#Adsız_degrade"/>
    <linearGradient id="Adsız_degrade-7" data-name="Adsız degrade" x1="1.14" y1="16.57" x2="5.97" y2="16.57" gradientTransform="matrix(1, 0, 0, 1, 0, 0)" xlink:href="#Adsız_degrade"/>
    <linearGradient id="Adsız_degrade_4" data-name="Adsız degrade 4" x1="5.19" y1="17.08" x2="6.22" y2="17.08" gradientTransform="translate(16.21 2.45) rotate(54.16)" gradientUnits="userSpaceOnUse">
      <stop offset="0" stop-color="#3e1d1f"/>
      <stop offset=".6" stop-color="#261213"/>
    </linearGradient>
    <linearGradient id="Adsız_degrade_4-2" data-name="Adsız degrade 4" x1="6.25" y1="17.89" x2="7.28" y2="17.89" gradientTransform="translate(17.3 1.93) rotate(54.16)" xlink:href="#Adsız_degrade_4"/>
    <linearGradient id="Adsız_degrade_4-3" data-name="Adsız degrade 4" x1="7.3" y1="18.67" x2="8.33" y2="18.67" gradientTransform="translate(18.37 1.4) rotate(54.16)" xlink:href="#Adsız_degrade_4"/>
    <linearGradient id="Adsız_degrade_4-4" data-name="Adsız degrade 4" x1="8.36" y1="19.46" x2="9.39" y2="19.46" gradientTransform="translate(19.46 .87) rotate(54.16)" xlink:href="#Adsız_degrade_4"/>
    <linearGradient id="Adsız_degrade_4-5" data-name="Adsız degrade 4" x1="9.4" y1="20.27" x2="10.43" y2="20.27" gradientTransform="translate(20.54 .36) rotate(54.16)" xlink:href="#Adsız_degrade_4"/>
    <linearGradient id="Adsız_degrade_4-6" data-name="Adsız degrade 4" x1="10.49" y1="21.16" x2="11.52" y2="21.16" gradientTransform="translate(21.71 -.15) rotate(54.16)" xlink:href="#Adsız_degrade_4"/>
    <linearGradient id="Adsız_degrade_4-7" data-name="Adsız degrade 4" x1="11.81" y1="22.15" x2="12.84" y2="22.15" gradientTransform="translate(23.06 -.81) rotate(54.16)" xlink:href="#Adsız_degrade_4"/>
    <linearGradient id="Adsız_degrade-8" data-name="Adsız degrade" x1="17.31" y1="20.42" x2="46.14" y2="20.42" gradientTransform="matrix(1, 0, 0, 1, 0, 0)" xlink:href="#Adsız_degrade"/>
    <linearGradient id="Adsız_degrade-9" data-name="Adsız degrade" x1="33.44" y1="3.31" x2="34.07" y2="3.31" gradientTransform="matrix(1, 0, 0, 1, 0, 0)" xlink:href="#Adsız_degrade"/>
    <linearGradient id="Adsız_degrade-10" data-name="Adsız degrade" x1="33.25" y1="5.27" x2="34.26" y2="5.27" gradientTransform="matrix(1, 0, 0, 1, 0, 0)" xlink:href="#Adsız_degrade"/>
    <linearGradient id="Adsız_degrade-11" data-name="Adsız degrade" x1="33.23" y1="7.46" x2="34.27" y2="7.46" gradientTransform="matrix(1, 0, 0, 1, 0, 0)" xlink:href="#Adsız_degrade"/>
    <linearGradient id="Adsız_degrade-12" data-name="Adsız degrade" x1="31.48" y1="13.22" x2="36.02" y2="13.22" gradientTransform="matrix(1, 0, 0, 1, 0, 0)" xlink:href="#Adsız_degrade"/>
    <linearGradient id="Adsız_degrade-13" data-name="Adsız degrade" x1="33.21" y1="17.92" x2="34.33" y2="17.92" gradientTransform="matrix(1, 0, 0, 1, 0, 0)" xlink:href="#Adsız_degrade"/>
    <linearGradient id="Adsız_degrade-14" data-name="Adsız degrade" x1="40.43" y1="22.15" x2="41.64" y2="22.15" gradientTransform="matrix(1, 0, 0, 1, 0, 0)" xlink:href="#Adsız_degrade"/>
    <linearGradient id="Adsız_degrade-15" data-name="Adsız degrade" x1="28.12" y1="23.19" x2="29.36" y2="23.19" gradientTransform="matrix(1, 0, 0, 1, 0, 0)" xlink:href="#Adsız_degrade"/>
    <linearGradient id="Adsız_degrade-16" data-name="Adsız degrade" x1="37.48" y1="23.94" x2="38.7" y2="23.94" gradientTransform="matrix(1, 0, 0, 1, 0, 0)" xlink:href="#Adsız_degrade"/>
    <linearGradient id="Adsız_degrade-17" data-name="Adsız degrade" x1="39.27" y1="24.51" x2="40.51" y2="24.51" gradientTransform="matrix(1, 0, 0, 1, 0, 0)" xlink:href="#Adsız_degrade"/>
    <linearGradient id="Adsız_degrade-18" data-name="Adsız degrade" x1="30.91" y1="24.59" x2="32.12" y2="24.59" gradientTransform="matrix(1, 0, 0, 1, 0, 0)" xlink:href="#Adsız_degrade"/>
    <linearGradient id="Adsız_degrade-19" data-name="Adsız degrade" x1="28.48" y1="25.02" x2="29.71" y2="25.02" gradientTransform="matrix(1, 0, 0, 1, 0, 0)" xlink:href="#Adsız_degrade"/>
    <linearGradient id="Adsız_degrade-20" data-name="Adsız degrade" x1="35.18" y1="25.14" x2="36.41" y2="25.14" gradientTransform="matrix(1, 0, 0, 1, 0, 0)" xlink:href="#Adsız_degrade"/>
    <linearGradient id="Adsız_degrade-21" data-name="Adsız degrade" x1="26.11" y1="26.14" x2="27.33" y2="26.14" gradientTransform="matrix(1, 0, 0, 1, 0, 0)" xlink:href="#Adsız_degrade"/>
    <linearGradient id="Adsız_degrade-22" data-name="Adsız degrade" x1="37.4" y1="26.53" x2="38.62" y2="26.53" gradientTransform="matrix(1, 0, 0, 1, 0, 0)" xlink:href="#Adsız_degrade"/>
    <linearGradient id="Adsız_degrade-23" data-name="Adsız degrade" x1="33.22" y1="26.71" x2="34.47" y2="26.71" gradientTransform="matrix(1, 0, 0, 1, 0, 0)" xlink:href="#Adsız_degrade"/>
    <linearGradient id="Adsız_degrade-24" data-name="Adsız degrade" x1="30.9" y1="26.78" x2="32.12" y2="26.78" gradientTransform="matrix(1, 0, 0, 1, 0, 0)" xlink:href="#Adsız_degrade"/>
    <linearGradient id="Adsız_degrade-25" data-name="Adsız degrade" x1="27.93" y1="27.37" x2="29.14" y2="27.37" gradientTransform="matrix(1, 0, 0, 1, 0, 0)" xlink:href="#Adsız_degrade"/>
    <linearGradient id="Adsız_degrade-26" data-name="Adsız degrade" x1="35.53" y1="28.02" x2="36.77" y2="28.02" gradientTransform="matrix(1, 0, 0, 1, 0, 0)" xlink:href="#Adsız_degrade"/>
    <linearGradient id="Adsız_degrade-27" data-name="Adsız degrade" x1="25.43" y1="28.78" x2="26.66" y2="28.78" gradientTransform="matrix(1, 0, 0, 1, 0, 0)" xlink:href="#Adsız_degrade"/>
    <linearGradient id="Adsız_degrade-28" data-name="Adsız degrade" x1="29.76" y1="28.78" x2="31.02" y2="28.78" gradientTransform="matrix(1, 0, 0, 1, 0, 0)" xlink:href="#Adsız_degrade"/>
    <linearGradient id="Adsız_degrade-29" data-name="Adsız degrade" x1="34.1" y1="29.28" x2="35.31" y2="29.28" gradientTransform="matrix(1, 0, 0, 1, 0, 0)" xlink:href="#Adsız_degrade"/>
    <linearGradient id="Adsız_degrade-30" data-name="Adsız degrade" x1="32.01" y1="29.86" x2="33.23" y2="29.86" gradientTransform="matrix(1, 0, 0, 1, 0, 0)" xlink:href="#Adsız_degrade"/>
    <linearGradient id="Adsız_degrade-31" data-name="Adsız degrade" x1="27.51" y1="30.57" x2="28.76" y2="30.57" gradientTransform="matrix(1, 0, 0, 1, 0, 0)" xlink:href="#Adsız_degrade"/>
    <linearGradient id="Adsız_degrade-32" data-name="Adsız degrade" x1="23.81" y1="31.14" x2="25.07" y2="31.14" gradientTransform="matrix(1, 0, 0, 1, 0, 0)" xlink:href="#Adsız_degrade"/>
    <linearGradient id="Adsız_degrade-33" data-name="Adsız degrade" x1="29.58" y1="31.6" x2="30.83" y2="31.6" gradientTransform="matrix(1, 0, 0, 1, 0, 0)" xlink:href="#Adsız_degrade"/>
    <linearGradient id="Adsız_degrade-34" data-name="Adsız degrade" x1="26.06" y1="32.24" x2="27.27" y2="32.24" gradientTransform="matrix(1, 0, 0, 1, 0, 0)" xlink:href="#Adsız_degrade"/>
  </defs>
  <g id="katman_2-2" data-name="katman 2">
    <g>
      <g>
        <rect class="cls-38" x="3.78" y="13.16" width="1.28" height="8.04" transform="translate(20.78 24.04) rotate(127.21)"/>
        <path class="cls-37" d="M2.38,13.22l-2.38,3.14H0c.37,.28,.89,.21,1.17-.16l1.37-1.81c.28-.37,.21-.89-.16-1.17h0Z"/>
      </g>
      <rect class="cls-40" x="17.06" y="23.15" width=".14" height="7.46" transform="translate(48.9 29.5) rotate(127.21)"/>
      <path class="cls-41" d="M9,14.25h0c1.17,0,2.12,.95,2.12,2.12v10.79H6.88v-10.79c0-1.17,.95-2.12,2.12-2.12Z" transform="translate(30.94 26.06) rotate(127.21)"/>
      <path class="cls-34" d="M4.31,16.21c3.23,2.28,7.15,5.11,9.96,8.23l.77-1.01c.21-.28,.16-.68-.12-.89L5.14,15.11l-.83,1.1Z"/>
      <path class="cls-39" d="M14.59,24.04l-.87,1.15,1.13,.63c.15,.08,.33,.04,.43-.09l.21-.28c.1-.13,.09-.31-.02-.43l-.88-.98Z"/>
      <polygon class="cls-36" points="1.14 19.44 5.67 13.47 5.97 13.7 5.47 15.37 2.9 18.75 1.44 19.67 1.14 19.44"/>
      <rect class="cls-32" x="5.12" y="16.87" width="1.18" height=".41" transform="translate(-11.48 11.71) rotate(-54.16)"/>
      <rect class="cls-3" x="6.17" y="17.68" width="1.18" height=".41" transform="translate(-11.7 12.89) rotate(-54.16)"/>
      <rect class="cls-31" x="7.22" y="18.46" width="1.18" height=".41" transform="translate(-11.89 14.07) rotate(-54.16)"/>
      <rect class="cls-2" x="8.29" y="19.25" width="1.18" height=".41" transform="translate(-12.1 15.26) rotate(-54.16)"/>
      <rect class="cls-1" x="9.33" y="20.06" width="1.18" height=".41" transform="translate(-12.32 16.44) rotate(-54.16)"/>
      <rect class="cls-33" x="10.41" y="20.95" width="1.18" height=".41" transform="translate(-12.59 17.69) rotate(-54.16)"/>
      <rect class="cls-35" x="11.73" y="21.94" width="1.18" height=".41" transform="translate(-12.85 19.17) rotate(-54.16)"/>
    </g>
    <g>
      <path class="cls-28" d="M21.93,.08c-.26,.14-.36,.34-.52,1.05-.37,1.64-.31,2.8,.2,4.29,.3,.88,.3,1.08,0,1.7-.64,1.31-1.89,2.91-2.9,3.72-.99,.79-1.4,1.53-1.4,2.52,0,1.23,.79,2.23,2.02,2.56,.2,.06,.58,.08,1.05,.08h.73v.15c0,.09-.03,.48-.07,.88-.06,.67-.08,.74-.22,.91-.48,.56-.59,1.42-.27,2.15,.14,.32,.49,.71,.79,.87l.24,.13-.21,.42c-.25,.5-.34,1.03-.26,1.59,.12,.85,.48,1.43,1.24,1.95,.57,.39,.66,.51,.75,.92,.05,.26,.04,.36-.03,.62-.08,.27-.17,.4-.62,.88-1,1.08-1.4,2.05-1.4,3.37,0,1.83,.97,3.34,2.65,4.13,.9,.42,1.89,.61,3.27,.61,1.91,0,3.31-.33,6.29-1.47,2.11-.81,2.74-1.02,3.38-1.16,.64-.13,1.05-.16,1.37-.09,1.1,.23,1.96,1.78,2.32,4.18,.08,.5,.17,2.16,.17,2.97,0,.55,.26,.86,.73,.86,.28,0,.55-.18,.65-.43,.07-.17,.08-.39,.06-1.4-.04-1.37-.1-1.96-.29-2.95-.33-1.68-.98-3.07-1.78-3.8-.49-.44-1.21-.82-1.6-.82-.31,0-.28-.08,.2-.47,.62-.51,1.78-1.68,2.43-2.44,2.51-2.95,4.33-6.69,5.04-10.4,.2-1.07,.23-1.47,.12-1.69-.18-.34-.63-.49-.97-.32-.26,.13-.36,.37-.49,1.2-.52,3.34-2.11,6.87-4.38,9.77-1.27,1.61-2.91,3.13-4.62,4.26-.85,.56-1.4,.85-2.51,1.29-2.75,1.1-4.12,1.46-5.76,1.52-2.29,.09-3.86-.56-4.5-1.88-.36-.74-.45-1.48-.25-2.25,.14-.54,.35-.91,.87-1.48,.23-.24,.5-.59,.62-.78,.85-1.33,.48-3.2-.75-3.84-.15-.08-.35-.22-.45-.33-.54-.57-.42-1.55,.23-1.96l.26-.17,1.19-.03c.84-.02,1.23-.05,1.32-.1,.32-.19,.44-.71,.23-1.06-.2-.33-.31-.34-2.09-.34s-1.76,0-2.03-.3c-.17-.18-.22-.61-.09-.86,.11-.21,.37-.42,.67-.52,.32-.11,1.63-.09,2.24,.02,1.76,.35,3.52,1.41,4.94,2.99,.72,.79,.86,.92,1.27,1.2,.83,.54,1.59,.72,2.86,.68,3.29-.11,5.43-1.57,7.15-4.88,.87-1.67,1.37-3.56,1.87-7.07,.34-2.36,.68-5.69,.76-7.5,.04-.85-.01-1.03-.33-1.22-.34-.21-.82-.08-.99,.26-.05,.1-.1,.52-.14,1.13-.21,3.24-.7,7.46-1.11,9.53-.21,1.11-.56,2.41-.76,2.94-.74,1.87-2,3.65-3.12,4.41-.95,.64-2.15,.97-3.54,.97-1.06,0-1.66-.24-2.29-.91-2.09-2.21-4.05-3.5-6.02-3.93-.47-.11-.75-.13-1.49-.13-.5,0-1.01,.02-1.13,.04l-.22,.04,.04-.32c.02-.17,.04-.36,.04-.42,0-.08,.07-.09,.54-.09,.62,0,.84-.08,1.04-.38,.21-.32,.14-.74-.18-1-.14-.11-.2-.12-2.18-.12-1.45,0-2.1-.02-2.26-.07-.29-.09-.67-.47-.74-.74-.17-.59,.02-1.01,.7-1.62,1.16-1.04,1.93-1.93,2.72-3.14,1.1-1.67,1.25-2.51,.76-4.02-.31-.95-.36-1.23-.33-2.12,.02-.6,.06-.91,.18-1.42,.14-.57,.15-.67,.09-.87-.13-.41-.62-.61-1-.41Z"/>
      <path class="cls-22" d="M33.52,3.07c-.14,.13-.11,.39,.05,.5s.33,.06,.45-.12c.13-.21-.03-.47-.29-.47-.07,0-.16,.04-.2,.09Z"/>
      <path class="cls-9" d="M33.49,4.85c-.22,.12-.3,.36-.2,.6,.1,.23,.23,.32,.5,.32,.44,0,.63-.52,.32-.84-.18-.18-.39-.21-.62-.08Z"/>
      <path class="cls-8" d="M33.45,7.04c-.2,.12-.28,.38-.19,.62,.08,.19,.19,.28,.44,.31,.17,.02,.24,0,.39-.12,.24-.21,.25-.52,.02-.76-.19-.19-.4-.21-.65-.05Z"/>
      <path class="cls-5" d="M33.48,9.64c-.08,.1-1.33,2.92-1.71,3.9-.36,.91-.38,1.71-.06,2.38,.4,.83,1.25,1.18,1.86,.77,.13-.08,.21-.11,.23-.07,.06,.09,.48,.27,.66,.27,.64,0,1.27-.6,1.47-1.42,.12-.44,.11-.81-.02-1.31-.12-.46-1.76-4.34-1.91-4.5-.12-.13-.42-.14-.53-.01Zm.72,1.93c1.08,2.46,1.13,2.62,1.16,3.19,.02,.49,.02,.53-.15,.87-.2,.41-.43,.61-.71,.61-.25,0-.4-.18-.4-.47,0-.23-.16-.44-.34-.44s-.37,.25-.37,.49c0,.17-.03,.24-.14,.33-.08,.07-.2,.12-.26,.12-.22,0-.51-.26-.69-.62-.15-.29-.17-.41-.17-.77,0-.56,.07-.77,.78-2.41,.34-.77,.65-1.51,.71-1.65,.06-.13,.13-.22,.15-.19,.02,.03,.22,.45,.43,.94Z"/>
      <path class="cls-23" d="M33.38,17.55c-.27,.27-.19,.7,.15,.87,.54,.26,1.07-.46,.64-.88-.21-.21-.58-.21-.8,.02Z"/>
      <path class="cls-29" d="M40.83,21.56c-.35,.1-.51,.57-.32,.94,.11,.21,.24,.28,.53,.28,.36,0,.59-.24,.59-.61,0-.44-.39-.73-.81-.61Z"/>
      <path class="cls-16" d="M28.4,22.66c-.37,.23-.37,.84,0,1.06,.32,.2,.73,.09,.89-.22,.3-.59-.33-1.18-.89-.84Z"/>
      <path class="cls-15" d="M37.66,23.49c-.16,.14-.18,.19-.18,.45s.02,.31,.18,.45c.47,.43,1.19-.01,1.01-.62-.13-.46-.65-.6-1.01-.28Z"/>
      <path class="cls-7" d="M39.55,23.97c-.29,.16-.37,.62-.16,.9,.44,.57,1.27,.16,1.09-.53-.08-.29-.28-.44-.57-.44-.12,0-.29,.04-.36,.08Z"/>
      <path class="cls-18" d="M31.2,24.06c-.22,.13-.29,.27-.29,.56,0,.19,.03,.27,.19,.42,.26,.26,.55,.27,.83,.02,.17-.15,.19-.21,.19-.43,0-.29-.1-.47-.33-.59-.21-.11-.38-.11-.59,.03Z"/>
      <path class="cls-25" d="M28.68,24.56c-.17,.16-.19,.21-.19,.44,0,.37,.2,.61,.56,.64,.21,.02,.28,0,.42-.12,.32-.27,.32-.7,.01-.99-.24-.22-.53-.21-.8,.02Z"/>
      <path class="cls-24" d="M35.48,24.57c-.28,.17-.38,.49-.25,.82,.12,.28,.34,.41,.65,.37,.73-.1,.7-1.17-.02-1.24-.15-.02-.3,0-.37,.05Z"/>
      <path class="cls-11" d="M26.42,25.56c-.34,.19-.41,.68-.16,.99,.37,.44,1.07,.17,1.07-.42,0-.34-.21-.58-.55-.61-.14-.02-.3,0-.36,.04Z"/>
      <path class="cls-4" d="M37.72,25.98c-.19,.1-.32,.34-.32,.61,0,.28,.29,.58,.58,.58,.39,0,.67-.3,.64-.68-.02-.23-.1-.36-.3-.48-.21-.13-.4-.14-.6-.02Z"/>
      <path class="cls-30" d="M33.56,26.15c-.57,.29-.37,1.19,.26,1.19,.25,0,.51-.17,.6-.38,.22-.53-.36-1.07-.86-.81Z"/>
      <path class="cls-21" d="M31.3,26.17c-.36,.11-.53,.7-.29,1.01,.16,.2,.45,.29,.69,.21,.28-.09,.41-.29,.41-.62,0-.22-.03-.29-.17-.43-.09-.09-.2-.17-.24-.17s-.1-.01-.15-.02c-.04-.01-.15,0-.25,.03Z"/>
      <path class="cls-10" d="M28.29,26.8c-.09,.04-.21,.13-.26,.21-.18,.26-.07,.8,.18,.94,.06,.03,.22,.06,.35,.06,.2,0,.28-.03,.42-.16,.14-.13,.17-.2,.17-.42,0-.33-.15-.56-.43-.64-.25-.07-.22-.07-.43,.02Z"/>
      <path class="cls-19" d="M35.72,27.58c-.16,.16-.19,.23-.19,.44,0,.73,.95,.88,1.21,.19,.14-.38-.19-.82-.61-.82-.18,0-.26,.03-.41,.19Z"/>
      <path class="cls-12" d="M25.81,28.19c-.28,.12-.39,.29-.39,.59s.11,.47,.4,.59c.51,.22,1.02-.37,.77-.86-.15-.29-.51-.44-.78-.32Z"/>
      <path class="cls-13" d="M30.16,28.19c-.37,.17-.51,.58-.3,.91,.35,.57,1.16,.32,1.16-.34,0-.22-.2-.51-.4-.56-.26-.08-.29-.08-.45,0Z"/>
      <path class="cls-26" d="M34.38,28.75c-.17,.09-.28,.29-.28,.52,0,.39,.23,.62,.62,.62,.22,0,.29-.03,.43-.16,.13-.14,.16-.21,.16-.44s-.03-.31-.17-.45c-.13-.14-.21-.17-.4-.17-.13,0-.29,.04-.36,.08Z"/>
      <path class="cls-6" d="M32.19,29.41c-.16,.16-.19,.23-.19,.45s.03,.29,.15,.42c.09,.09,.25,.18,.36,.19,.65,.13,1-.81,.42-1.16-.26-.16-.53-.12-.75,.09Z"/>
      <path class="cls-14" d="M27.76,30.06c-.29,.23-.34,.69-.08,.93,.28,.27,.64,.27,.89,.02,.4-.4,.13-1.07-.43-1.07-.15,0-.29,.04-.37,.11Z"/>
      <path class="cls-17" d="M24.1,30.61c-.16,.1-.3,.35-.3,.54,0,.16,.17,.44,.32,.53,.3,.18,.7,.07,.86-.24,.3-.59-.33-1.18-.89-.84Z"/>
      <path class="cls-27" d="M29.93,31.03c-.21,.09-.35,.34-.35,.62,0,.16,.04,.24,.19,.39,.16,.16,.23,.19,.43,.19,.3,0,.51-.15,.59-.44,.15-.51-.38-.98-.87-.76Z"/>
      <path class="cls-20" d="M26.34,31.69c-.18,.1-.28,.29-.28,.57,0,.43,.39,.71,.8,.58,.27-.09,.41-.29,.41-.59,0-.21-.03-.28-.19-.44-.15-.15-.23-.19-.4-.19-.12,0-.28,.04-.35,.08Z"/>
    </g>
  </g>
</svg>