<?xml version="1.0" encoding="UTF-8"?>
<svg id="katman_2" data-name="katman 2" xmlns="http://www.w3.org/2000/svg" xmlns:xlink="http://www.w3.org/1999/xlink" viewBox="0 0 55.6 56.07">
  <defs>
    <style>
      .cls-1 {
        fill: url(#Adsız_degrade_172);
      }

      .cls-2 {
        fill: url(#Adsız_degrade_172-8);
      }

      .cls-3 {
        fill: url(#Adsız_degrade_172-12);
      }

      .cls-4 {
        fill: url(#Adsız_degrade_172-5);
      }

      .cls-5 {
        fill: #f7aa87;
      }

      .cls-6 {
        fill: #ffebe0;
      }

      .cls-7 {
        fill: url(#Adsız_degrade_172-13);
      }

      .cls-8 {
        fill: url(#Adsız_degrade_172-10);
      }

      .cls-9 {
        fill: url(#Adsız_degrade_172-4);
      }

      .cls-10 {
        fill: #656273;
      }

      .cls-11 {
        fill: url(#Adsız_degrade_172-3);
      }

      .cls-12 {
        fill: url(#Adsız_degrade_27);
      }

      .cls-13 {
        fill: #e38761;
      }

      .cls-14 {
        fill: #121218;
      }

      .cls-15 {
        fill: url(#Adsız_degrade_172-7);
      }

      .cls-16 {
        fill: url(#Adsız_degrade_172-6);
      }

      .cls-17 {
        fill: url(#Adsız_degrade_172-2);
      }

      .cls-18 {
        fill: url(#Adsız_degrade_174);
      }

      .cls-19 {
        fill: #403d4b;
      }

      .cls-20 {
        fill: url(#Adsız_degrade_172-11);
      }

      .cls-21 {
        fill: url(#Adsız_degrade_172-9);
      }
    </style>
    <linearGradient id="Adsız_degrade_27" data-name="Adsız degrade 27" x1="27.8" y1="55.6" x2="27.8" y2="0" gradientUnits="userSpaceOnUse">
      <stop offset="0" stop-color="#b99f6c"/>
      <stop offset=".6" stop-color="#eee6db"/>
    </linearGradient>
    <linearGradient id="Adsız_degrade_174" data-name="Adsız degrade 174" x1="44.32" y1="18.42" x2="51.67" y2="18.42" gradientTransform="translate(90.47 -10.54) rotate(124.7)" gradientUnits="userSpaceOnUse">
      <stop offset="0" stop-color="#fff"/>
      <stop offset=".35" stop-color="#3e1d1f"/>
      <stop offset=".96" stop-color="#261213"/>
    </linearGradient>
    <linearGradient id="Adsız_degrade_172" data-name="Adsız degrade 172" x1="49.79" y1="16.17" x2="52.4" y2="16.17" gradientUnits="userSpaceOnUse">
      <stop offset="0" stop-color="#b99f6c"/>
      <stop offset=".35" stop-color="#3e1d1f"/>
      <stop offset=".96" stop-color="#261213"/>
    </linearGradient>
    <linearGradient id="Adsız_degrade_172-2" data-name="Adsız degrade 172" x1="31.68" y1="27.51" x2="37.91" y2="27.51" gradientTransform="translate(77.22 14.56) rotate(124.7)" xlink:href="#Adsız_degrade_172"/>
    <linearGradient id="Adsız_degrade_172-3" data-name="Adsız degrade 172" x1="37.51" y1="21.27" x2="49.74" y2="21.27" gradientTransform="translate(85.64 -1.49) rotate(124.7)" xlink:href="#Adsız_degrade_172"/>
    <linearGradient id="Adsız_degrade_172-4" data-name="Adsız degrade 172" x1="38.01" y1="22.74" x2="49.74" y2="22.74" xlink:href="#Adsız_degrade_172"/>
    <linearGradient id="Adsız_degrade_172-5" data-name="Adsız degrade 172" x1="36.41" y1="25.66" x2="38.29" y2="25.66" xlink:href="#Adsız_degrade_172"/>
    <linearGradient id="Adsız_degrade_172-6" data-name="Adsız degrade 172" x1="46.55" y1="17.79" x2="51.14" y2="17.79" xlink:href="#Adsız_degrade_172"/>
    <linearGradient id="Adsız_degrade_172-7" data-name="Adsız degrade 172" x1="47.17" y1="19.68" x2="48.2" y2="19.68" gradientTransform="translate(3.7 46.63) rotate(-53.93)" xlink:href="#Adsız_degrade_172"/>
    <linearGradient id="Adsız_degrade_172-8" data-name="Adsız degrade 172" x1="46.07" y1="20.43" x2="47.11" y2="20.43" gradientTransform="translate(2.64 46.06) rotate(-53.93)" xlink:href="#Adsız_degrade_172"/>
    <linearGradient id="Adsız_degrade_172-9" data-name="Adsız degrade 172" x1="45" y1="21.19" x2="46.04" y2="21.19" gradientTransform="translate(1.59 45.51) rotate(-53.93)" xlink:href="#Adsız_degrade_172"/>
    <linearGradient id="Adsız_degrade_172-10" data-name="Adsız degrade 172" x1="43.91" y1="21.96" x2="44.95" y2="21.96" gradientTransform="translate(.52 44.94) rotate(-53.93)" xlink:href="#Adsız_degrade_172"/>
    <linearGradient id="Adsız_degrade_172-11" data-name="Adsız degrade 172" x1="42.82" y1="22.7" x2="43.86" y2="22.7" gradientTransform="translate(-.53 44.37) rotate(-53.93)" xlink:href="#Adsız_degrade_172"/>
    <linearGradient id="Adsız_degrade_172-12" data-name="Adsız degrade 172" x1="41.64" y1="23.46" x2="42.67" y2="23.46" gradientTransform="translate(-1.63 43.72) rotate(-53.93)" xlink:href="#Adsız_degrade_172"/>
    <linearGradient id="Adsız_degrade_172-13" data-name="Adsız degrade 172" x1="40.28" y1="24.4" x2="41.32" y2="24.4" gradientTransform="translate(-2.95 43.01) rotate(-53.93)" xlink:href="#Adsız_degrade_172"/>
  </defs>
  <g id="katman_1" data-name="katman 1">
    <g>
      <rect class="cls-12" x="0" y="0" width="55.6" height="55.6" rx="27.8" ry="27.8"/>
      <path class="cls-5" d="M0,28.95c.3,15.07,12.64,27.17,27.78,27.12,15.13-.05,27.39-12.24,27.58-27.32l-55.36,.2Z"/>
      <path class="cls-13" d="M0,28.95c.02,1.19,.13,2.36,.3,3.51,6.78,2.95,14.89,2.97,22.05,1.32,9.18-1.9,17.73,2.85,26.59,.32,2.14-.71,4.27-1.75,6.29-3.07,.07-.75,.12-1.51,.13-2.28l-55.36,.2Z"/>
      <path class="cls-6" d="M32.87,28.84h-7.77c-1.26,1.73-3.13,2.96-4.19,4.93-1.6,2.97-2.17,6.62-.43,9.66,1.61,2.8,4.78,4.45,7.99,4.14,3.62-.36,6.72-3.1,7.37-6.71,.37-2.03-.04-4.08-.84-5.95-.92-2.15-2.41-3.7-2.14-6.06Z"/>
      <path class="cls-19" d="M31.14,27.72l6.39-22.35-10.14,23.38c-.53,1.22-1.4,2.25-2.46,3.07-2.15,1.65-3.64,4.94-3.64,7.49,0,3.54,2.87,6.41,6.41,6.41s6.41-2.87,6.41-6.41c0-1.8-.74-3.96-1.93-5.66-1.21-1.73-1.61-3.9-1.03-5.93Z"/>
      <g>
        <g>
          <rect class="cls-18" x="47.35" y="14.4" width="1.28" height="8.05" transform="translate(60.17 68.37) rotate(-124.7)"/>
          <path class="cls-1" d="M52.4,17.72l-2.25-3.25h0c-.38,.26-.48,.79-.21,1.17l1.29,1.87c.26,.38,.79,.48,1.17,.21h0Z"/>
        </g>
        <rect class="cls-17" x="34.73" y="23.77" width=".14" height="7.48" transform="translate(31.99 71.78) rotate(-124.7)"/>
        <path class="cls-11" d="M43.21,15.22h0c1.17,0,2.13,.95,2.13,2.13v10.81h-4.26v-10.81c0-1.17,.95-2.13,2.13-2.13Z" transform="translate(49.98 69.56) rotate(-124.7)"/>
        <path class="cls-9" d="M48.95,18.62c-3.18,2.37-7.09,5.22-10.94,6.93l.73,1.05c.2,.29,.6,.36,.88,.16l10.12-7.01-.79-1.14Z"/>
        <path class="cls-4" d="M38.29,25.97l-.82-1.19-.95,.88c-.12,.11-.15,.3-.05,.44l.2,.29c.09,.13,.27,.18,.41,.12l1.21-.54Z"/>
        <polygon class="cls-16" points="46.86 14.59 51.14 20.76 50.82 20.98 49.39 19.98 46.97 16.49 46.55 14.81 46.86 14.59"/>
        <rect class="cls-15" x="47.09" y="19.47" width="1.19" height=".42" transform="translate(35.51 -30.45) rotate(53.93)"/>
        <rect class="cls-2" x="46" y="20.22" width="1.19" height=".42" transform="translate(35.67 -29.26) rotate(53.93)"/>
        <rect class="cls-21" x="44.92" y="20.98" width="1.19" height=".42" transform="translate(35.85 -28.08) rotate(53.93)"/>
        <rect class="cls-8" x="43.84" y="21.75" width="1.19" height=".42" transform="translate(36.02 -26.88) rotate(53.93)"/>
        <rect class="cls-20" x="42.75" y="22.49" width="1.19" height=".42" transform="translate(36.17 -25.7) rotate(53.93)"/>
        <rect class="cls-3" x="41.56" y="23.25" width="1.19" height=".42" transform="translate(36.29 -24.43) rotate(53.93)"/>
        <rect class="cls-7" x="40.21" y="24.2" width="1.19" height=".42" transform="translate(36.5 -22.94) rotate(53.93)"/>
      </g>
      <path class="cls-13" d="M16.67,37.57c0,.25-.2,.45-.45,.45s-.45-.2-.45-.45,.2-.45,.45-.45,.45,.2,.45,.45Z"/>
      <circle class="cls-13" cx="12.78" cy="42.26" r=".48"/>
      <path class="cls-13" d="M19.12,46.96c0,.38-.31,.69-.69,.69s-.69-.31-.69-.69,.31-.69,.69-.69,.69,.31,.69,.69Z"/>
      <path class="cls-13" d="M41.19,37.24c0,.17-.13,.3-.3,.3s-.3-.13-.3-.3,.13-.3,.3-.3,.3,.13,.3,.3Z"/>
      <path class="cls-13" d="M39.04,44.48c0,.4-.32,.72-.72,.72s-.72-.32-.72-.72,.32-.72,.72-.72,.72,.32,.72,.72Z"/>
      <path class="cls-13" d="M46.04,40.2c0,.35-.28,.63-.63,.63s-.63-.28-.63-.63,.28-.63,.63-.63,.63,.28,.63,.63Z"/>
      <path class="cls-14" d="M31.64,32.74c-.59,5.08-2.41,10.9-8.65,9.27-.44-.05-.84-.16-1.22-.3,.95,2.35,3.25,4,5.94,4,3.54,0,6.41-2.87,6.41-6.41,0-1.8-.74-3.96-1.93-5.66-.2-.29-.38-.59-.54-.91Z"/>
      <path class="cls-10" d="M23.84,34.27c-.69,1.02-.68,2.23,.01,2.7,.7,.47,1.82,.03,2.51-.99,.69-1.02,.68-2.23-.01-2.7-.7-.47-1.82-.03-2.51,.99Z"/>
    </g>
  </g>
</svg>