<?xml version="1.0" encoding="UTF-8"?>
<svg id="katman_2" data-name="katman 2" xmlns="http://www.w3.org/2000/svg" xmlns:xlink="http://www.w3.org/1999/xlink" viewBox="0 0 56.43 56.72">
  <defs>
    <style>
      .cls-1 {
        fill: url(#Adsız_degrade_167-6);
      }

      .cls-2 {
        fill: url(#Adsız_degrade_167-16);
      }

      .cls-3 {
        fill: url(#Adsız_degrade_167-11);
      }

      .cls-4 {
        fill: url(#Adsız_degrade_167-4);
      }

      .cls-5 {
        fill: url(#Adsız_degrade_167-10);
      }

      .cls-6 {
        fill: url(#Adsız_degrade_167-9);
      }

      .cls-7 {
        fill: url(#Adsız_degrade_167-13);
      }

      .cls-8 {
        fill: url(#Adsız_degrade_167);
      }

      .cls-9 {
        fill: url(#Adsız_degrade_167-3);
      }

      .cls-10 {
        fill: url(#Adsız_degrade_167-7);
      }

      .cls-11 {
        fill: url(#Adsız_degrade_167-17);
      }

      .cls-12 {
        fill: url(#Adsız_degrade_167-5);
      }

      .cls-13 {
        fill: url(#Adsız_degrade_27);
      }

      .cls-14 {
        fill: url(#Adsız_degrade_167-8);
      }

      .cls-15 {
        clip-path: url(#clippath);
      }

      .cls-16 {
        fill: url(#Adsız_degrade_167-2);
      }

      .cls-17 {
        fill: none;
      }

      .cls-18 {
        fill: url(#Adsız_degrade_167-14);
      }

      .cls-19 {
        opacity: .36;
      }

      .cls-20 {
        fill: url(#Adsız_degrade_167-12);
      }

      .cls-21 {
        fill: url(#Adsız_degrade_167-15);
      }
    </style>
    <linearGradient id="Adsız_degrade_27" data-name="Adsız degrade 27" x1="28.39" y1="56.72" x2="28.39" y2="1.12" gradientUnits="userSpaceOnUse">
      <stop offset="0" stop-color="#b99f6c"/>
      <stop offset=".6" stop-color="#eee6db"/>
    </linearGradient>
    <clipPath id="clippath">
      <ellipse class="cls-17" cx="28.22" cy="28.36" rx="28.22" ry="28.36"/>
    </clipPath>
    <linearGradient id="Adsız_degrade_167" data-name="Adsız degrade 167" x1="25.2" y1="58.02" x2="25.2" y2="34.51" gradientUnits="userSpaceOnUse">
      <stop offset=".31" stop-color="#433939"/>
      <stop offset="1" stop-color="#843e3f"/>
    </linearGradient>
    <linearGradient id="Adsız_degrade_167-2" data-name="Adsız degrade 167" x1="25.89" y1="51.31" x2="25.89" xlink:href="#Adsız_degrade_167"/>
    <linearGradient id="Adsız_degrade_167-3" data-name="Adsız degrade 167" x1="38.7" y1="33.02" x2="38.7" y2="23.96" xlink:href="#Adsız_degrade_167"/>
    <linearGradient id="Adsız_degrade_167-4" data-name="Adsız degrade 167" x1="12.6" y1="32.96" x2="12.6" y2="23.96" xlink:href="#Adsız_degrade_167"/>
    <linearGradient id="Adsız_degrade_167-5" data-name="Adsız degrade 167" x1="34.02" y1="53.72" x2="34.02" y2="30.21" xlink:href="#Adsız_degrade_167"/>
    <linearGradient id="Adsız_degrade_167-6" data-name="Adsız degrade 167" x1="28.57" y1="51.31" x2="28.57" y2="47.41" xlink:href="#Adsız_degrade_167"/>
    <linearGradient id="Adsız_degrade_167-7" data-name="Adsız degrade 167" x1="23.49" y1="51.31" x2="23.49" y2="47.41" xlink:href="#Adsız_degrade_167"/>
    <linearGradient id="Adsız_degrade_167-8" data-name="Adsız degrade 167" x1="17.59" y1="53.73" x2="17.59" y2="30.21" xlink:href="#Adsız_degrade_167"/>
    <linearGradient id="Adsız_degrade_167-9" data-name="Adsız degrade 167" x1="25.93" y1="48.8" x2="25.93" y2="6.88" xlink:href="#Adsız_degrade_167"/>
    <linearGradient id="Adsız_degrade_167-10" data-name="Adsız degrade 167" x1="32.67" y1="34.42" x2="32.67" y2="30.52" xlink:href="#Adsız_degrade_167"/>
    <linearGradient id="Adsız_degrade_167-11" data-name="Adsız degrade 167" x1="26.28" y1="48.8" x2="26.28" y2="45.17" xlink:href="#Adsız_degrade_167"/>
    <linearGradient id="Adsız_degrade_167-12" data-name="Adsız degrade 167" x1="21.58" y1="43.08" x2="21.58" y2="40.29" xlink:href="#Adsız_degrade_167"/>
    <linearGradient id="Adsız_degrade_167-13" data-name="Adsız degrade 167" x1="26.03" y1="49.61" x2="26.03" y2="44.92" xlink:href="#Adsız_degrade_167"/>
    <linearGradient id="Adsız_degrade_167-14" data-name="Adsız degrade 167" x1="20.72" y1="41.67" x2="20.72" y2="38.37" xlink:href="#Adsız_degrade_167"/>
    <linearGradient id="Adsız_degrade_167-15" data-name="Adsız degrade 167" x1="29.93" y1="43.08" x2="29.93" y2="40.29" xlink:href="#Adsız_degrade_167"/>
    <linearGradient id="Adsız_degrade_167-16" data-name="Adsız degrade 167" x1="30.79" y1="41.67" x2="30.79" y2="38.37" xlink:href="#Adsız_degrade_167"/>
    <linearGradient id="Adsız_degrade_167-17" data-name="Adsız degrade 167" x1="25.56" y1="33.04" x2="25.56" y2="7.44" xlink:href="#Adsız_degrade_167"/>
  </defs>
  <g id="katman_1" data-name="katman 1">
    <g>
      <rect class="cls-13" x=".59" y="1.12" width="55.6" height="55.6" rx="27.8" ry="27.8"/>
      <g class="cls-15">
        <g>
          <path class="cls-8" d="M52.52,43.08c-2.01-3.94-16.69-8.58-16.69-8.58H14.58S-.1,39.14-2.11,43.08c-1.27,2.49-5.99,10.53-7.01,14.93H59.53c-1.02-4.41-5.74-12.44-7.01-14.93Z"/>
          <path class="cls-16" d="M36.76,34.51H15.01s-.81,.33-2.04,.89c1.52,2.74,1.29,5.96,1.83,9.12,.16,.96,.42,2.99,1.19,3.63,.86,.71,1.93,.57,2.77,.1,.48-.27,.96-.53,1.45-.79,1.84-.99,5.1,3.85,5.81,3.85s3.69-4.84,5.53-3.85c.48,.26,.97,.53,1.45,.79,.84,.47,1.91,.61,2.77-.1,.77-.64,1.03-2.67,1.19-3.63,.54-3.16,.31-6.38,1.83-9.12-1.23-.56-2.04-.89-2.04-.89Z"/>
          <path class="cls-9" d="M37.71,24.52s1.03-.6,1.93-.56c.9,.04,1.16,.71,.78,2.04-.38,1.33-1.04,3.34-1.28,4.79-.25,1.53-.89,2.46-1.96,2.16-1.07-.3,.54-8.44,.54-8.44Z"/>
          <path class="cls-4" d="M13.51,24.52s-1.03-.6-1.93-.56c-.9,.04-.93,.7-.55,2.03,.38,1.33,.67,3.37,1.46,4.92,.54,1.06,.46,2.3,1.53,2,1.07-.3-.52-8.39-.52-8.39Z"/>
          <path class="cls-12" d="M34.39,30.21s5.62,5.07,5.88,7.29c.26,2.22-1,16.22-1,16.22l-11.53-7.11s5.58,1.36,8.49-4.82c2.91-6.17-1.84-11.58-1.84-11.58Z"/>
          <path class="cls-1" d="M29.23,47.41l-3.2,3.9s3.43-.78,3.7-1.14c.43-.57,1.39-2.76,1.39-2.76h-1.88Z"/>
          <path class="cls-10" d="M22.83,47.41l3.2,3.9s-3.43-.78-3.7-1.14c-.43-.57-1.39-2.76-1.39-2.76h1.88Z"/>
          <path class="cls-14" d="M17.38,30.21s-5.62,5.07-5.88,7.29c-.26,2.22-1.03,15.96,1,16.22,2.03,.27,11.53-7.11,11.53-7.11,0,0-5.58,1.36-8.49-4.82-2.91-6.17,1.84-11.58,1.84-11.58Z"/>
          <path class="cls-6" d="M27.44,6.98c-1.57-.19-3.18-.09-4.67,.33-.69,.19-1.37,.45-2.02,.77-1.24,.62-2.35,1.47-3.29,2.49-1.92,2.08-3.08,4.78-3.63,7.54-.32,1.6-.47,3.23-.45,4.86,.04,3.08,.03,6.77,.54,10.31,.72,5.02,2.38,9.73,5.86,11.87,1.72,1.06,1.59,1.7,2.84,2.25,.81,.35,2.22,1.31,3.11,1.37,.94,.06,1.44-.08,2.29-.45,1.04-.45,2.07-1.61,3.05-2.18,.47-.27,.95-.57,1.35-.94,5.83-5.52,5.98-14.8,6.08-22.23,.04-2.86-.42-5.78-1.51-8.43-.84-2.04-2.11-3.93-3.86-5.29-1.61-1.25-3.61-2.02-5.67-2.28Z"/>
          <path class="cls-5" d="M33.68,33.1c-.59,.61-1.25,1.51-2.04,1.29-.32-.09-.57-.3-.73-.6-.15-.29-.19-.63-.13-.95,.22-1.27,1.66-2.52,2.96-2.3,1.49,.25,.66,1.81-.06,2.55Z"/>
          <g class="cls-19">
            <path class="cls-3" d="M26.22,46.2c.1,.19,.15,.4,.13,.63-.02,.23-.38,.23-.36,0,.01-.16-.02-.31-.09-.44-.15,.05-.27-.15-.19-.28-.42-.47-1.22-.78-1.73-.89-.91-.2-2.25,.17-3.06,.81,.61,.58,.82,1,1.68,1.38,.81,.35,2.22,1.31,3.11,1.37,.94,.06,1.44-.08,2.29-.45,1.04-.45,2.07-1.61,3.05-2.18,.19-.11,.39-.23,.58-.35-1.77-.67-3.66-.67-5.41,.4Z"/>
          </g>
          <g class="cls-19">
            <path class="cls-20" d="M19.66,40.32c-.67-.14-.65,.23-.45,.67,.32,.69,1.16,1.2,1.88,1.32,.82,.14,1.78-.71,2.11,.11,.66,1.66,1.07-.22,.8-.73-.12-.22-.38-.4-.61-.49-.51-.19-1.05-.31-1.58-.43-.71-.16-1.43-.29-2.14-.45Z"/>
          </g>
          <path class="cls-7" d="M28.77,44.92h-5.49s-1,1.22,.23,2.75c1.2,1.49,1.81,1.96,2.52,1.93,.7,.03,1.32-.44,2.52-1.93,1.23-1.54,.23-2.75,.23-2.75Z"/>
          <path class="cls-18" d="M23.93,41.43s-.36-.35-1.31-.75c-.55-.23-3.65-1.41-4.41-1.76-.29-.13-.45-.19-.57-.55,0,0-.3,.39,0,.98,.15,.3,.4,.59,.81,.79,.41,.2,.79,.37,1.17,.5,.94,.31,3.15,.9,3.94,1.03,.34,.05,.38-.23,.38-.23Z"/>
          <g class="cls-19">
            <path class="cls-21" d="M31.85,40.32c.67-.14,.65,.23,.45,.67-.32,.69-1.16,1.2-1.88,1.32-.82,.14-1.78-.71-2.11,.11-.66,1.66-1.07-.22-.8-.73,.12-.22,.38-.4,.61-.49,.51-.19,1.05-.31,1.58-.43,.71-.16,1.43-.29,2.14-.45Z"/>
          </g>
          <path class="cls-2" d="M27.58,41.43s.36-.35,1.31-.75c.55-.23,3.65-1.41,4.41-1.76,.29-.13,.45-.19,.57-.55,0,0,.3,.39,0,.98-.15,.3-.4,.59-.81,.79-.41,.2-.79,.37-1.17,.5-.94,.31-3.15,.9-3.94,1.03-.34,.05-.38-.23-.38-.23Z"/>
          <path class="cls-11" d="M39.64,14.1c-2.39-5.05-7.05-7.68-9.02-6.29,0,0-.38,6.84-5.06,7.3-4.67-.46-5.06-7.3-5.06-7.3-1.98-1.39-6.64,1.24-9.02,6.29-2.39,5.05,0,9.86,0,9.86,1.34,2.35,2.55,8.95,2.55,8.95,1.42-1.22,.55-3.76,.82-6.19,.16-1.45,1.2-5.39,2.67-5.09,1.35,.27,1.58,1.44,2.07,2.8,.49,1.37,1.24,2.94,1.73,3.96,.57,1.2,1.38,2.3,2.48,3.06,2.01,1.4,4.15,.59,5.6-1.22,1.2-1.51,2.13-3.23,2.75-5.05,.3-.88,.41-1.85,.87-2.68,.55-.98,1.79-1.41,2.71-.61,.35,.3,.57,.74,.72,1.17,.72,2.01,.44,4.28,.39,6.37-.02,.7-.05,1.43,.1,2.12,.06,.26,.14,.52,.26,.76,.07,.14,.49,.6,.48,.71,0,0,.58-6.72,1.93-9.08,0,0,2.39-4.81,0-9.86Z"/>
        </g>
      </g>
    </g>
  </g>
</svg>