<?xml version="1.0" encoding="UTF-8"?>
<svg id="katman_2" data-name="katman 2" xmlns="http://www.w3.org/2000/svg" xmlns:xlink="http://www.w3.org/1999/xlink" viewBox="0 0 42.13 32.7">
  <defs>
    <style>
      .cls-1 {
        fill: url(#Adsız_degrade_3-25);
      }

      .cls-1, .cls-2, .cls-3, .cls-4, .cls-5, .cls-6, .cls-7, .cls-8, .cls-9, .cls-10, .cls-11, .cls-12, .cls-13, .cls-14, .cls-15, .cls-16, .cls-17, .cls-18, .cls-19, .cls-20, .cls-21, .cls-22, .cls-23, .cls-24, .cls-25, .cls-26, .cls-27, .cls-28 {
        fill-rule: evenodd;
      }

      .cls-2 {
        fill: url(#Adsız_degrade_3-14);
      }

      .cls-3 {
        fill: url(#Adsız_degrade_3-5);
      }

      .cls-4 {
        fill: url(#Adsız_degrade_3-19);
      }

      .cls-5 {
        fill: url(#Adsız_degrade_3-3);
      }

      .cls-6 {
        fill: url(#Adsız_degrade_3-18);
      }

      .cls-7 {
        fill: url(#Adsız_degrade_3-8);
      }

      .cls-8 {
        fill: url(#Adsız_degrade_3-7);
      }

      .cls-9 {
        fill: url(#Adsız_degrade_3-20);
      }

      .cls-10 {
        fill: url(#Adsız_degrade_3-11);
      }

      .cls-11 {
        fill: url(#Adsız_degrade_3-22);
      }

      .cls-12 {
        fill: url(#Adsız_degrade_3-17);
      }

      .cls-13 {
        fill: url(#Adsız_degrade_3-6);
      }

      .cls-14 {
        fill: url(#Adsız_degrade_3-15);
      }

      .cls-15 {
        fill: url(#Adsız_degrade_3-2);
      }

      .cls-16 {
        fill: url(#Adsız_degrade_3-9);
      }

      .cls-17 {
        fill: url(#Adsız_degrade_3-10);
      }

      .cls-18 {
        fill: url(#Adsız_degrade_3-4);
      }

      .cls-19 {
        fill: url(#Adsız_degrade_3-28);
      }

      .cls-20 {
        fill: url(#Adsız_degrade_3-13);
      }

      .cls-21 {
        fill: url(#Adsız_degrade_3-23);
      }

      .cls-22 {
        fill: url(#Adsız_degrade_3-26);
      }

      .cls-23 {
        fill: url(#Adsız_degrade_3-24);
      }

      .cls-24 {
        fill: url(#Adsız_degrade_3-12);
      }

      .cls-25 {
        fill: url(#Adsız_degrade_3-27);
      }

      .cls-26 {
        fill: url(#Adsız_degrade_3);
      }

      .cls-27 {
        fill: url(#Adsız_degrade_3-16);
      }

      .cls-28 {
        fill: url(#Adsız_degrade_3-21);
      }
    </style>
    <linearGradient id="Adsız_degrade_3" data-name="Adsız degrade 3" x1="23.01" y1="8.63" x2="42.13" y2="8.63" gradientUnits="userSpaceOnUse">
      <stop offset=".58" stop-color="#eee6db"/>
      <stop offset="1" stop-color="#b99f6c"/>
    </linearGradient>
    <linearGradient id="Adsız_degrade_3-2" data-name="Adsız degrade 3" x1="39.76" y1="3.17" x2="39.93" y2="3.17" xlink:href="#Adsız_degrade_3"/>
    <linearGradient id="Adsız_degrade_3-3" data-name="Adsız degrade 3" x1="30.17" y1="8.64" x2="36.5" y2="8.64" xlink:href="#Adsız_degrade_3"/>
    <linearGradient id="Adsız_degrade_3-4" data-name="Adsız degrade 3" x1="25.87" y1="1.86" x2="28.02" y2="1.86" xlink:href="#Adsız_degrade_3"/>
    <linearGradient id="Adsız_degrade_3-5" data-name="Adsız degrade 3" x1="23.72" y1="5.53" x2="25.44" y2="5.53" xlink:href="#Adsız_degrade_3"/>
    <linearGradient id="Adsız_degrade_3-6" data-name="Adsız degrade 3" x1="26.11" y1="6.91" x2="28.04" y2="6.91" xlink:href="#Adsız_degrade_3"/>
    <linearGradient id="Adsız_degrade_3-7" data-name="Adsız degrade 3" x1="5.77" y1="14.44" x2="21.03" y2="14.44" xlink:href="#Adsız_degrade_3"/>
    <linearGradient id="Adsız_degrade_3-8" data-name="Adsız degrade 3" x1="10.38" y1="13.78" x2="25.85" y2="13.78" xlink:href="#Adsız_degrade_3"/>
    <linearGradient id="Adsız_degrade_3-9" data-name="Adsız degrade 3" x1="4.41" y1="14.97" x2="13.49" y2="14.97" xlink:href="#Adsız_degrade_3"/>
    <linearGradient id="Adsız_degrade_3-10" data-name="Adsız degrade 3" x1="9.07" y1="12.35" x2="10.05" y2="12.35" xlink:href="#Adsız_degrade_3"/>
    <linearGradient id="Adsız_degrade_3-11" data-name="Adsız degrade 3" x1="14.42" y1="13.76" x2="26.21" y2="13.76" xlink:href="#Adsız_degrade_3"/>
    <linearGradient id="Adsız_degrade_3-12" data-name="Adsız degrade 3" x1="3.43" y1="15.79" x2="8.78" y2="15.79" xlink:href="#Adsız_degrade_3"/>
    <linearGradient id="Adsız_degrade_3-13" data-name="Adsız degrade 3" x1="5.76" y1="14.76" x2="5.96" y2="14.76" xlink:href="#Adsız_degrade_3"/>
    <linearGradient id="Adsız_degrade_3-14" data-name="Adsız degrade 3" x1="16.9" y1="13.88" x2="25.96" y2="13.88" xlink:href="#Adsız_degrade_3"/>
    <linearGradient id="Adsız_degrade_3-15" data-name="Adsız degrade 3" x1="4.69" y1="13.89" x2="6.5" y2="13.89" xlink:href="#Adsız_degrade_3"/>
    <linearGradient id="Adsız_degrade_3-16" data-name="Adsız degrade 3" x1="19.02" y1="14.28" x2="25.47" y2="14.28" xlink:href="#Adsız_degrade_3"/>
    <linearGradient id="Adsız_degrade_3-17" data-name="Adsız degrade 3" x1="2.87" y1="14.72" x2="4.31" y2="14.72" xlink:href="#Adsız_degrade_3"/>
    <linearGradient id="Adsız_degrade_3-18" data-name="Adsız degrade 3" x1="2.67" y1="17.03" x2="4.84" y2="17.03" xlink:href="#Adsız_degrade_3"/>
    <linearGradient id="Adsız_degrade_3-19" data-name="Adsız degrade 3" x1="26.95" y1="15.14" x2="29.08" y2="15.14" xlink:href="#Adsız_degrade_3"/>
    <linearGradient id="Adsız_degrade_3-20" data-name="Adsız degrade 3" x1="6.45" y1="14.84" x2="6.61" y2="14.84" xlink:href="#Adsız_degrade_3"/>
    <linearGradient id="Adsız_degrade_3-21" data-name="Adsız degrade 3" x1="26.09" y1="16.62" x2="30.91" y2="16.62" xlink:href="#Adsız_degrade_3"/>
    <linearGradient id="Adsız_degrade_3-22" data-name="Adsız degrade 3" x1=".93" y1="17.74" x2="2.11" y2="17.74" xlink:href="#Adsız_degrade_3"/>
    <linearGradient id="Adsız_degrade_3-23" data-name="Adsız degrade 3" x1="1.9" y1="17.72" x2="3.04" y2="17.72" xlink:href="#Adsız_degrade_3"/>
    <linearGradient id="Adsız_degrade_3-24" data-name="Adsız degrade 3" x1="0" y1="18.74" x2=".78" y2="18.74" xlink:href="#Adsız_degrade_3"/>
    <linearGradient id="Adsız_degrade_3-25" data-name="Adsız degrade 3" x1="7.88" y1="21.12" x2="24.15" y2="21.12" xlink:href="#Adsız_degrade_3"/>
    <linearGradient id="Adsız_degrade_3-26" data-name="Adsız degrade 3" x1="2.8" y1="28.15" x2="3.91" y2="28.15" xlink:href="#Adsız_degrade_3"/>
    <linearGradient id="Adsız_degrade_3-27" data-name="Adsız degrade 3" x1="5.81" y1="27.1" x2="25.71" y2="27.1" xlink:href="#Adsız_degrade_3"/>
    <linearGradient id="Adsız_degrade_3-28" data-name="Adsız degrade 3" x1="10.14" y1="27.34" x2="10.47" y2="27.34" xlink:href="#Adsız_degrade_3"/>
  </defs>
  <g id="katman_1" data-name="katman 1">
    <g>
      <path class="cls-26" d="M39.06,.2c-.28,.28-.26,.5,.07,.86l.27,.28-.94,.84c-.52,.46-.97,.84-1,.84s-.33-.3-.67-.66-.67-.68-.74-.71c-.18-.07-.41,.02-.65,.26-.29,.27-.27,.5,.07,.91,.15,.17,.27,.32,.27,.34,0,.01-.44,.4-.97,.87-.54,.47-.97,.88-.96,.91s-.02,.06-.05,.05c-.09-.02-1.03,.8-1.01,.88,0,.04-.04,.07-.09,.08-.09,.02-1.15,.91-2.15,1.8-.16,.15-.47,.43-.69,.62s-.38,.37-.37,.4,0,.05-.04,.04c-.04-.01-.08,.02-.08,.07s-.04,.08-.08,.07c-.04,0-.24,.13-.44,.31-.29,.25-.41,.41-.57,.75-.17,.38-.2,.51-.22,1.04l-.03,.6-.61,.55c-.75,.67-.77,.72-.56,1.14l.11,.22-.24,.22c-.14,.12-.34,.3-.44,.39-.1,.09-.17,.18-.15,.21s0,.05-.04,.04c-.04-.01-.08,.02-.08,.07,0,.05-.05,.09-.1,.1-.05,0-.35,.24-.65,.51-.3,.27-.73,.64-.95,.83-.22,.2-.39,.38-.38,.41,0,.04-.02,.07-.06,.06-.07-.02-.79,.72-.79,.81,0,.27,1.19-.64,2.88-2.22,.4-.37,.85-.78,1.01-.91l.28-.24,.15,.14c.33,.31,.34,.3,1.38-.6l.49-.43,.21,.09c.38,.16,1.18,.07,1.55-.17,.15-.09,2.44-2.09,2.99-2.6,.18-.17,.32-.32,.31-.35,0-.02,.01-.04,.04-.03,.09,.03,1.32-1.08,1.28-1.15-.02-.04-.02-.05,.02-.03,.06,.04,.67-.47,2.21-1.85l.8-.71,.3,.29c.38,.38,.53,.38,.92,.05,.25-.22,.29-.28,.28-.47,0-.2-.07-.29-.62-.88l-.62-.64,.34-.32c.66-.62,.88-.83,.76-.75-.11,.08-.11,.08-.04-.02,.04-.06,.1-.09,.13-.07s.2-.11,.38-.28l.33-.31,.25,.25c.35,.34,.59,.38,.88,.12,.41-.35,.39-.39-1.03-1.85-1.12-1.15-1.27-1.28-1.44-1.28-.14,0-.24,.05-.38,.2Zm1.57,1.34c.63,.65,1.14,1.22,1.14,1.27,0,.05-.05,.12-.12,.15-.11,.06-.22-.04-1.14-.99-.56-.58-1.1-1.14-1.2-1.25-.16-.19-.16-.2-.05-.28,.06-.05,.14-.08,.18-.08s.57,.53,1.2,1.18Zm-.18,.96s-.1,.15-.25,.29-.26,.27-.24,.3c.04,.05-.13,.2-.24,.21-.05,0-.29,.2-.53,.42-.25,.22-.49,.43-.53,.46-.06,.05-.18-.05-.49-.38-.22-.24-.4-.45-.4-.47,0-.02,.43-.41,.95-.87l.94-.83,.39,.41c.21,.23,.39,.44,.4,.47Zm-1.89,2.23c.67,.69,1.22,1.28,1.24,1.3,0,.03-.09,.13-.22,.24l-.23,.18-.4-.43c-1.01-1.05-3.16-3.34-3.3-3.51l-.16-.19,.2-.18,.2-.18,.73,.75c.4,.42,1.28,1.33,1.95,2.02Zm-2.01-.73c.28,.3,.79,.83,1.14,1.2,.35,.36,.64,.67,.64,.69,0,.03-1.02,.94-1.86,1.66-.18,.16-.32,.31-.3,.34,.02,.02-.01,.08-.06,.12s-.09,.05-.09,.04c0-.02-.07,.01-.16,.08-.21,.15-.74,.64-.58,.53,.11-.08,.11-.08,.04,.02-.05,.05-.09,.09-.11,.07-.04-.03-.2,.11-2.05,1.75-1.93,1.7-2.49,2.19-2.53,2.19-.02,0-.18-.18-.36-.4-.18-.22-.6-.69-.94-1.05-.99-1.06-.91-.93-.8-1.14,.05-.09,.33-.38,.62-.64,.64-.57,2.18-1.92,2.56-2.24,.43-.37,3.6-3.15,3.95-3.47,.18-.15,.34-.28,.35-.28,.02,0,.27,.25,.54,.55Zm3.5,1.89s-.02,.04-.06-.02c-.05-.07-.06-.07-.06,0,0,.05-.02,.07-.04,.05-.05-.05,.04-.17,.1-.13,.03,.02,.05,.07,.05,.11Zm-10.96,5.63c.36,.39,.76,.82,.9,.95,.14,.12,.24,.25,.24,.28s-.14,.05-.31,.05h-.31l-.47-.49c-.88-.9-.86-.88-.82-1.22,.02-.17,.06-.29,.08-.28,.02,.01,.34,.34,.7,.73Zm-.49,.8l.35,.36-.21,.16c-.11,.09-.4,.34-.64,.56-.5,.46-.47,.46-.88-.09l-.2-.28,.37-.35c.57-.53,.78-.72,.82-.72,.02,0,.19,.16,.38,.35Z"/>
      <path class="cls-15" d="M39.81,3.18c-.08,.09-.07,.1,.02,.02,.05-.04,.1-.09,.1-.1,0-.05-.05-.02-.12,.08Z"/>
      <path class="cls-5" d="M34.43,5.35c0,.14,.24,.42,1.27,1.5,.26,.27,.29,.32,.2,.37-.05,.03-.49,.4-.98,.82-.48,.42-.91,.77-.95,.77-.04,0-.14-.09-.22-.2-.47-.56-.63-.69-.75-.63-.06,.04-.11,.09-.11,.12s.03,.04,.07,.02c.04-.03,.05-.02,.02,.03-.03,.05,.09,.22,.36,.49l.41,.41-.33,.29c-.18,.17-.41,.37-.52,.45l-.2,.15-.43-.46c-.31-.34-.45-.46-.53-.43-.18,.07-.11,.26,.28,.67,.21,.22,.38,.41,.38,.43,0,.02-.42,.41-.91,.84l-.23,.2-.46-.5c-.4-.44-.47-.49-.56-.42-.05,.04-.09,.11-.09,.15s.19,.28,.43,.53l.43,.46-.23,.2-.24,.2,.12,.12,.12,.12,.59-.52c.32-.29,.77-.69,1.01-.88,.8-.67,2.84-2.48,3.29-2.91,.4-.39,.46-.43,.57-.37,.15,.08,.24,.04,.24-.14s-1.74-2.02-1.93-2.04c-.12-.02-.14,0-.14,.13Z"/>
      <path class="cls-18" d="M26.8,.23c0,.1-.17,.59-.33,.98-.04,.09-.03,.1,.03,.07,.05-.03,.07-.02,.04,.02-.02,.04-.07,.05-.11,.03-.04-.03-.05,0-.03,.05s.01,.09-.02,.08c-.11-.02-.46,.68-.5,.98-.05,.33,.13,.74,.38,.93,.49,.34,1.22,.26,1.54-.18,.37-.51,.3-.88-.4-2.18-.44-.83-.6-1.04-.6-.78Zm.52,1.41c.35,.73,.39,1.01,.18,1.28-.34,.44-1,.37-1.21-.13-.1-.24-.06-.41,.2-.89,.11-.21,.18-.4,.16-.44-.02-.05-.02-.05,.03-.03,.05,.03,.1-.04,.17-.2,.05-.14,.11-.24,.13-.24,.02,0,.18,.29,.35,.64Z"/>
      <path class="cls-3" d="M24.44,4.33c-.04,.14-.22,.53-.4,.86-.25,.47-.32,.67-.32,.88,0,.53,.33,.85,.86,.85s.86-.32,.86-.87c0-.24-.07-.43-.39-1.05-.5-.98-.51-.99-.61-.67Zm.44,1.01c.32,.65,.34,.87,.09,1.12-.13,.12-.23,.17-.39,.17-.27,0-.56-.26-.56-.51,0-.13,.51-1.31,.58-1.32,0,0,.14,.24,.28,.54Z"/>
      <path class="cls-13" d="M26.88,5.63c-.04,.17-.22,.6-.4,.94-.4,.77-.44,1.01-.28,1.37,.15,.35,.46,.54,.87,.54s.67-.16,.85-.5c.23-.44,.17-.73-.38-1.76-.25-.48-.49-.88-.52-.89-.04-.01-.09,.12-.13,.29Zm.53,1.1c.33,.67,.35,.92,.12,1.19-.28,.34-.87,.28-1.03-.11-.11-.25-.02-.55,.29-1.11,.14-.22,.24-.44,.24-.49,0-.17,.11-.02,.37,.51Zm-.93,.07s-.01,.09,.02,.14c.04,.05,.04,.12,0,.22-.05,.12-.07,.13-.08,.04-.02-.05-.05-.09-.08-.07-.03,.02-.05,.02-.05,0,0-.06,.18-.38,.21-.38,.02,0,.01,.03,0,.06Z"/>
      <path class="cls-8" d="M18.75,10.75c-2.35,.37-4.24,1.2-6.18,2.7-1.08,.83-1.46,1.17-1.41,1.24,.02,.04,0,.05-.05,.02-.06-.02-.14,.02-.21,.09l-.11,.13,.15-.12,.15-.12-.11,.13c-.06,.08-.14,.12-.17,.1s-.33,.21-.67,.51c-.34,.3-.62,.51-.62,.49,0-.15,1.92-1.93,2.73-2.53,.56-.43,1.76-1.41,1.74-1.44-.05-.05,1.41-.71,2.13-.96,.68-.24,.7-.24,.35-.21-1.55,.17-2.82,.64-4.32,1.62-1.72,1.11-2.25,1.52-3.18,2.43-.31,.31-.59,.55-.6,.54-.04-.05,1.51-1.69,2.15-2.27,.32-.3,.57-.54,.57-.55-.04-.04-.5,.23-.8,.47-.79,.62-1.98,1.86-2.74,2.86-.2,.26-.68,.88-1.08,1.37-.4,.5-.71,.91-.69,.91,.01,0,.17-.07,.33-.15,.3-.15,.66-.49,2.34-2.22,.78-.8,1.68-1.59,2.35-2.04,.56-.37,1.75-1.11,1.98-1.22l.21-.1-.21,.18c-.11,.1-.41,.34-.66,.53s-.44,.36-.41,.39c.02,.02,.01,.02-.03,0-.09-.05-.92,.55-.86,.63,.02,.04,0,.04-.03,.02-.04-.02-.23,.12-.44,.31-.21,.2-.44,.41-.53,.49-.38,.35-1.29,1.38-1.26,1.43,.02,.03,0,.04-.05,.04-.04-.01-.07,.02-.06,.06,0,.05,0,.07-.04,.05-.05-.03-.28,.2-.75,.72l-.18,.2,.33-.13c.18-.07,.44-.17,.59-.22,.59-.2,.83-.36,2.09-1.37,.4-.32,.67-.58,.66-.62-.02-.04-.02-.05,.02-.03,.08,.05,.33-.13,.28-.21-.02-.04-.01-.05,.02-.02,.04,.02,.14-.04,.23-.12,.09-.09,.11-.12,.05-.08-.11,.08-.11,.08-.04-.02,.04-.06,.1-.09,.13-.07s.2-.08,.37-.23c1.57-1.32,3.37-2.33,5.24-2.94,1.13-.37,1.83-.52,2.8-.62l.79-.08h-1.06c-.59,0-1.13,.02-1.21,.03Zm-6.98,3.41s-.05,.06-.1,.1c-.09,.08-.1,.07-.02-.02s.12-.12,.12-.08Zm-.31,.3c-.06,.05-.1,.11-.09,.13,.01,.03-.04,.06-.1,.07-.11,.02-.11,.01,.02-.13,.08-.08,.17-.15,.21-.15s.02,.04-.04,.08Zm-.18,.36c-.07,.05-.13,.07-.15,.05-.04-.04,.11-.14,.2-.14,.04,0,0,.04-.05,.09Z"/>
      <path class="cls-7" d="M18.64,11.23c-.48,.16-1.13,.49-1.09,.54,.02,.03-.02,.04-.07,.01-.07-.02-.09-.01-.07,.02s0,.08-.05,.1c-.14,.05-.18,.04-.08-.03,.05-.04,.07-.05,.03-.04-.11,.04-1.36,.53-1.72,.67-.51,.21-1.48,.8-1.48,.91,0,.05-.05,.09-.1,.09s-.33,.2-.62,.44-.83,.7-1.23,1.03c-.4,.32-.71,.6-.7,.62s-.02,.05-.07,.05c-.09,0-1.06,.73-1.02,.77,.01,.02,.27-.07,.58-.2,.3-.12,.59-.22,.64-.22,.21,.01,1.14-.31,1.57-.54,.26-.14,.91-.54,1.45-.89s1.44-.86,2.01-1.14c2.7-1.35,4.64-1.71,7.22-1.34,.53,.08,1.6,.3,1.99,.41,.06,.02-.06-.05-.27-.14-.87-.41-2.25-.72-3.51-.76-.97-.04-2.04,.06-1.88,.17,.05,.03,0,.04-.15,.02-.18-.03-.21-.02-.15,.02,.07,.05,.05,.06-.09,.03-.34-.07-1.47,.28-2.82,.86-1.09,.47-1.93,.95-3.19,1.81-.92,.63-1.3,.86-1.3,.8,0-.03,.12-.14,.26-.25,.14-.11,.64-.5,1.11-.88,.81-.65,.91-.72,2.09-1.28,2.59-1.24,3.31-1.4,6.22-1.4,.98,0,1.78,0,1.77-.01,0,0-.32-.07-.69-.14-.86-.17-2.53-.22-3.34-.12-.33,.04-.83,.16-1.17,.27-.33,.11-.61,.2-.62,.18-.01-.01,.18-.14,.42-.27,.25-.14,.45-.25,.45-.27,0-.03,.03-.04-.35,.09Zm-1.51,.77s-.07,.06-.11,.06c-.04,0-.04-.02,.02-.06,.11-.07,.14-.07,.09,0Z"/>
      <path class="cls-16" d="M12.93,11.3c-1.78,.4-3.94,1.66-5.24,3.06q-.27,.28,.09-.04l.35-.33-.32,.34c-.18,.18-.34,.33-.37,.31-.05-.04-.91,.96-1.28,1.5-.01,.01-.04,.01-.05,0-.02-.02,.13-.28,.33-.57,.2-.3,.34-.57,.32-.61s-.02-.05,.02-.03c.04,.02,.25-.2,.48-.48,.49-.6,.78-.91,1.31-1.4,.21-.2,.36-.34,.33-.31-.11,.09-.17,.05-.09-.05,.05-.05-.09,.02-.3,.15-.43,.29-1.9,1.74-1.88,1.85,.02,.11-.12,.35-.19,.31-.08-.05-.7,.92-1.16,1.82-.47,.92-.92,1.9-.88,1.93,.01,.01,.12-.04,.25-.12,.26-.15,.46-.38,1.44-1.7,.38-.5,.91-1.15,1.17-1.44,.27-.28,.46-.54,.44-.57s0-.05,.05-.04c.04,.01,.07-.02,.06-.06,0-.05,.01-.07,.05-.04s.25-.14,.49-.37c.66-.63,1.71-1.42,2.35-1.76,.18-.09,.57-.31,.86-.47,.59-.33,1.2-.63,1.68-.83,.38-.17,.31-.17-.33-.02Z"/>
      <path class="cls-17" d="M9.53,12.26c-.28,.12-.44,.22-.46,.29-.01,.09,0,.09,.11,.02,.07-.05,.31-.18,.54-.3,.51-.27,.39-.28-.2-.02Z"/>
      <path class="cls-10" d="M20.97,12.33c-1.07,.2-2.34,.68-4.02,1.51-1.31,.65-2.67,1.41-2.52,1.42,.17,0,.97-.25,1.53-.49,.31-.13,1.17-.51,1.9-.85,2.16-.99,3.26-1.29,4.7-1.3,1.02,0,1.88,.12,2.93,.44,.47,.14,.75,.2,.7,.14-.12-.11-1.25-.53-2.02-.75-.6-.16-.76-.18-1.73-.2-.73-.01-1.2,0-1.48,.06Zm-.46,.2c-.05,.01-.09,.05-.07,.08,.02,.02-.03,.04-.1,.01-.12-.03-.12-.04-.01-.08,.06-.02,.15-.04,.2-.04,.06,0,.05,.01-.02,.03Z"/>
      <path class="cls-24" d="M8.4,12.51c-.81,.34-1.28,.63-1.95,1.21-.44,.38-1.09,1.18-1.03,1.27,.02,.04,0,.04-.03,.02-.08-.05-.21,.17-.14,.23,.02,.03,.01,.03-.03,0-.09-.05-.61,.83-1.04,1.72-.3,.64-.66,1.64-.73,2.06-.04,.21-.04,.23,.05,.15,.16-.13,.47-.71,.42-.78-.02-.04-.02-.05,.01-.04,.04,.02,.25-.35,.49-.83,1.23-2.48,2.18-3.66,3.85-4.79,.3-.2,.52-.37,.49-.37-.02,0-.2,.07-.37,.14Zm-1.57,1.17c0,.09-.05,.22-.1,.27s-.09,.07-.07,.05c.05-.07-.09-.2-.17-.16-.04,.02,.01-.05,.11-.15,.1-.11,.19-.19,.21-.19s.04,.08,.03,.18Zm-1.01,.86c-.02,.05-.01,.08,.02,.06,.04-.02,.09,.02,.13,.08,.09,.16-.04,.27-.2,.15-.09-.07-.13-.07-.2-.02-.05,.04,0-.03,.09-.15,.2-.25,.22-.27,.17-.12Zm-2.04,3.77c-.04,.12-.07,.21-.08,.2-.02-.01,0-.12,.04-.25s.07-.21,.08-.2c.02,.01,0,.12-.04,.25Z"/>
      <path class="cls-20" d="M5.8,14.72c-.06,.04-.05,.06,.02,.08,.05,.02,.11,.01,.12-.02,.05-.08-.05-.12-.14-.07Z"/>
      <path class="cls-2" d="M21.36,13.07c-.59,.14-1.08,.3-2.01,.69-.37,.15-1.12,.45-1.66,.66-1.01,.38-1.03,.42-.18,.32,.7-.09,1.18-.22,2.34-.69,2.22-.87,3.1-.92,6.03-.29,.27,.06-.19-.21-.66-.38-.79-.29-1.27-.37-2.36-.4-.83-.02-1.09,0-1.51,.09Z"/>
      <path class="cls-14" d="M6.24,13.27c-.63,.37-1.47,.99-1.53,1.15-.02,.07-.02,.07,.05,.02,.07-.05,.09-.05,.12,.04,.03,.06,.04,.13,.04,.17,0,.03,.21-.17,.49-.44,.27-.28,.63-.63,.8-.79,.17-.15,.31-.28,.3-.28s-.13,.07-.27,.14Zm-.51,.49c-.07,.07-.1,.08-.14,.02-.03-.04-.02-.06,.01-.04s.08,0,.1-.05c.02-.05,.05-.08,.08-.06,.02,.02,0,.08-.05,.13Z"/>
      <path class="cls-27" d="M22.1,13.7c-.75,.09-1.78,.34-2.54,.62l-.53,.2,.56,.02c.31,.01,.95-.01,1.41-.05,.5-.04,.87-.04,.89-.01s.42,.1,.89,.15c.47,.06,1.09,.15,1.37,.21l.51,.1,.15-.14,.16-.14-.15-.06c-.08-.03-.46-.09-.83-.13-.37-.04-.66-.09-.64-.12s.46-.04,.99-.04c.77,.02,.98,0,1.06-.07,.09-.08,.09-.09-.09-.13-.53-.12-1.76-.12-3.02,0-1.41,.14-1.5,.14-1.45,.09,.06-.06,1.3-.25,2.32-.35,.52-.05,1.01-.11,1.09-.13,.13-.04,.12-.04-.09-.08-.32-.07-1.28-.05-2.07,.04Z"/>
      <path class="cls-12" d="M3.92,14.29c-.21,.15-.47,.37-.59,.49-.24,.24-.57,.68-.41,.56,.08-.07,.11-.06,.16,.03,.08,.12,.09,.11,.52-.5,.14-.19,.37-.46,.5-.6,.13-.14,.23-.25,.22-.25-.02,0-.2,.12-.4,.27Z"/>
      <path class="cls-6" d="M4.37,14.77c-.34,.36-.54,.66-.49,.73,.03,.05,.02,.05-.04,.02-.06-.04-.07-.02-.04,.05,.02,.05,0,.11-.03,.14-.04,.03-.05,.01-.02-.04,.04-.05,.02-.07-.02-.04-.04,.03-.06,.09-.04,.14s0,.07-.02,.05c-.08-.05-.46,.73-.69,1.44-.21,.65-.37,1.8-.28,2.12,.06,.24,.12,.11,.3-.57,.37-1.48,.87-2.63,1.57-3.61,.2-.27,.32-.46,.27-.42-.08,.07-.09,.07-.09-.02,0-.05-.04-.09-.07-.08-.04,.01-.07-.02-.06-.06,.02-.11,0-.09-.23,.15Z"/>
      <path class="cls-4" d="M27.02,14.64c-.12,.09-.12,.11,.31,.24,.4,.13,1.18,.49,1.53,.72,.38,.23,.25,.08-.26-.3-.43-.32-1.03-.64-1.33-.7-.08-.02-.2,0-.25,.05Z"/>
      <path class="cls-9" d="M6.51,14.82c-.04,.05-.07,.1-.05,.12,.02,.01,.06-.03,.1-.09,.08-.14,.06-.15-.05-.03Z"/>
      <path class="cls-28" d="M26.51,15.04s-.05,.1-.02,.12c.02,.02,0,.04-.04,.04s-.14,.05-.22,.11l-.14,.11,.31,.1c.17,.05,.43,.18,.57,.27,.15,.09,.43,.24,.62,.33,.83,.38,2.32,1.33,3.08,1.94,.27,.22,.28,.22,.17,.07-.07-.1-.39-.44-.72-.75-.61-.59-1.52-1.24-2.19-1.55-.2-.09-.37-.2-.37-.22,0-.11,1.24,.47,1.86,.87,.47,.29,.49,.3,.24,.07-.56-.51-1.33-.95-2.28-1.3-.79-.29-.8-.29-.88-.2Z"/>
      <path class="cls-11" d="M1.82,15.61c-.93,1-1.17,2.85-.53,4.24,.09,.2,.18,.33,.2,.3,.02-.04,0-.28-.04-.56-.24-1.52-.24-1.8-.02-2.66,.12-.5,.4-1.15,.6-1.43,.18-.25,.11-.21-.2,.12Z"/>
      <path class="cls-21" d="M2.49,15.96c-.25,.5-.45,1.11-.54,1.63-.12,.74,0,2.24,.18,2.24,.02,0,.07-.26,.09-.58,.09-1.4,.27-2.28,.63-3.11,.22-.5,.26-.67,.09-.35-.08,.14-.09,.15-.12,.06-.04-.08-.06-.09-.14-.03-.08,.07-.08,.06-.02-.06,.04-.07,.05-.13,.04-.13-.01,0-.11,.15-.2,.34Zm-.5,2.16s-.03,.01-.03-.07,.01-.11,.03-.08c.01,.04,.01,.11,0,.15Z"/>
      <path class="cls-23" d="M.07,17.41c-.18,1.06,.02,2.17,.53,2.89,.24,.34,.24,.09,0-.51-.34-.85-.44-1.31-.44-2.08,0-.37-.01-.67-.01-.67,0,0-.04,.17-.08,.37Zm.7,2.94s-.01,.06-.02,.06c-.02,0-.05-.03-.07-.06-.02-.04,0-.06,.02-.06,.04,0,.07,.02,.07,.06Z"/>
      <path class="cls-1" d="M15.12,19.45c-2.1,.26-3.7,.78-5.23,1.71-.8,.49-2.09,1.56-2,1.66,.02,.02,.27-.14,.56-.35,1.85-1.38,3.84-2.21,6.02-2.51,.86-.12,2.92-.14,3.79-.02,1.82,.22,3.77,.82,5.43,1.64,.54,.27,.63,.22,.16-.09-1.54-1-3.89-1.78-6.05-2.02-.53-.06-2.27-.08-2.68-.02Z"/>
      <path class="cls-22" d="M3.31,23.76c-.14,.37-.35,1.46-.44,2.3-.2,1.83,.04,3.9,.67,5.86,.11,.35,.24,.69,.27,.73,.16,.2,.14-.09-.04-.85-.66-2.68-.77-5.05-.35-7.35,.17-.93,.17-.85,.05-.85-.05,0-.12,.07-.15,.16Zm-.19,2.34s-.04,.03-.04-.04c0-.07,.01-.1,.03-.08,.02,.02,.02,.07,0,.11Z"/>
      <path class="cls-25" d="M7.97,25c-.46,.11-1.13,.43-1.64,.76-.49,.33-.56,.4-.5,.55,.07,.22,.25,.18,.95-.17,.38-.19,.87-.38,1.09-.44,.47-.11,1.14-.12,1.51-.02l.26,.07-.27,.29c-.3,.32-.41,.54-.47,.94l-.04,.27,.21-.3c.2-.28,.47-.54,.92-.85,.18-.12,.22-.13,.43-.07,.12,.04,.23,.08,.23,.09s-.08,.15-.18,.31c-.2,.31-.21,.36-.1,.35,.21,0,.28,.02,.24,.09-.02,.04,.09-.07,.25-.24l.29-.31,.27,.1c.15,.06,.27,.11,.28,.12s-.02,.23-.08,.5c-.11,.55-.08,.95,.09,1.34,.06,.14,.12,.25,.13,.25s.02-.25,.02-.55c0-.41,.04-.63,.14-.89,.07-.2,.15-.37,.18-.4,.02-.02,.22,0,.43,.07l.38,.11v.49c.03,.62,.16,1.07,.39,1.34,.22,.25,.33,.27,.21,.04-.14-.27-.23-.88-.2-1.32,.02-.22,.04-.42,.05-.43s.24,.02,.5,.07l.48,.09,.07,.44c.12,.75,.43,1.25,.92,1.51l.24,.12-.18-.22c-.34-.44-.47-.79-.54-1.43l-.04-.37,.5,.02,.5,.02,.12,.33c.32,.86,.92,1.45,1.62,1.57l.23,.04-.33-.21c-.21-.13-.42-.34-.57-.56-.27-.38-.54-.92-.54-1.08,0-.11,.26-.17,.72-.17h.27l.3,.47c.54,.82,1.11,1.24,1.88,1.34l.3,.04-.35-.18c-.46-.23-.9-.66-1.27-1.22-.17-.25-.3-.47-.3-.5,0-.02,.15-.08,.34-.11,.18-.04,.37-.08,.41-.09,.04-.01,.36,.26,.71,.61,.68,.67,1,.88,1.64,1.04,.19,.05,.49,.09,.65,.09h.3l-.4-.14c-.21-.08-.56-.24-.77-.37-.38-.23-1.49-1.3-1.44-1.38,.01-.02,.2-.09,.41-.15l.38-.11,.23,.21c.57,.51,1.12,.85,1.71,1.06,.39,.13,1.2,.2,1.56,.12,.22-.05,.24-.06,.08-.07-.37-.01-1.12-.25-1.63-.52-.49-.25-1.3-.84-1.34-.96-.01-.03,.11-.12,.27-.2l.3-.15,.46,.26c1.2,.68,2.47,.79,3.51,.3,.48-.23,.53-.31,.12-.18-.68,.21-1.59,.17-2.36-.09-.38-.14-1.12-.48-1.12-.53,0-.02,.26-.2,.58-.41,.37-.24,.54-.38,.47-.4-.05-.01-.46,.11-.89,.27-2.22,.83-4.09,1.22-6.02,1.24-1.76,.02-3.08-.25-5.03-1.06-1.26-.52-2.21-.65-3.09-.44Z"/>
      <path class="cls-19" d="M10.22,26.94c-.08,.19-.1,.61-.05,.77,.03,.09,.06,.14,.06,.08,0-.05,.06-.2,.12-.34,.13-.27,.14-.31,.08-.3-.15,.02-.2-.02-.16-.15,.04-.15,0-.21-.05-.07Z"/>
    </g>
  </g>
</svg>