<?xml version="1.0" encoding="UTF-8"?>
<svg id="katman_2" data-name="katman 2" xmlns="http://www.w3.org/2000/svg" xmlns:xlink="http://www.w3.org/1999/xlink" viewBox="0 0 55.6 55.73">
  <defs>
    <style>
      .cls-1 {
        fill: #fff;
      }

      .cls-2 {
        fill: #edaa8c;
      }

      .cls-3 {
        fill: #192a44;
      }

      .cls-4 {
        fill: #d17d61;
      }

      .cls-5 {
        fill: #e29779;
      }

      .cls-6 {
        fill: #344966;
      }

      .cls-7 {
        fill: url(#Adsız_degrade);
      }
    </style>
    <linearGradient id="Adsız_degrade" data-name="Adsız degrade" x1="27.8" y1="4.92" x2="27.8" y2="60.52" gradientTransform="translate(0 60.52) scale(1 -1)" gradientUnits="userSpaceOnUse">
      <stop offset="0" stop-color="#b99f6c"/>
      <stop offset=".6" stop-color="#eee6db"/>
    </linearGradient>
  </defs>
  <g id="katman_2-2" data-name="katman 2">
    <circle class="cls-7" cx="27.8" cy="27.8" r="27.8"/>
    <g>
      <path class="cls-3" d="M39.36,33.41c2.51-2.99-3.18-9.06-3.45-16.59-.09-2.58-.08-5.36-1.49-7.67-1.43-2.34-4.23-3.76-6.99-3.76h-.14c-2.59,0-5.04,1.23-6.61,3.24-1.5,1.92-1.79,4.05-1.75,6.39-.2,8.04-6.33,14.82-2.92,18.8,3.78,3.17,20.84,2.58,23.35-.41Z"/>
      <g>
        <g>
          <path class="cls-2" d="M20.36,16.96s-.86-1.38-2.03-.46c-1.62,1.29,.46,5.16,2.66,4.31,2.2-.86-.63-3.84-.63-3.84Z"/>
          <path class="cls-4" d="M20.02,20.27c-.79-.15-1.32-1.16-1.3-1.97,.02-.54,.27-.9,.69-.95l.02,.18c-.46,.06-.53,.56-.53,.78-.02,.74,.45,1.65,1.15,1.79l-.03,.18Z"/>
          <path class="cls-4" d="M20.14,19.56c-.45-.47-1.09-.29-1.12-.28l-.05-.18s.77-.23,1.3,.33l-.13,.13Z"/>
        </g>
        <g>
          <path class="cls-2" d="M34.41,16.91s.83-1.25,1.99-.41c1.62,1.29-.46,5.16-2.66,4.31s.67-3.9,.67-3.9Z"/>
          <path class="cls-4" d="M34.71,20.27l-.03-.18c.7-.13,1.17-1.05,1.15-1.79,0-.21-.07-.72-.53-.78l.02-.18c.42,.06,.68,.41,.69,.95,.02,.81-.51,1.82-1.3,1.97Z"/>
          <path class="cls-4" d="M34.59,19.56l-.13-.13c.53-.56,1.27-.34,1.3-.33l-.05,.18s-.66-.19-1.12,.28Z"/>
        </g>
      </g>
      <path class="cls-2" d="M33.18,29.86c-2.48-1.93-2.24-5.41-2.24-5.41l-3.44-.48v-.04l-.13,.02-.13-.02v.04l-3.44,.48s.24,3.47-2.24,5.41c-2.48,1.93-13.31,3.59-13.71,6.36,13.89,2.75,26.55,2.82,40.09,0-.4-2.76-12.28-4.42-14.76-6.36Z"/>
      <path class="cls-1" d="M41.43,32.61c-10.94,4.21-18.21,3.89-26.94-.12-8.67,2.17-9.95,6.88-10.16,10.23H51.26c-.21-3.36-1.47-8.03-9.82-10.11Z"/>
      <path class="cls-2" d="M32.65,7.71c-1.36-1.43-3.31-2.13-5.28-2.13,0,0,0,0,0,0s0,0,0,0c-1.96,0-3.92,.7-5.28,2.13-3.01,3.17-1.99,8.46-1.27,12.32,0,0,.39,2.08,.87,2.9,.41,.86,3.01,4.64,5.69,4.62,0,0,0,0,0,0,0,0,0,0,0,0,2.68,.02,5.27-3.76,5.69-4.62,.48-.81,.87-2.9,.87-2.9,.72-3.86,1.73-9.15-1.27-12.32Z"/>
      <path class="cls-4" d="M27.36,27.64c-1.06,0-2.19-.55-3.37-1.64l.12-.14c1.15,1.06,2.23,1.59,3.24,1.59,.01,0,.02,0,.03,0,1.02,0,2.11-.54,3.25-1.59l.12,.14c-1.18,1.09-2.31,1.64-3.36,1.64h-.03Z"/>
      <path class="cls-4" d="M20.86,20.83s-.18-.99-.19-1.01l.18-.03s.19,1.01,.19,1.01l-.18,.03Z"/>
      <path class="cls-4" d="M33.87,20.83l-.18-.03s.18-.99,.19-1.01l.18,.03s-.19,1.01-.19,1.01Z"/>
      <g>
        <path class="cls-4" d="M24.36,32.7c-1.62-.49-2.49-1.49-2.52-1.54l.14-.12s.87,1.01,2.44,1.48l-.05,.18Z"/>
        <path class="cls-4" d="M30.38,32.7l-.05-.18c1.57-.47,2.43-1.47,2.44-1.48l.14,.12s-.9,1.05-2.52,1.54Z"/>
      </g>
      <path class="cls-1" d="M20.44,21.17c0,.22-.18,.4-.39,.4s-.39-.18-.39-.4,.22-.71,.39-.71,.39,.49,.39,.71Z"/>
      <path class="cls-1" d="M35.09,21.17c0,.22-.18,.4-.39,.4s-.39-.18-.39-.4,.22-.71,.39-.71,.39,.49,.39,.71Z"/>
      <path class="cls-4" d="M27.36,23.55c-.68,0-1.36-.11-2.05-.35l.06-.18c1.34,.45,2.64,.45,3.99,0l.06,.18c-.69,.23-1.37,.34-2.06,.34Z"/>
      <path class="cls-4" d="M27.35,24.27c-.28,0-.55-.05-.82-.14l.06-.18c.5,.17,1.01,.17,1.57,0l.05,.18c-.3,.09-.58,.14-.86,.14Z"/>
      <path class="cls-3" d="M22.58,17.55c.98-.18,2.18-.21,3.38-.11,0,0-.1-.79-1.67-.73-1.57,.06-1.71,.85-1.71,.85Z"/>
      <path class="cls-3" d="M32.15,17.55c-.98-.18-2.18-.21-3.38-.11,0,0,.1-.79,1.67-.73,1.57,.06,1.71,.85,1.71,.85Z"/>
      <g>
        <path class="cls-3" d="M25.65,18.96s-.94-.57-1.65-.55c-.68,.01-1.08,.53-1.09,.53l-.14-.11s.46-.59,1.23-.6c.74-.02,1.71,.55,1.75,.58l-.09,.16Z"/>
        <path class="cls-3" d="M24.54,18.36s0,0,0,0c-.08,0-.16-.02-.24-.04,0,0,0,0-.01,0-.06,0-.12,0-.17,0h-.44c-.09,.1-.15,.24-.15,.39,0,.32,.26,.58,.57,.58s.57-.26,.57-.58c0-.14-.05-.26-.13-.36Z"/>
      </g>
      <g>
        <path class="cls-3" d="M29.08,18.96l-.09-.16s.97-.58,1.72-.58c.01,0,.02,0,.03,0,.77,.02,1.21,.58,1.23,.6l-.14,.11s-.41-.52-1.09-.53c-.71-.02-1.64,.55-1.65,.55Z"/>
        <path class="cls-3" d="M30.18,18.36s0,0,0,0c.08,0,.16-.02,.24-.04,0,0,0,0,.01,0,.06,0,.12,0,.17,0h.44c.09,.1,.15,.24,.15,.39,0,.32-.26,.58-.57,.58s-.57-.26-.57-.58c0-.14,.05-.26,.13-.36Z"/>
      </g>
      <path class="cls-3" d="M24.24,6.16c.53,.69,.51,5.37,.15,6.41,2.54,.25,6.05,4.39,9.98,3.35,3.26-9.42-6.34-11.77-10.13-9.77Z"/>
      <path class="cls-3" d="M33.79,14.09v4.42c.16-.82,.33-1.24,.71-1.71l.32-1.32,.13-1.08-.64-.15-.51-.17Z"/>
      <path class="cls-3" d="M20.95,14.09v4.4c-.16-.82-.34-1.24-.7-1.68l-.33-1.32-.13-1.08,.64-.15,.51-.17Z"/>
      <g>
        <path class="cls-4" d="M27.37,22.2c-.26,0-.4-.09-.55-.18-.1-.06-.21-.13-.37-.18l.05-.18c.19,.05,.31,.13,.42,.19,.14,.08,.25,.15,.45,.15s.31-.07,.45-.15c.11-.07,.23-.14,.42-.19l.05,.18c-.16,.05-.27,.11-.37,.18-.15,.09-.29,.18-.55,.18Z"/>
        <path class="cls-4" d="M26.01,21.91c-.13-.13-.2-.28-.21-.44,0-.28,.2-.48,.2-.49l.13,.13s-.32,.36,0,.67l-.13,.13Z"/>
        <path class="cls-4" d="M28.73,21.91l-.13-.13c.32-.32,.03-.64,0-.67l.13-.13s.21,.22,.2,.49c0,.16-.07,.31-.21,.44Z"/>
      </g>
      <path class="cls-3" d="M24.04,12.55c-2.08,.9-3.01,2.66-3.09,4.23-2.92-3.59-.16-9.25,3.1-10.52-.44,.88-.48,5.77,0,6.29Z"/>
      <path class="cls-6" d="M33.8,16.16l-.03-.24s1.27-.19,1.65-.87l.21,.12c-.44,.78-1.77,.98-1.83,.99Z"/>
      <path class="cls-6" d="M32.3,15.03c-.75,0-1.57-.14-2.44-.43-1.57-.52-2.78-1.33-2.79-1.34l.14-.2s4.73,3.15,7.68,.93l.15,.2c-.75,.56-1.67,.84-2.72,.84Z"/>
      <path class="cls-6" d="M37.8,30.78l-.23-.09c.74-2.01,.15-3.91-.38-5.59-.2-.64-.39-1.25-.49-1.81l.24-.04c.09,.54,.28,1.14,.48,1.77,.54,1.71,1.14,3.66,.37,5.75Z"/>
      <path class="cls-6" d="M18.88,30.11c-.6-2.21,.39-5.82,.43-5.97l.23,.07s-1.01,3.7-.43,5.84l-.24,.07Z"/>
      <path class="cls-6" d="M19.99,26.62h-.24c.07-2.09,.9-4.09,.91-4.11l.22,.1s-.82,1.98-.89,4.02Z"/>
      <path class="cls-6" d="M35.15,27.13h-.24c.13-2.77-.86-4.72-.87-4.74l.22-.11c.04,.08,1.03,2.03,.89,4.85Z"/>
      <path class="cls-5" d="M22.73,19.84c0,.19-.24,.34-.55,.34s-.55-.15-.55-.34,.24-.34,.55-.34,.55,.15,.55,.34Z"/>
      <ellipse class="cls-5" cx="32.55" cy="19.84" rx=".55" ry=".34"/>
    </g>
    <path class="cls-1" d="M4.35,42.54c-.02,.41,.32,.75,.53,1.08,.34,.54,.7,1,1.17,1.53,.51,.56,1,1.23,1.57,1.8,.8,.81,1.68,1.55,2.54,2.39,4.09,3.99,10.77,6.44,18.74,6.39,5.39-.03,9.41-1.81,12.84-3.87,2.52-1.51,4.9-3.02,6.33-4.91,.84-1.11,1.73-2.02,2.41-2.97,.52-.72,1-1.44,.7-2.43"/>
  </g>
</svg>