<?xml version="1.0" encoding="UTF-8"?>
<svg id="katman_2" data-name="katman 2" xmlns="http://www.w3.org/2000/svg" xmlns:xlink="http://www.w3.org/1999/xlink" viewBox="0 0 100.18 93.47">
  <defs>
    <style>
      .cls-1 {
        fill: url(#Adsız_degrade_48-61);
      }

      .cls-2 {
        fill: url(#Adsız_degrade_48-80);
      }

      .cls-3 {
        fill: url(#Adsız_degrade_48-79);
      }

      .cls-4 {
        fill: url(#Adsız_degrade_48-57);
      }

      .cls-5 {
        fill: url(#Adsız_degrade_48-41);
      }

      .cls-6 {
        fill: url(#Adsız_degrade_48-21);
      }

      .cls-7 {
        fill: url(#Adsız_degrade_48-17);
      }

      .cls-8 {
        fill: url(#Adsız_degrade_48-84);
      }

      .cls-9 {
        fill: url(#Adsız_degrade_48-48);
      }

      .cls-10 {
        fill: url(#Adsız_degrade_48-96);
      }

      .cls-11 {
        fill: url(#Adsız_degrade_48-105);
      }

      .cls-12 {
        fill: url(#Adsız_degrade_48-94);
      }

      .cls-13 {
        fill: url(#Adsız_degrade_48-4);
      }

      .cls-14 {
        fill: url(#Adsız_degrade_48-102);
      }

      .cls-15 {
        fill: url(#Adsız_degrade_48-58);
      }

      .cls-16 {
        fill: url(#Adsız_degrade_48-34);
      }

      .cls-17 {
        fill: url(#Adsız_degrade_48-32);
      }

      .cls-18 {
        fill: url(#Adsız_degrade_48-77);
      }

      .cls-19 {
        fill: url(#Adsız_degrade_48-74);
      }

      .cls-20 {
        fill: url(#Adsız_degrade_48-52);
      }

      .cls-21 {
        fill: url(#Adsız_degrade_48-87);
      }

      .cls-22 {
        fill: url(#Adsız_degrade_48-100);
      }

      .cls-23 {
        fill: url(#Adsız_degrade_48-40);
      }

      .cls-24 {
        fill: url(#Adsız_degrade_48-76);
      }

      .cls-25 {
        fill: url(#Adsız_degrade_48-42);
      }

      .cls-26 {
        fill: url(#Adsız_degrade_48-37);
      }

      .cls-27 {
        fill: url(#Adsız_degrade_48-89);
      }

      .cls-28 {
        fill: url(#Adsız_degrade_48-49);
      }

      .cls-29 {
        fill: url(#Adsız_degrade_48-95);
      }

      .cls-30 {
        fill: url(#Adsız_degrade_48-51);
      }

      .cls-31 {
        fill: url(#Adsız_degrade_48-97);
      }

      .cls-32 {
        fill: url(#Adsız_degrade_48-50);
      }

      .cls-33 {
        fill: url(#Adsız_degrade_48-67);
      }

      .cls-34 {
        fill: url(#Adsız_degrade_48-104);
      }

      .cls-35 {
        fill: url(#Adsız_degrade_48-86);
      }

      .cls-36 {
        fill: url(#Adsız_degrade_48-12);
      }

      .cls-37 {
        fill: url(#Adsız_degrade_48-66);
      }

      .cls-38 {
        fill: url(#Adsız_degrade_48-56);
      }

      .cls-39 {
        fill: url(#Adsız_degrade_48-20);
      }

      .cls-40 {
        fill: url(#Adsız_degrade_48-69);
      }

      .cls-41 {
        fill: url(#Adsız_degrade_48-45);
      }

      .cls-42 {
        fill: url(#Adsız_degrade_48-68);
      }

      .cls-43 {
        fill: url(#Adsız_degrade_48-53);
      }

      .cls-44 {
        fill: url(#Adsız_degrade_48-93);
      }

      .cls-45 {
        fill: url(#Adsız_degrade_48-72);
      }

      .cls-46 {
        fill: url(#Adsız_degrade_48-101);
      }

      .cls-47 {
        fill: url(#Adsız_degrade_48-31);
      }

      .cls-48 {
        fill: url(#Adsız_degrade_48-108);
      }

      .cls-49 {
        fill: url(#Adsız_degrade_48-15);
      }

      .cls-50 {
        fill: url(#Adsız_degrade_48-6);
      }

      .cls-51 {
        fill: url(#Adsız_degrade_48);
      }

      .cls-52 {
        fill: url(#Adsız_degrade_48-75);
      }

      .cls-53 {
        fill: url(#Adsız_degrade_48-82);
      }

      .cls-54 {
        fill: url(#Adsız_degrade_48-39);
      }

      .cls-55 {
        fill: url(#Adsız_degrade_48-73);
      }

      .cls-56 {
        fill: url(#Adsız_degrade_48-47);
      }

      .cls-57 {
        fill: url(#Adsız_degrade_48-88);
      }

      .cls-58 {
        fill: url(#Adsız_degrade_48-19);
      }

      .cls-59 {
        fill: url(#Adsız_degrade_48-16);
      }

      .cls-60 {
        fill: url(#Adsız_degrade_48-33);
      }

      .cls-61 {
        fill: url(#Adsız_degrade_48-36);
      }

      .cls-62 {
        fill: url(#Adsız_degrade_48-106);
      }

      .cls-63 {
        fill: url(#Adsız_degrade_48-38);
      }

      .cls-64 {
        fill: url(#Adsız_degrade_48-90);
      }

      .cls-65 {
        fill: url(#Adsız_degrade_48-59);
      }

      .cls-66 {
        fill: url(#Adsız_degrade_48-29);
      }

      .cls-67 {
        fill: url(#Adsız_degrade_48-23);
      }

      .cls-68 {
        fill: url(#Adsız_degrade_48-43);
      }

      .cls-69 {
        fill: url(#Adsız_degrade_48-28);
      }

      .cls-70 {
        fill: url(#Adsız_degrade_48-81);
      }

      .cls-71 {
        fill: url(#Adsız_degrade_48-85);
      }

      .cls-72 {
        fill: url(#Adsız_degrade_48-25);
      }

      .cls-73 {
        fill: url(#Adsız_degrade_48-99);
      }

      .cls-74 {
        fill: url(#Adsız_degrade_48-55);
      }

      .cls-75 {
        fill: url(#Adsız_degrade_48-14);
      }

      .cls-76 {
        fill: url(#Adsız_degrade_48-109);
      }

      .cls-77 {
        fill: url(#Adsız_degrade_48-54);
      }

      .cls-78 {
        fill: url(#Adsız_degrade_48-91);
      }

      .cls-79 {
        fill: url(#Adsız_degrade_48-60);
      }

      .cls-80 {
        fill: url(#Adsız_degrade_48-65);
      }

      .cls-81 {
        fill: url(#Adsız_degrade_48-92);
      }

      .cls-82 {
        fill: url(#Adsız_degrade_48-30);
      }

      .cls-83 {
        fill: url(#Adsız_degrade_48-10);
      }

      .cls-84 {
        fill: url(#Adsız_degrade_48-24);
      }

      .cls-85 {
        fill: url(#Adsız_degrade_48-103);
      }

      .cls-86 {
        fill: url(#Adsız_degrade_48-8);
      }

      .cls-87 {
        fill: url(#Adsız_degrade_48-83);
      }

      .cls-88 {
        fill: url(#Adsız_degrade_48-62);
      }

      .cls-89 {
        fill: url(#Adsız_degrade_48-9);
      }

      .cls-90 {
        fill: url(#Adsız_degrade_48-98);
      }

      .cls-91 {
        fill: url(#Adsız_degrade_48-63);
      }

      .cls-92 {
        fill: url(#Adsız_degrade_48-64);
      }

      .cls-93 {
        fill: url(#Adsız_degrade_48-5);
      }

      .cls-94 {
        fill: url(#Adsız_degrade_48-46);
      }

      .cls-95 {
        fill: url(#Adsız_degrade_48-22);
      }

      .cls-96 {
        fill: url(#Adsız_degrade_48-35);
      }

      .cls-97 {
        fill: url(#Adsız_degrade_48-70);
      }

      .cls-98 {
        fill: url(#Adsız_degrade_48-107);
      }

      .cls-99 {
        fill: url(#Adsız_degrade_48-11);
      }

      .cls-100 {
        fill: url(#Adsız_degrade_48-7);
      }

      .cls-101 {
        fill: url(#Adsız_degrade_48-26);
      }

      .cls-102 {
        fill: url(#Adsız_degrade_48-13);
      }

      .cls-103 {
        fill: url(#Adsız_degrade_48-44);
      }

      .cls-104 {
        fill: url(#Adsız_degrade_48-18);
      }

      .cls-105 {
        fill: url(#Adsız_degrade_48-2);
      }

      .cls-106 {
        fill: url(#Adsız_degrade_48-71);
      }

      .cls-107 {
        fill: url(#Adsız_degrade_48-27);
      }

      .cls-108 {
        fill: url(#Adsız_degrade_48-3);
      }

      .cls-109 {
        fill: url(#Adsız_degrade_48-78);
      }
    </style>
    <linearGradient id="Adsız_degrade_48" data-name="Adsız degrade 48" x1="6.37" y1="28.55" x2="71.57" y2="28.55" gradientUnits="userSpaceOnUse">
      <stop offset=".58" stop-color="#eee6db"/>
      <stop offset="1" stop-color="#b99f6c"/>
    </linearGradient>
    <linearGradient id="Adsız_degrade_48-2" data-name="Adsız degrade 48" x1="0" y1="39.04" x2="47.94" y2="39.04" xlink:href="#Adsız_degrade_48"/>
    <linearGradient id="Adsız_degrade_48-3" data-name="Adsız degrade 48" x1="64.26" y1="18.16" x2="96.28" y2="18.16" xlink:href="#Adsız_degrade_48"/>
    <linearGradient id="Adsız_degrade_48-4" data-name="Adsız degrade 48" x1="65.14" y1="60.91" x2="84.79" y2="60.91" xlink:href="#Adsız_degrade_48"/>
    <linearGradient id="Adsız_degrade_48-5" data-name="Adsız degrade 48" x1="24.06" y1="75.07" x2="67.82" y2="75.07" xlink:href="#Adsız_degrade_48"/>
    <linearGradient id="Adsız_degrade_48-6" data-name="Adsız degrade 48" x1="19.26" y1="72.62" x2="39.08" y2="72.62" xlink:href="#Adsız_degrade_48"/>
    <linearGradient id="Adsız_degrade_48-7" data-name="Adsız degrade 48" x1="3.92" y1="68.77" x2="18.78" y2="68.77" xlink:href="#Adsız_degrade_48"/>
    <linearGradient id="Adsız_degrade_48-8" data-name="Adsız degrade 48" x1="61.55" y1="42.53" x2="86.43" y2="42.53" xlink:href="#Adsız_degrade_48"/>
    <linearGradient id="Adsız_degrade_48-9" data-name="Adsız degrade 48" x1="11.65" y1="71.76" x2="23.53" y2="71.76" xlink:href="#Adsız_degrade_48"/>
    <linearGradient id="Adsız_degrade_48-10" data-name="Adsız degrade 48" x1="59.39" y1="47.96" x2="84.11" y2="47.96" xlink:href="#Adsız_degrade_48"/>
    <linearGradient id="Adsız_degrade_48-11" data-name="Adsız degrade 48" x1="57.11" y1="42.1" x2="83.79" y2="42.1" xlink:href="#Adsız_degrade_48"/>
    <linearGradient id="Adsız_degrade_48-12" data-name="Adsız degrade 48" x1="67.21" y1="80.7" x2="72.29" y2="80.7" xlink:href="#Adsız_degrade_48"/>
    <linearGradient id="Adsız_degrade_48-13" data-name="Adsız degrade 48" x1="43.49" y1="55.61" x2="58.51" y2="55.61" xlink:href="#Adsız_degrade_48"/>
    <linearGradient id="Adsız_degrade_48-14" data-name="Adsız degrade 48" x1="41.8" y1="47.68" x2="58.07" y2="47.68" xlink:href="#Adsız_degrade_48"/>
    <linearGradient id="Adsız_degrade_48-15" data-name="Adsız degrade 48" x1="69.92" y1="69.73" x2="76.43" y2="69.73" xlink:href="#Adsız_degrade_48"/>
    <linearGradient id="Adsız_degrade_48-16" data-name="Adsız degrade 48" x1="32.43" y1="60.2" x2="36.07" y2="60.2" xlink:href="#Adsız_degrade_48"/>
    <linearGradient id="Adsız_degrade_48-17" data-name="Adsız degrade 48" x1="24.23" y1="56.35" x2="33.53" y2="56.35" xlink:href="#Adsız_degrade_48"/>
    <linearGradient id="Adsız_degrade_48-18" data-name="Adsız degrade 48" x1="24.02" y1="49.34" x2="33.05" y2="49.34" xlink:href="#Adsız_degrade_48"/>
    <linearGradient id="Adsız_degrade_48-19" data-name="Adsız degrade 48" x1="92.36" y1="2.63" x2="99.93" y2="2.63" xlink:href="#Adsız_degrade_48"/>
    <linearGradient id="Adsız_degrade_48-20" data-name="Adsız degrade 48" x1="48.34" y1="19.02" x2="55.71" y2="19.02" xlink:href="#Adsız_degrade_48"/>
    <linearGradient id="Adsız_degrade_48-21" data-name="Adsız degrade 48" x1="57.05" y1="19.78" x2="60.76" y2="19.78" xlink:href="#Adsız_degrade_48"/>
    <linearGradient id="Adsız_degrade_48-22" data-name="Adsız degrade 48" x1="69.45" y1="4.73" x2="73.47" y2="4.73" xlink:href="#Adsız_degrade_48"/>
    <linearGradient id="Adsız_degrade_48-23" data-name="Adsız degrade 48" x1="69.9" y1="13.76" x2="73.52" y2="13.76" xlink:href="#Adsız_degrade_48"/>
    <linearGradient id="Adsız_degrade_48-24" data-name="Adsız degrade 48" x1="65.61" y1="11.23" x2="69.01" y2="11.23" xlink:href="#Adsız_degrade_48"/>
    <linearGradient id="Adsız_degrade_48-25" data-name="Adsız degrade 48" x1="28.96" y1="27.91" x2="37.03" y2="27.91" xlink:href="#Adsız_degrade_48"/>
    <linearGradient id="Adsız_degrade_48-26" data-name="Adsız degrade 48" x1="73.1" y1="77.34" x2="79.27" y2="77.34" xlink:href="#Adsız_degrade_48"/>
    <linearGradient id="Adsız_degrade_48-27" data-name="Adsız degrade 48" x1="78.88" y1="64.81" x2="80.6" y2="64.81" xlink:href="#Adsız_degrade_48"/>
    <linearGradient id="Adsız_degrade_48-28" data-name="Adsız degrade 48" x1="71.71" y1="55.75" x2="75.05" y2="55.75" xlink:href="#Adsız_degrade_48"/>
    <linearGradient id="Adsız_degrade_48-29" data-name="Adsız degrade 48" x1="23.29" y1="30.27" x2="30.8" y2="30.27" xlink:href="#Adsız_degrade_48"/>
    <linearGradient id="Adsız_degrade_48-30" data-name="Adsız degrade 48" x1="94.48" y1="6.03" x2="100.18" y2="6.03" xlink:href="#Adsız_degrade_48"/>
    <linearGradient id="Adsız_degrade_48-31" data-name="Adsız degrade 48" x1="78.33" y1="70.8" x2="80.51" y2="70.8" xlink:href="#Adsız_degrade_48"/>
    <linearGradient id="Adsız_degrade_48-32" data-name="Adsız degrade 48" x1="70" y1="32.87" x2="76.58" y2="32.87" xlink:href="#Adsız_degrade_48"/>
    <linearGradient id="Adsız_degrade_48-33" data-name="Adsız degrade 48" x1="33.08" y1="19.64" x2="42.17" y2="19.64" xlink:href="#Adsız_degrade_48"/>
    <linearGradient id="Adsız_degrade_48-34" data-name="Adsız degrade 48" x1="70.89" y1="59.03" x2="73.34" y2="59.03" xlink:href="#Adsız_degrade_48"/>
    <linearGradient id="Adsız_degrade_48-35" data-name="Adsız degrade 48" x1="24.01" y1="59" x2="24.93" y2="59" xlink:href="#Adsız_degrade_48"/>
    <linearGradient id="Adsız_degrade_48-36" data-name="Adsız degrade 48" x1="10.16" y1="54.16" x2="14.02" y2="54.16" xlink:href="#Adsız_degrade_48"/>
    <linearGradient id="Adsız_degrade_48-37" data-name="Adsız degrade 48" x1="63.94" y1="23.34" x2="69.37" y2="23.34" xlink:href="#Adsız_degrade_48"/>
    <linearGradient id="Adsız_degrade_48-38" data-name="Adsız degrade 48" x1="57.86" y1="33.86" x2="62.15" y2="33.86" xlink:href="#Adsız_degrade_48"/>
    <linearGradient id="Adsız_degrade_48-39" data-name="Adsız degrade 48" x1="60.62" y1="32" x2="62.17" y2="32" xlink:href="#Adsız_degrade_48"/>
    <linearGradient id="Adsız_degrade_48-40" data-name="Adsız degrade 48" x1="60.21" y1="25.4" x2="61.53" y2="25.4" xlink:href="#Adsız_degrade_48"/>
    <linearGradient id="Adsız_degrade_48-41" data-name="Adsız degrade 48" x1="78.94" y1="64" x2="79.71" y2="64" xlink:href="#Adsız_degrade_48"/>
    <linearGradient id="Adsız_degrade_48-42" data-name="Adsız degrade 48" x1="58.75" y1="29.53" x2="60.1" y2="29.53" xlink:href="#Adsız_degrade_48"/>
    <linearGradient id="Adsız_degrade_48-43" data-name="Adsız degrade 48" x1="79.66" y1="37.53" x2="81.35" y2="37.53" xlink:href="#Adsız_degrade_48"/>
    <linearGradient id="Adsız_degrade_48-44" data-name="Adsız degrade 48" x1="56.26" y1="27.93" x2="57.35" y2="27.93" xlink:href="#Adsız_degrade_48"/>
    <linearGradient id="Adsız_degrade_48-45" data-name="Adsız degrade 48" x1="61.65" y1="28" x2="62.76" y2="28" xlink:href="#Adsız_degrade_48"/>
    <linearGradient id="Adsız_degrade_48-46" data-name="Adsız degrade 48" x1="63.36" y1="26.7" x2="64.35" y2="26.7" xlink:href="#Adsız_degrade_48"/>
    <linearGradient id="Adsız_degrade_48-47" data-name="Adsız degrade 48" x1="66.53" y1="26.09" x2="67.5" y2="26.09" xlink:href="#Adsız_degrade_48"/>
    <linearGradient id="Adsız_degrade_48-48" data-name="Adsız degrade 48" x1="63.19" y1="24.23" x2="64.22" y2="24.23" xlink:href="#Adsız_degrade_48"/>
    <linearGradient id="Adsız_degrade_48-49" data-name="Adsız degrade 48" x1="56.31" y1="31.54" x2="57.24" y2="31.54" xlink:href="#Adsız_degrade_48"/>
    <linearGradient id="Adsız_degrade_48-50" data-name="Adsız degrade 48" x1="52.05" y1="30.18" x2="52.96" y2="30.18" xlink:href="#Adsız_degrade_48"/>
    <linearGradient id="Adsız_degrade_48-51" data-name="Adsız degrade 48" x1="54.05" y1="28.56" x2="55.02" y2="28.56" xlink:href="#Adsız_degrade_48"/>
    <linearGradient id="Adsız_degrade_48-52" data-name="Adsız degrade 48" x1="62.91" y1="30.28" x2="63.78" y2="30.28" xlink:href="#Adsız_degrade_48"/>
    <linearGradient id="Adsız_degrade_48-53" data-name="Adsız degrade 48" x1="64.52" y1="29.15" x2="65.35" y2="29.15" xlink:href="#Adsız_degrade_48"/>
    <linearGradient id="Adsız_degrade_48-54" data-name="Adsız degrade 48" x1="53.97" y1="31.48" x2="54.77" y2="31.48" xlink:href="#Adsız_degrade_48"/>
    <linearGradient id="Adsız_degrade_48-55" data-name="Adsız degrade 48" x1="16.69" y1="82.82" x2="17.31" y2="82.82" xlink:href="#Adsız_degrade_48"/>
    <linearGradient id="Adsız_degrade_48-56" data-name="Adsız degrade 48" x1="83.63" y1="50.88" x2="84.27" y2="50.88" xlink:href="#Adsız_degrade_48"/>
    <linearGradient id="Adsız_degrade_48-57" data-name="Adsız degrade 48" x1="55.69" y1="32.11" x2="56.37" y2="32.11" xlink:href="#Adsız_degrade_48"/>
    <linearGradient id="Adsız_degrade_48-58" data-name="Adsız degrade 48" x1="68.54" y1="25.64" x2="69.11" y2="25.64" xlink:href="#Adsız_degrade_48"/>
    <linearGradient id="Adsız_degrade_48-59" data-name="Adsız degrade 48" x1="79.54" y1="70.43" x2="80.18" y2="70.43" xlink:href="#Adsız_degrade_48"/>
    <linearGradient id="Adsız_degrade_48-60" data-name="Adsız degrade 48" x1="79.28" y1="66.57" x2="79.53" y2="66.57" xlink:href="#Adsız_degrade_48"/>
    <linearGradient id="Adsız_degrade_48-61" data-name="Adsız degrade 48" x1="27.82" y1="22.1" x2="28.4" y2="22.1" xlink:href="#Adsız_degrade_48"/>
    <linearGradient id="Adsız_degrade_48-62" data-name="Adsız degrade 48" x1="86.73" y1="4.7" x2="87.29" y2="4.7" xlink:href="#Adsız_degrade_48"/>
    <linearGradient id="Adsız_degrade_48-63" data-name="Adsız degrade 48" x1="58.74" y1="26.86" x2="59.24" y2="26.86" xlink:href="#Adsız_degrade_48"/>
    <linearGradient id="Adsız_degrade_48-64" data-name="Adsız degrade 48" x1="73.19" y1="58" x2="73.46" y2="58" xlink:href="#Adsız_degrade_48"/>
    <linearGradient id="Adsız_degrade_48-65" data-name="Adsız degrade 48" x1="48.19" y1="11.88" x2="48.35" y2="11.88" xlink:href="#Adsız_degrade_48"/>
    <linearGradient id="Adsız_degrade_48-66" data-name="Adsız degrade 48" x1="80.47" y1="76.26" x2="80.72" y2="76.26" xlink:href="#Adsız_degrade_48"/>
    <linearGradient id="Adsız_degrade_48-67" data-name="Adsız degrade 48" x1="25.33" y1="57.17" x2="25.33" y2="57.17" xlink:href="#Adsız_degrade_48"/>
    <linearGradient id="Adsız_degrade_48-68" data-name="Adsız degrade 48" x1="94.26" y1="8.47" x2="94.44" y2="8.47" xlink:href="#Adsız_degrade_48"/>
    <linearGradient id="Adsız_degrade_48-69" data-name="Adsız degrade 48" x1="59.34" y1="38.72" x2="59.4" y2="38.72" xlink:href="#Adsız_degrade_48"/>
    <linearGradient id="Adsız_degrade_48-70" data-name="Adsız degrade 48" x1="6.29" y1="49.31" x2="6.44" y2="49.31" xlink:href="#Adsız_degrade_48"/>
    <linearGradient id="Adsız_degrade_48-71" data-name="Adsız degrade 48" x1="16.58" y1="23.63" x2="17.03" y2="23.63" xlink:href="#Adsız_degrade_48"/>
    <linearGradient id="Adsız_degrade_48-72" data-name="Adsız degrade 48" x1="17.12" y1="22.99" x2="17.45" y2="22.99" xlink:href="#Adsız_degrade_48"/>
    <linearGradient id="Adsız_degrade_48-73" data-name="Adsız degrade 48" x1="16.36" y1="24.01" x2="16.67" y2="24.01" xlink:href="#Adsız_degrade_48"/>
    <linearGradient id="Adsız_degrade_48-74" data-name="Adsız degrade 48" x1="29.53" y1="26.43" x2="29.89" y2="26.43" xlink:href="#Adsız_degrade_48"/>
    <linearGradient id="Adsız_degrade_48-75" data-name="Adsız degrade 48" x1="16.02" y1="24.63" x2="16.15" y2="24.63" xlink:href="#Adsız_degrade_48"/>
    <linearGradient id="Adsız_degrade_48-76" data-name="Adsız degrade 48" x1="16.21" y1="24.28" x2="16.45" y2="24.28" xlink:href="#Adsız_degrade_48"/>
    <linearGradient id="Adsız_degrade_48-77" data-name="Adsız degrade 48" x1="16.97" y1="23.22" x2="17.25" y2="23.22" xlink:href="#Adsız_degrade_48"/>
    <linearGradient id="Adsız_degrade_48-78" data-name="Adsız degrade 48" x1="56.4" y1="12.94" x2="56.56" y2="12.94" xlink:href="#Adsız_degrade_48"/>
    <linearGradient id="Adsız_degrade_48-79" data-name="Adsız degrade 48" x1="16.91" y1="23.38" x2="17.07" y2="23.38" xlink:href="#Adsız_degrade_48"/>
    <linearGradient id="Adsız_degrade_48-80" data-name="Adsız degrade 48" x1="49.4" y1="26.68" x2="49.49" y2="26.68" xlink:href="#Adsız_degrade_48"/>
    <linearGradient id="Adsız_degrade_48-81" data-name="Adsız degrade 48" x1="16.11" y1="24.47" x2="16.27" y2="24.47" xlink:href="#Adsız_degrade_48"/>
    <linearGradient id="Adsız_degrade_48-82" data-name="Adsız degrade 48" x1="9.37" y1="40.08" x2="43.54" y2="40.08" xlink:href="#Adsız_degrade_48"/>
    <linearGradient id="Adsız_degrade_48-83" data-name="Adsız degrade 48" x1="18.81" y1="36.03" x2="44.55" y2="36.03" xlink:href="#Adsız_degrade_48"/>
    <linearGradient id="Adsız_degrade_48-84" data-name="Adsız degrade 48" x1="22.29" y1="37.9" x2="34.65" y2="37.9" xlink:href="#Adsız_degrade_48"/>
    <linearGradient id="Adsız_degrade_48-85" data-name="Adsız degrade 48" x1="37.62" y1="30.26" x2="39.16" y2="30.26" xlink:href="#Adsız_degrade_48"/>
    <linearGradient id="Adsız_degrade_48-86" data-name="Adsız degrade 48" x1="18.61" y1="45.25" x2="18.91" y2="45.25" xlink:href="#Adsız_degrade_48"/>
    <linearGradient id="Adsız_degrade_48-87" data-name="Adsız degrade 48" x1="18.41" y1="45.38" x2="18.67" y2="45.38" xlink:href="#Adsız_degrade_48"/>
    <linearGradient id="Adsız_degrade_48-88" data-name="Adsız degrade 48" x1="74.47" y1="15.54" x2="92.69" y2="15.54" xlink:href="#Adsız_degrade_48"/>
    <linearGradient id="Adsız_degrade_48-89" data-name="Adsız degrade 48" x1="87.66" y1="8.26" x2="95.41" y2="8.26" xlink:href="#Adsız_degrade_48"/>
    <linearGradient id="Adsız_degrade_48-90" data-name="Adsız degrade 48" x1="91.93" y1="5.88" x2="96.87" y2="5.88" xlink:href="#Adsız_degrade_48"/>
    <linearGradient id="Adsız_degrade_48-91" data-name="Adsız degrade 48" x1="83.32" y1="14.61" x2="88.18" y2="14.61" xlink:href="#Adsız_degrade_48"/>
    <linearGradient id="Adsız_degrade_48-92" data-name="Adsız degrade 48" x1="78.07" y1="19.64" x2="81.61" y2="19.64" xlink:href="#Adsız_degrade_48"/>
    <linearGradient id="Adsız_degrade_48-93" data-name="Adsız degrade 48" x1="80.95" y1="17.5" x2="84.07" y2="17.5" xlink:href="#Adsız_degrade_48"/>
    <linearGradient id="Adsız_degrade_48-94" data-name="Adsız degrade 48" x1="76.12" y1="21.25" x2="78.84" y2="21.25" xlink:href="#Adsız_degrade_48"/>
    <linearGradient id="Adsız_degrade_48-95" data-name="Adsız degrade 48" x1="74.11" y1="22.54" x2="77.54" y2="22.54" xlink:href="#Adsız_degrade_48"/>
    <linearGradient id="Adsız_degrade_48-96" data-name="Adsız degrade 48" x1="72.45" y1="24.6" x2="74.99" y2="24.6" xlink:href="#Adsız_degrade_48"/>
    <linearGradient id="Adsız_degrade_48-97" data-name="Adsız degrade 48" x1="71.87" y1="24.6" x2="74.26" y2="24.6" xlink:href="#Adsız_degrade_48"/>
    <linearGradient id="Adsız_degrade_48-98" data-name="Adsız degrade 48" x1="91.57" y1="7.84" x2="93.1" y2="7.84" xlink:href="#Adsız_degrade_48"/>
    <linearGradient id="Adsız_degrade_48-99" data-name="Adsız degrade 48" x1="64.25" y1="51.58" x2="83.46" y2="51.58" xlink:href="#Adsız_degrade_48"/>
    <linearGradient id="Adsız_degrade_48-100" data-name="Adsız degrade 48" x1="68.75" y1="51.7" x2="71.07" y2="51.7" xlink:href="#Adsız_degrade_48"/>
    <linearGradient id="Adsız_degrade_48-101" data-name="Adsız degrade 48" x1="83.49" y1="59.39" x2="83.55" y2="59.39" xlink:href="#Adsız_degrade_48"/>
    <linearGradient id="Adsız_degrade_48-102" data-name="Adsız degrade 48" x1="21.57" y1="59.01" x2="21.77" y2="59.01" xlink:href="#Adsız_degrade_48"/>
    <linearGradient id="Adsız_degrade_48-103" data-name="Adsız degrade 48" x1="82.78" y1="42.58" x2="82.99" y2="42.58" xlink:href="#Adsız_degrade_48"/>
    <linearGradient id="Adsız_degrade_48-104" data-name="Adsız degrade 48" x1="82.92" y1="42.78" x2="83.07" y2="42.78" xlink:href="#Adsız_degrade_48"/>
    <linearGradient id="Adsız_degrade_48-105" data-name="Adsız degrade 48" x1="64.18" y1="43.96" x2="64.32" y2="43.96" xlink:href="#Adsız_degrade_48"/>
    <linearGradient id="Adsız_degrade_48-106" data-name="Adsız degrade 48" x1="94.56" y1="3.38" x2="99.33" y2="3.38" xlink:href="#Adsız_degrade_48"/>
    <linearGradient id="Adsız_degrade_48-107" data-name="Adsız degrade 48" x1="70.28" y1="5.24" x2="72.66" y2="5.24" xlink:href="#Adsız_degrade_48"/>
    <linearGradient id="Adsız_degrade_48-108" data-name="Adsız degrade 48" x1="70.66" y1="14.17" x2="72.77" y2="14.17" xlink:href="#Adsız_degrade_48"/>
    <linearGradient id="Adsız_degrade_48-109" data-name="Adsız degrade 48" x1="66.35" y1="11.69" x2="68.26" y2="11.69" xlink:href="#Adsız_degrade_48"/>
  </defs>
  <g id="katman_1" data-name="katman 1">
    <path class="cls-51" d="M49.4,26.65c.08-1.36-.65-2.36-1.48-3.3-1.5-1.7-3.47-2.61-5.59-3.26-.19-.06-.37-.12-.56-.17-.1-.36,.18-.48,.4-.64,3.48,.6,6.36,2.13,8.16,5.43-.03-1.09-.43-1.96-.93-2.79-1.31-2.17-3.32-3.45-5.6-4.36-3.26-1.31-6.66-1.63-10.13-1.34-6.31,.53-11.5,3.27-15.67,8.01-3.71,4.21-6.16,9.06-7.68,14.43-.56,1.98-1.07,3.97-1.79,5.91-.11,.3-.23,.59-.41,.86,.13-1.96,.34-3.9,.69-5.83,1.17-6.29,3.58-12.09,7.13-17.38,3.21-4.79,7.47-8.46,12.71-10.91,4.37-2.04,8.95-3.34,13.78-3.51,3.89-.14,7.62,.66,11.13,2.38,1.2,.59,2.49,.96,3.71,1.52,3.24,1.49,5.88,3.62,7.45,6.91,.13,.28,.31,.36,.61,.37,2.41,.12,4.37,1.15,5.96,2.94,.14,.16,.45,.3,.18,.59-.25,.25-.39-.04-.54-.15-1.83-1.28-3.78-2.21-6.1-2.01-.83,.07-1.59,.44-2.4,.66,.14-.61,.16-.62,2.2-1.57-2.08-2.91-4.55-5.36-8.05-6.53-.05,0-.11-.02-.16-.03l.05,.16c1.83,2.81,2.73,5.8,1.75,9.16-.39,1.33-1.16,2.39-2.19,3.28-.09,.08-.19,.23-.32,.08-.1-.1,.02-.19,.08-.28,3.67-6.08,.94-12.92-5.88-14.97-5.08-1.53-10.08-1.12-15.09,.26-.17,.05-.33,.11-.5,.15-.14,.04-.29,.06-.43,.19,1.03,0,2.06-.07,3.09,.01,5.15,.39,9.74,2.11,13.42,5.87,1.99,2.03,3.29,4.41,3.23,7.37-.02,.97-.51,1.8-.66,2.73-.03,.2-.22,.35-.45,.29-.19-.05-.16-.21-.13-.38,.85-4.5-.95-7.92-4.44-10.57-3.13-2.38-6.73-3.61-10.61-4.04-6.36-.71-11.56,1.69-16.02,6.03-1.32,1.29-2.52,2.68-3.67,4.12-.09,.11-.21,.22-.17,.46,.34-.1,.5-.37,.69-.58,3.4-3.69,7.59-5.95,12.49-6.9,4.79-.93,9.47-.58,13.98,1.32,2.31,.97,4.35,2.38,5.75,4.53,1.12,1.73,1.53,3.6,1.02,5.64-.24,.99-.93,1.55-1.72,2.05-.22,.14-.36-.03-.44-.24-.96-2.64-3.11-3.87-5.62-4.57-2.73-.77-5.47-.42-8.19,.19-1.03,.23-2.03,.53-3.02,.89-.58,.21-1.13,.48-1.59,.89-.31,.18-.8-.25-1,.3-.1,.05-.26,.03-.27,.21h0c-.56,0-1.05,.27-1.51,.53-4.79,2.7-8.57,6.45-11.52,11.09-1.58,2.49-3.15,5.01-5.12,7.23-1.42,1.59-3.04,2.96-4.95,3.96-.02-.02-.05-.05-.07-.07,.93-.92,1.97-1.72,2.88-2.68,1.9-2.01,3.24-4.4,4.66-6.74,1.79-2.94,3.59-5.86,6.01-8.34,4.58-4.68,10.04-7.69,16.5-8.83,2.1-.37,4.21-.45,6.33-.08,2.75,.48,4.99,1.8,6.64,4.07,.02,.03,.05,.06,.07,.09,0-.02,.02-.04,.02-.06,0-.06-.04-.07-.09-.03Zm-32.33-3.26c.06-.07,.12-.14,.19-.21,.09-.1,.29-.22,.15-.34-.15-.13-.21,.1-.28,.21-.05,.08-.1,.16-.15,.24-.03,.01-.05,.04-.06,.07-.17,.11-.26,.28-.32,.47-.08,.1-.15,.2-.23,.3-.05,.08-.1,.16-.14,.25-.03,.05-.07,.11-.1,.16-.03,.05-.06,.09-.09,.14,0,0,.02,.03,.04,.05,.03-.05,.06-.1,.09-.15,.04-.05,.08-.09,.13-.14,.06-.08,.12-.15,.18-.23,.08-.1,.15-.19,.23-.29,.12-.14,.23-.29,.35-.43,.03-.03,.04-.06,.04-.1Z"/>
    <path class="cls-105" d="M37.03,26.16c2.57-.63,5.14-.8,7.69,.08,1.07,.37,2.03,.93,2.84,1.73,.23,.23,.47,.48,.34,.86-.12,.37-.46,.36-.76,.4-2.02,.3-3.78,1.22-5.43,2.38-2.62,1.84-4.79,4.16-6.97,6.47-2.82,2.98-5.61,5.96-9.04,8.28-5.1,3.45-10.68,5.48-16.83,5.95-2.65,.2-5.29,.22-7.93-.05-.32-.03-.63-.07-.95-.23,.7-.07,1.41-.12,2.11-.23,4.65-.75,9.06-2.22,13.01-4.83,1.87-1.24,3.34-2.95,4.85-4.6,1.88-2.06,3.46-4.35,5.19-6.53,2.08-2.61,4.29-5.1,7.24-6.79,.26-.15,.54-.28,.81-.41,.28,.3,.29,.67,.26,1.05-2.76,1.78-4.99,4.1-6.99,6.67-2.39,3.07-4.78,6.15-7.68,8.78-.07,.07-.13,.13-.2,.2-.07,.03-.13,.06-.2,.09,.09,.09,.18,.04,.26-.02,.08-.05,.16-.11,.24-.16,1.21-.74,2.24-1.73,3.39-2.54-.04,.55-.03,1.08,.41,1.5-.18,.26-.5,.35-.72,.54-2.24,1.98-4.86,3.33-7.55,4.56-1.65,.75-3.37,1.31-5.07,1.92,.87,.08,1.68-.18,2.51-.36,6.3-1.36,11.84-4.23,16.63-8.54,2.58-2.32,4.83-4.96,7.28-7.4,1.94-1.94,3.93-3.81,6.32-5.2,.47-.27,.95-.51,1.43-.76-.65-.06-1.23,.15-1.83,.25-.9,.16-1.67,.68-2.55,.88-.3-.57-.72-.45-1.18-.22-.54,.27-.38,.63-.16,1-1.14,.8-2.28,1.59-3.42,2.39,0-.13-.03-.3,.03-.39,.43-.56,.14-.91-.33-1.23,3.07-2.39,6.4-4.15,10.43-4.18-1.16-.52-2.38-.65-3.62-.61-1.51,.05-2.89,.63-4.29,1.12-.03-.35-.37-.46-.52-.7-.11-.17-.41-.28-.32-.5,.08-.2,.36-.21,.56-.24,.28-.04,.58-.02,.68-.37Z"/>
    <path class="cls-108" d="M86.84,4.28c.03-.06,.06-.12,.1-.17,1.08-1.14,1.33-1.13,2.4,0,.51,.54,1.05,1.05,1.55,1.6,.24,.27,.4,.31,.66,.02,.23-.26,.53-.45,.8-.67,.28,.19,.61,.14,.91,.19-.32,.3-.62,.63-.97,.88-.46,.33-.53,.64-.06,1.01-.22,.14-.53,.12-.68,.4-.98-1-1.96-2-2.95-2.99-.22-.23-.39-.53-.77-.13-.35,.37-.13,.58,.09,.81,2.15,2.28,4.31,4.54,6.46,6.82,.27,.29,.46,.38,.8,.05,.34-.32,.25-.5-.03-.79-.88-.91-1.74-1.85-2.61-2.77,.32-.03,.51-.19,.54-.52,.16,.13,.3,.28,.53,.05,.26-.28,.57-.51,.86-.76,.31-.06,.44,.23,.67,.33-.18,.31-.43,.54-.72,.74-.1,.02-.16,.07-.18,.17-.17,.18-.32,.3-.05,.57,.61,.62,1.17,1.3,1.76,1.94,.41,.44,.44,.84-.01,1.27-.15,.15-.25,.36-.4,.52-.47,.51-.97,.52-1.48,.04-.13-.12-.26-.24-.36-.38-.24-.34-.44-.37-.77-.07-4.03,3.61-8.08,7.2-12.12,10.8-.49,.44-.98,.88-1.51,1.27-.97,.71-2.07,.8-3.2,.5-.35-.09-.57-.05-.82,.17-.62,.56-1.27,1.08-1.87,1.65-.42,.4-.82,.42-1.19,.02-.27-.29-.44-.23-.69,0-1.75,1.62-3.51,3.24-5.27,4.85-.5,.46-1.01,.91-1.61,1.23-.11,.06-.24,.15-.36,.02-.12-.12-.04-.24,.03-.36,.33-.55,.81-.98,1.27-1.41,1.81-1.69,3.63-3.37,5.46-5.04,.21-.19,.29-.32,.12-.59-.36-.59-.27-1.12,.29-1.56,.14-.11,.25-.25,.39-.36,.98-.76,1.63-1.57,1.53-2.99-.08-1.1,.52-2.09,1.44-2.89,3.43-2.97,6.79-6.01,10.18-9.02,.82-.73,1.62-1.48,2.45-2.18,.31-.26,.37-.41,.05-.7-.24-.22-.41-.51-.61-.77,.51-.41,.5-.58-.08-.84Zm-12.58,19.07c-.22-.43-.46-.42-.78-.07-.32,.35-.69,.66-1.04,.98-.76,.69-.74,.87-.03,1.65,.35,.38,.55,.29,.78-.08,.46-.18,.72-.61,1.08-.9,.96-.77,.95-.78-.02-1.59Zm8.42-7.36c-.08-.19-.21-.37,.01-.56,.25-.22,.42,.02,.62,.08,.28,.45,.68,.79,1.02,1.18,.24,.28,.42,.27,.69,.02,.96-.88,1.94-1.75,2.93-2.6,.23-.2,.3-.34,.06-.57-.42-.41-.83-.83-1.25-1.24-.32-.53-.79-.93-1.21-1.38-.18-.2-.35-.45-.14-.7,.26-.3,.5-.03,.66,.13,.76,.76,1.5,1.53,2.24,2.31,.46,.48,.99,.91,1.25,1.62,1-.89,1.96-1.75,2.94-2.59,.25-.21,.17-.32-.01-.5-1.23-1.28-2.47-2.55-3.67-3.86-.37-.4-.59-.32-.93,0-1.56,1.41-3.14,2.8-4.71,4.19-2.74,2.42-5.48,4.84-8.22,7.27-.66,.58-.68,.92-.1,1.54,1.03,1.11,2.07,2.2,3.08,3.32,.33,.36,.59,.49,.97,.11,.12-.12,.27-.22,.4-.33,2.22-1.98,4.44-3.97,6.66-5.95,.96-.86,1.92-1.73,2.87-2.6,.09-.08,.33-.16,.14-.35-.14-.13-.32-.26-.5-.03-.05,.07-.12,.13-.19,.19-3.03,2.76-6.09,5.47-9.2,8.14-.45,.39-.68,.3-.78-.26,.67-.68,.64-.66,.08-1.35-.33-.41-.86-.69-.92-1.3,.13-.21,.3-.34,.57-.24,1.23,1.91,1.5,1.94,3.1,.37,.09-.09,.18-.19,.29-.27,.2-.15,.21-.29,.02-.47-.4-.39-.79-.8-1.19-1.21-.03-.2-.18-.41,.07-.59,.24-.17,.41,.02,.59,.1,.26,.52,.76,.83,1.12,1.25,.14,.17,.27,.17,.44,.02,.47-.42,.95-.83,1.43-1.23,.15-.12,.18-.23,.02-.37-.46-.4-.77-.94-1.28-1.29Zm-8.56,4.71c.07,.62-.19,1.09,.23,1.51,.59,.58,1.18,1.16,1.73,1.78,.41,.47,.87,.44,1.46,.31-1.13-1.19-2.21-2.32-3.42-3.59Z"/>
    <path class="cls-13" d="M78.88,62.16c-.45-1.73-.83-3.48-1.68-5.08-.1-.19-.2-.37-.39-.71-.48,2.07-1.48,3.77-2.19,5.59-.46,1.18-.94,2.37-1.89,3.27-.8,.77-1.74,1.15-2.88,.9-.2-.04-.38-.11-.53-.25-.21-.2-.31-.45-.18-.71,.13-.26,.38-.29,.63-.21,.96,.31,1.65-.11,2.26-.79,.18-.19,.35-.4,.48-.62,1.12-1.98,2.19-4,2.98-6.13,.52-1.4,.46-2.89-.08-4.31-.59-1.54-1.78-1.85-3.04-.81-.42,.35-.81,.74-1.19,1.13-.33,.33-.65,.43-1.11,.26-1.57-.57-2.34-1.84-2.91-3.27-.12-.29-.25-.53-.45-.77-.56-.69-1.18-1.37-1.19-2.35,0-.35-.33-.56-.39-.89,.56,.01,.76-.4,.96-.82,.43,.26,.85,.53,1.28,.79,2.1,1.29,4.42,2.11,6.71,2.96,3.99,1.48,6.79,4.22,8.55,8.06,.26,.57,.5,1.15,.79,1.84,.09-.79-.18-1.41-.23-2.05,.62,.11,.74-.37,.9-.79,.4,1.51,.49,3.05,.57,4.6,.13,2.6,.25,5.2-.31,7.76-.61,2.8-1.81,5.32-3.65,7.52-.03-.03-.06-.07-.09-.1,2-3.23,3.09-6.74,2.95-10.54-.2-5.33-2.28-9.89-6.12-13.6-1.33-1.28-2.99-2.04-4.81-2.43-2.12-.45-4.11-1.2-5.96-2.35-.07-.04-.16-.06-.24-.09-.15,.24,.02,.4,.13,.54,1.25,1.63,2.77,2.86,4.84,3.26,.38,.07,.76,.14,1.16,.01,1.98-.6,3.37,.2,3.87,2.19,.06,.23,.08,.47,.13,.71,.04,.21-.05,.51,.38,.4,.22-.06,.3,.23,.4,.38,1.01,1.52,1.78,3.14,2.18,4.95,.15,.68,.49,1.32,.57,2.03-.43-.39-.73-.21-.96,.22-.07,.13-.08,.3-.28,.31Zm-10.14-11.06c.7,1.25,1.63,1.54,2.33,.77-.81-.12-1.57-.34-2.33-.77Zm14.78,8.21s-.04,.03-.04,.04c0,.04,.02,.07,.03,.11,.01-.01,.04-.03,.04-.04,0-.04-.02-.07-.03-.11Z"/>
    <path class="cls-93" d="M24.93,61.24c.37,5.72,3.02,10.49,6.25,15.02,2.37,3.32,5.09,6.36,7.81,9.4,1.26,1.4,2.84,1.88,4.68,1.68,3.22-.35,6.03-1.76,8.71-3.46,6.57-4.16,11.56-9.73,14.9-16.77,.13-.27,.2-.58,.55-.89-.24,1.11-.61,2.05-1,2.97-2.16,4.98-5.45,9.12-9.51,12.67-2.91,2.54-6.05,4.71-9.69,6.08-2.03,.76-4.11,1.26-6.3,.8-1.35-.29-2.5-.95-3.4-1.99-2.35-2.72-4.78-5.37-6.87-8.3-2.52-3.52-4.93-7.1-6.18-11.3-.51-1.71-.77-3.46-.81-5.24,.28-.23,.38-.7,.87-.65Z"/>
    <path class="cls-50" d="M21.57,59.21c-.81,2.89-1.1,5.86-1.21,8.83-.14,4.05-.18,8.11,.09,12.16,.17,2.54,.81,4.96,1.8,7.3,.07,.15,.21,.29,.13,.54-.42-.46-.61-1-.85-1.52-1.09-2.36-1.61-4.87-1.8-7.43-.3-4.11-.61-8.21-.42-12.34,.19-4.3,.84-8.5,2.85-12.38,.3-.58,.65-1.14,1-1.69,.2-.33,.46-.61,.92-.86-.2,1.1-.64,1.99-.8,2.96-2,12.01,.46,22.9,8.24,32.42,1.97,2.41,4.34,4.39,7.1,5.87,.15,.08,.34,.11,.45,.36-2.29-.79-4.3-1.94-6.1-3.47-4.06-3.43-6.86-7.76-8.81-12.65-2.28-5.7-3.07-11.62-2.46-17.72,0-.09,0-.17,0-.26,.1-.2,.08-.41-.03-.61-.03,.17-.07,.33-.1,.5Z"/>
    <path class="cls-100" d="M10.93,56c-1.05,1.54-2.11,3.07-2.93,4.75-2.23,4.58-3.26,9.37-2.42,14.46,.28,1.73,.8,3.4,1.58,5-1.02-5.52-.3-10.84,1.92-15.94,2.19-5.04,5.3-9.41,9.66-12.91,.13,.31-.07,.36-.16,.46-5.3,5.47-8.83,11.9-10.27,19.39-.87,4.51-.63,8.98,1.25,13.27,.24,.56,.54,1.09,.81,1.62-.11,.14-.17,.03-.22-.02-4.29-4.21-6.5-9.29-6.19-15.34,.27-5.13,2.02-9.74,5.13-13.83,.34-.44,.62-.95,1.08-1.29,.13,.38,.47,.34,.76,.37Z"/>
    <path class="cls-86" d="M81.3,38.01c-.82-2.48-2.27-4.57-3.93-6.54-1.06-1.25-2.28-2.3-3.77-3.02-.36-.17-.74-.29-1.27-.5,.69-.22,1.21-.18,1.74-.04,2.26,.58,3.84,2.13,5.27,3.84,1.81,2.16,3.04,4.64,3.94,7.3,1.18,3.46,1.97,7.03,2.81,10.57,.55,2.32,.37,4.7-.26,7.02-.03,.13-.07,.25-.12,.37-.02,.05-.07,.1-.17,.22,.18-1.39,.23-2.7,.18-4.01-.14-3.67-1.4-6.92-3.64-9.81-2.53-3.25-5.57-5.88-9.44-7.42-1.6-.64-3.27-.98-5-.97-1.45,0-2.89,.02-4.34,.02-.39,0-.79-.02-1.17-.16-.02-.19-.15-.23-.32-.23-.36,.01-.31-.18-.2-.4,2.51,.18,5.02-.19,7.54-.01,3.53,.25,6.58,1.63,9.31,3.82,1.49,1.2,2.83,2.53,4,4.04,.06,.08,.14,.15,.23,.25,.09-.58-.52-2.15-1.36-3.59-.01-.26-.03-.51-.04-.77Zm1.62,4.69c.03,.07,.06,.13,.09,.2,.1-.1,.05-.18-.02-.27-.04-.08-.03-.26-.16-.18-.11,.07,0,.18,.09,.24Z"/>
    <path class="cls-89" d="M23.53,50.05c-2.35,3.05-4.28,6.24-5.91,9.62-2.46,5.09-4.07,10.43-4.53,16.09-.36,4.47,.17,8.83,1.74,13.04,.53,1.42,1.24,2.75,2.06,4.03,.11,.17,.3,.31,.29,.65-1.14-1.11-2.05-2.29-2.78-3.62-1.87-3.44-2.71-7.16-2.76-11.04-.13-9,2.72-17.07,7.76-24.45,.99-1.45,2.06-2.84,3.43-3.96,.17-.13,.3-.32,.69-.36Z"/>
    <path class="cls-83" d="M84.11,56.38c-.17,.42-.28,.9-.9,.79-.29-1.12-.62-2.23-1.05-3.31-1.52-3.87-4.27-6.37-8.34-7.25-3.22-.7-6.51-1.16-9.5-2.66-.05-.01-.09-.03-.14-.04,.02,.04,.05,.08,.07,.12,.47,.69,1.26,1.01,1.86,1.55-.2,.42-.4,.83-.96,.82-.67-.61-1.19-1.33-1.67-2.09-.14-.23-.32-.45-.2-.78,.12-.36-.27-.45-.47-.6-1.36-1.07-2.49-2.32-3.29-3.86-.05-.1-.08-.2-.12-.3h-.01c.26-.04,.4,.14,.55,.29,3.18,3.25,7.1,5.01,11.54,5.77,1.21,.21,2.42,.37,3.58,.78,5.14,1.82,8.03,5.51,9.06,10.78Z"/>
    <path class="cls-99" d="M83.63,50.06c-1.4-2.72-3.33-4.92-6.06-6.37-1.98-1.05-4.12-1.6-6.31-1.93-2.97-.45-5.92-.99-8.64-2.36-2.15-1.09-3.98-2.54-5.28-4.6-.11-.18-.21-.38-.24-.66,.21,.16,.43,.3,.62,.47,3.36,3.02,7.34,4.69,11.75,5.46,2.33,.41,4.67,.8,6.83,1.82,3.6,1.7,6.04,4.47,7.49,8.15-.06,0-.11,.01-.16,.02Z"/>
    <path class="cls-36" d="M72.29,93.33c-1.35-.92-2.28-2.21-3.03-3.63-1.7-3.25-2.14-6.78-2.03-10.38,.1-3.5,.64-6.93,1.75-10.25,.13-.38,.2-1.07,.57-.98,.46,.12,.11,.73,.06,1.09-.5,3.6-.94,7.21-.88,10.85,.08,4.62,.88,9.05,3.45,13.02,.06,.09,.07,.2,.1,.3h0Z"/>
    <path class="cls-102" d="M58.51,53.87c-.47,.5-.94,.69-1.42,.82-.6,.17-1.16,.4-1.62,.82-.12,.11-.37,.09-.32,.34,.04,.21,.22,.25,.39,.3,.18,.05,.37,.09,.59,.13-.89,.42-1.8,.46-2.73,.33-.01,.46,.41,.49,.66,.76-1.08,.19-2.08,.1-3.08-.13-.16,.33,.21,.54,.1,.91-1-.21-1.92-.75-3.04-.72-.07,.08,.17,.28,.03,.51-.32-.27-.62-.54-.93-.81-.34-.29-.72-.49-1.17-.51-.15,0-.29,.04-.39-.15-.41-.77-.7-.89-1.52-.67-.17,.05-.38,.28-.52,.05-.14-.23,.11-.39,.26-.54,.63-.69,1.4-.75,2.23-.47,.98,.32,1.97,.61,3,.72,2.38,.25,4.48-.58,6.47-1.77,.38-.22,.74-.46,1.12-.68,.11-.06,.26-.11,.37,0,.1,.1,.01,.2-.03,.29-.26,.61-.17,.73,.53,.72,.31,0,.58-.16,1.03-.27Z"/>
    <path class="cls-75" d="M58.07,47.41c-.12,.14-.24,.03-.35-.02-4.3-2.01-8.3-1.24-12.13,1.26-.73,.48-1.49,.93-2.3,1.26-.5,.2-1.08,.37-1.38-.25-.3-.59,.07-1.06,.54-1.4,2-1.41,4.23-2.24,6.62-2.74,3.03-.63,5.87-.17,8.53,1.41,.25,.15,.25,.15,.48,.47Z"/>
    <path class="cls-49" d="M69.92,79.28c.21-1.37,.63-2.66,1.19-3.91,1.03-2.32,2.33-4.51,3.18-6.91,.83-2.35,1.37-4.75,1.41-7.25,0-.35,.03-.7,.36-1.03,.32,.91,.37,1.82,.37,2.71,.03,3.71-1.03,7.11-3.02,10.24-1.22,1.92-2.48,3.82-3.25,5.98-.03,.08-.07,.17-.24,.16Z"/>
    <path class="cls-59" d="M33.45,51.49c.41,.02,.48,.31,.61,.51,1.63,2.44,1.72,5.12,1.2,7.89-.31,1.66-.78,3.27-1.41,4.84-.73,1.83-.09,3.06,1.81,3.57,.18,.05,.45,.03,.4,.32-.04,.23-.28,.25-.48,.27-1.97,.22-3.5-1.43-3.1-3.39,.28-1.36,.97-2.58,1.43-3.87,1.01-2.82,1.12-5.64,.21-8.49-.18-.55-.44-1.07-.68-1.65Z"/>
    <path class="cls-7" d="M24.58,56.1c-.14-.09-.35-.1-.36-.33,.18-.12,.39-.03,.57-.08,.36-.1,.88-.13,.38-.71-.13-.15-.22-.36-.04-.53,.16-.14,.37-.13,.56-.04,.14,.07,.27,.15,.38,.26,1.5,1.44,3.27,1.61,5.19,1.09,.46-.13,.92-.27,1.39-.36,.33-.07,.71-.07,.84,.32,.14,.42-.26,.48-.52,.61-.67,.33-1.21,.85-1.83,1.26-.12,.08-.26,.38-.39-.04-.07-.25-.25,0-.34,.07-.64,.49-1.42,.5-2.15,.75,.01-.33,.35-.42,.32-.74-.29,.07-.57,.19-.85,.2-.15,0-.77,.57-.49-.29,.05-.16-.24-.1-.38-.1-.53,0-1.1,.21-1.54-.27h0c.39-.02,.79-.01,1.05-.46-.47-.27-1.11,.02-1.49-.45-.1-.05-.2-.1-.3-.15Z"/>
    <path class="cls-104" d="M32.13,51.23c-.32-.04-.72-.21-1.1-.43-.91-.53-1.8-1.08-2.72-1.59-1.16-.64-2.37-1.01-3.71-.65-.21,.06-.49,.13-.56-.15-.08-.29,.19-.41,.41-.5,1.16-.52,2.37-.57,3.6-.32,1.41,.29,2.73,.79,3.91,1.61,.38,.27,.71,.58,.96,.98,.16,.26,.19,.53,.03,.81-.16,.27-.42,.27-.82,.25Z"/>
    <path class="cls-58" d="M93.27,5.25c-.31-.05-.64,0-.92-.19,.7-.66,1.39-1.33,2.11-1.96,.28-.24,.35-.41,.05-.65-.12-.1-.2-.23-.31-.34-.7-.75-.52-1.63,.42-2.04,.34-.15,.66-.05,.9,.2,1.49,1.53,3.02,3.03,4.4,4.67-.27,.07-.53,.13-.8,.2-1.29-1.33-2.58-2.66-3.86-4.01-.21-.22-.34-.28-.58-.06-.28,.25-.04,.37,.1,.52,.87,.95,1.74,1.89,2.61,2.84,.03,.38-.16,.55-.53,.53-.41-.39-.84-.75-1.21-1.17-.26-.29-.42-.24-.67-.01-.56,.51-1.14,.99-1.71,1.49Z"/>
    <path class="cls-39" d="M48.34,11.92c.8,.05,1.44,.51,2.07,.92,3.12,2.05,5.03,4.89,5.29,8.67,.12,1.7-.44,3.22-1.56,4.61-.28-.48-.04-.85,.07-1.21,1.06-3.52,.32-6.7-1.79-9.61-.92-1.27-2.11-2.26-3.51-3-.2-.1-.47-.13-.56-.39h0Z"/>
    <path class="cls-6" d="M57.67,14.28c.64-.02,1.01,.36,1.34,.71,2.73,2.84,2.17,7.79-1.09,9.97-.21,.14-.42,.3-.87,.32,1.36-1.63,2.62-3.14,2.56-5.33-.06-2.08-.89-3.85-1.93-5.67Z"/>
    <path class="cls-95" d="M71.42,7.86c-1.57-.01-2.43-1.46-1.72-2.92,.41-.84,.95-1.62,1.27-2.51,.1-.29,0-.81,.35-.83,.36-.02,.42,.49,.59,.79,.38,.69,.75,1.38,1.12,2.08,.22,.41,.41,.82,.44,1.29,.08,1.22-.79,2.12-2.05,2.11Zm.04-4.47c-.32,.83-.88,1.39-1.1,2.12-.16,.52-.1,1.01,.39,1.34,.46,.31,.97,.31,1.41,0,.45-.32,.6-.78,.45-1.33-.21-.75-.64-1.38-1.14-2.14Z"/>
    <path class="cls-67" d="M69.9,14.68c0-.39,.21-.79,.43-1.2,.4-.75,.86-1.48,1.02-2.33,.03-.13,.05-.29,.21-.28,.09,0,.2,.1,.24,.18,.55,1.04,1.27,2,1.61,3.14,.39,1.32-.45,2.45-1.75,2.44-1.03,0-1.82-.84-1.77-1.96Zm1.84-2.2c-.35,.68-.69,1.26-.96,1.87-.21,.48-.16,.95,.3,1.29,.4,.3,.82,.29,1.22,0,.44-.32,.58-.75,.4-1.27-.22-.64-.57-1.21-.95-1.89Z"/>
    <path class="cls-84" d="M69.01,12.2c0,.71-.34,1.22-.93,1.51-.67,.32-1.34,.24-1.9-.25-.51-.44-.67-1-.5-1.66,.15-.57,.5-1.02,.78-1.51,.25-.46,.45-.95,.56-1.46,.05-.22,.21-.36,.34-.12,.57,1.1,1.36,2.1,1.65,3.34,.01,.06,0,.13,.01,.16Zm-1.65-2c-.29,.5-.57,.94-.82,1.4-.25,.46-.3,.92,.14,1.31,.35,.31,.75,.37,1.14,.09,.45-.32,.53-.76,.36-1.27-.17-.53-.48-.97-.82-1.53Z"/>
    <path class="cls-72" d="M37.03,26.16c-.1,.35-.4,.33-.68,.37-.21,.03-.48,.04-.56,.24-.09,.22,.22,.33,.32,.5,.15,.24,.49,.35,.52,.7-1.05,.56-2.11,1.13-3.16,1.69,.03-.38,.01-.75-.26-1.05,.79-.58,1.79-.79,2.75-1.43-.77-.04-1.32,.21-1.87,.39-.6,.2-1.2,.42-1.79,.65-.57,.23-1.13,.47-1.69,.72-.55,.24-1.09,.5-1.66,.69,2.42-1.78,5.11-2.94,8.07-3.48Z"/>
    <path class="cls-101" d="M79.27,73.52c-.57,1.88-1.65,3.47-2.82,5-.8,1.04-1.72,1.99-2.75,2.81-.16,.13-.28,.35-.6,.27,2.51-2.39,3.99-5.38,5.23-8.51,.38,0,.81-.09,.94,.44Z"/>
    <path class="cls-107" d="M78.88,62.16c.2,0,.21-.18,.28-.31,.23-.42,.54-.61,.96-.22,.52,2.13,.56,4.28,.39,6.45-.41,.24-.83,.05-1.24,0,0-.26,.01-.53,.02-.79,.32-.4,.32-1.07,0-1.44,0-.09-.01-.18-.02-.27,.47-.36,.46-.96,.43-1.4-.04-.62-.16-1.33-.76-1.76l-.06-.27Z"/>
    <path class="cls-69" d="M71.99,57.22c-.22-.24-.31-.54-.27-.85,.15-1.2,.57-2.28,1.6-3.02,.43-.31,.83-.2,1.14,.22,.79,1.07,.79,3.55-.05,4.75,.03-.71,.07-1.33,.09-1.94,.02-.62-.08-1.22-.3-1.8-.09-.25-.23-.52-.52-.53-.29,0-.43,.26-.55,.5-.38,.78-.78,1.55,0,2.34,.11,.11,.16,.31,.12,.49-.28,.11-.4-.09-.57-.26-.25-.26-.53-.42-.69,.1Z"/>
    <path class="cls-66" d="M29.8,26.32c.2-.55,.69-.13,1-.3-.36,.44-.79,.84-1.27,1.12-1.73,1.01-2.96,2.51-4.04,4.14-.63,.95-1.3,1.87-1.79,2.9-.07,.15-.11,.4-.39,.34,.82-2.03,1.61-4.05,3.18-5.64,.71-.72,1.42-1.42,2.4-1.78,.27-.1,.55-.25,.67-.57,0,0,0,0,0,0,.13,.04,.24,0,.36-.07-.03-.05-.06-.09-.09-.14Z"/>
    <path class="cls-82" d="M96.87,4.95c.38,.02,.56-.15,.53-.53,.4,.4,.81,.8,1.21,1.19,.16,.15,.3,.32,.55,.11,.29-.24,.13-.4-.03-.59,.27-.07,.53-.13,.8-.2,.37,.4,.3,.8-.03,1.16-.36,.4-.78,.72-1.37,.45-.12-.05-.22-.14-.32-.22-.82-.63-.82-.63-1.6,.11-.46,.43-.87,.91-1.45,1.2-.23-.1-.36-.39-.67-.33,.15-.15,.31-.3,.45-.46,.59-.69,1.43-1.12,1.93-1.9Z"/>
    <path class="cls-47" d="M79.27,68.08c.41,.05,.83,.24,1.24,0-.03,.76-.1,1.51-.34,2.24-.16-.11-.27-.38-.52-.18-.16,.13-.13,.28-.06,.46,.13,.33,.34,.13,.53,.11-.22,.95-.36,1.93-.85,2.8-.13-.53-.56-.44-.94-.44,.5-1.63,.74-3.31,.94-5Z"/>
    <path class="cls-17" d="M76.54,34.9c-1.51-1.93-3.43-3.04-5.73-3.54-.17-.04-.35-.06-.51-.11-.14-.04-.34-.06-.29-.27,.04-.16,.2-.13,.33-.12,2.38,.13,4.42,.98,5.96,2.85,.28,.34,.33,.68,.24,1.2Z"/>
    <path class="cls-60" d="M42.17,19.27c-.21,.16-.5,.28-.4,.64-2.9-.63-5.76-.41-8.69,.4,.19-.3,.44-.32,.64-.4,2.67-.94,5.41-1.19,8.2-.73,.08,.01,.16,.06,.24,.09Z"/>
    <path class="cls-16" d="M71.99,57.22c.16-.53,.44-.36,.69-.1,.17,.17,.29,.37,.57,.26,0,0,0,.02,0,.02-.02,.41-.16,.82,.09,1.21,0,.34-.11,.65-.36,.88-.47,.45-.97,.87-1.35,1.41-.12,.17-.33,.35-.56,.23-.26-.14-.18-.41-.12-.65,.07-.28,.2-.53,.41-.74,.72-.72,1.07-1.52,.64-2.53Z"/>
    <path class="cls-96" d="M24.58,56.1c.1,.05,.2,.1,.3,.15-.39,.43-.24,.97-.18,1.43,.16,1.18,.17,2.37,.22,3.56-.49-.05-.59,.42-.87,.65-.17-1.75,.12-3.47,.27-5.2,.02-.2,.17-.39,.26-.59Z"/>
    <path class="cls-61" d="M10.93,56c-.3-.03-.63,.02-.76-.37,.94-1.22,2.07-2.24,3.32-3.12,.14-.1,.32-.34,.49-.09,.13,.19-.09,.32-.2,.43-1.02,.99-1.92,2.09-2.85,3.15Z"/>
    <path class="cls-26" d="M63.94,23.23c1.65-.97,4.09-.77,5.18,.33,.11,.11,.35,.22,.21,.42-.12,.18-.32,.07-.47,0-1.26-.67-2.6-.85-4.01-.69-.25,.03-.52-.03-.91-.05Z"/>
    <path class="cls-63" d="M61.63,34.27c-.11,.22-.16,.41,.2,.4,.16,0,.29,.04,.32,.23-1.63-.27-3.15-.78-4.29-2.08,1.1,.92,2.44,1.18,3.78,1.44Z"/>
    <path class="cls-54" d="M61.52,32.59c-.47-.03-.83-.26-.9-.71-.06-.38,.26-.48,.61-.48,.46,0,.92,0,.94,.61,0,.4-.31,.53-.65,.58Z"/>
    <path class="cls-23" d="M60.75,26.14c-.16,0-.31-.05-.41-.18-.34-.43,.07-.68,.25-.97,.17-.29,.45-.42,.79-.26,.05,.02,.1,.09,.13,.14,.17,.31-.4,1.26-.76,1.27Z"/>
    <path class="cls-5" d="M78.94,62.42c.6,.43,.72,1.14,.76,1.76,.03,.43,.04,1.04-.43,1.4-.11-1.05-.22-2.1-.33-3.15Z"/>
    <path class="cls-25" d="M60.1,29.6c-.04,.36-.3,.53-.63,.51-.36-.02-.76-.19-.73-.59,.02-.43,.47-.57,.83-.58,.37-.01,.48,.32,.53,.66Z"/>
    <path class="cls-68" d="M81.3,38.01c.01,.26,.03,.51,.04,.77-.58-.79-1.49-1.36-1.68-2.49,.51,.29,.73,.77,1.06,1.14,.18,.21,.26,.51,.58,.58Z"/>
    <path class="cls-103" d="M57.35,27.95c-.07,.34-.26,.56-.6,.57-.3,0-.51-.2-.48-.49,.03-.37,.25-.68,.65-.7,.38-.01,.36,.36,.44,.62Z"/>
    <path class="cls-41" d="M62.76,28.03c-.06,.31-.25,.54-.56,.52-.3-.02-.57-.22-.54-.54,.03-.3,.21-.6,.59-.57,.34,.02,.46,.29,.51,.59Z"/>
    <path class="cls-94" d="M63.91,27.21c-.32-.03-.52-.16-.55-.47-.02-.3,.12-.52,.42-.55,.33-.03,.52,.2,.56,.51,.04,.32-.18,.45-.44,.51Z"/>
    <path class="cls-56" d="M67.03,25.59c.29,.06,.48,.25,.47,.54,0,.3-.22,.47-.53,.45-.27-.02-.46-.18-.43-.47,.02-.29,.18-.48,.49-.52Z"/>
    <path class="cls-9" d="M63.65,23.74c.36,.02,.57,.18,.57,.47,0,.29-.19,.49-.49,.5-.32,0-.55-.17-.55-.5,0-.31,.24-.43,.46-.47Z"/>
    <path class="cls-28" d="M56.37,31.82c-.13-.42-.08-.75,.46-.75,.18,0,.35,.11,.4,.29,.06,.23-.06,.43-.23,.56-.25,.19-.44,.02-.64-.12,0,0,.01,.01,.01,.01Z"/>
    <path class="cls-32" d="M52.96,30.2c.02,.32-.19,.45-.44,.46-.26,0-.46-.17-.46-.45,0-.26,.14-.49,.41-.5,.31-.01,.44,.22,.5,.49Z"/>
    <path class="cls-30" d="M55.02,28.56c-.08,.28-.26,.44-.52,.44-.27,0-.47-.17-.45-.45,.02-.26,.21-.44,.49-.43,.27,.01,.42,.2,.48,.44Z"/>
    <path class="cls-20" d="M63.78,30.28c-.06,.25-.18,.47-.47,.45-.25-.01-.41-.19-.4-.44,.02-.26,.19-.47,.47-.45,.23,.01,.4,.17,.4,.44Z"/>
    <path class="cls-43" d="M64.9,28.71c.26,.02,.42,.17,.45,.4,.03,.29-.18,.46-.43,.48-.26,.03-.39-.17-.39-.42,0-.25,.13-.4,.38-.46Z"/>
    <path class="cls-77" d="M54.35,31.92c-.26-.06-.41-.21-.38-.5,.02-.21,.13-.41,.35-.38,.27,.04,.47,.25,.44,.55-.02,.21-.18,.33-.42,.33Z"/>
    <path class="cls-74" d="M17.31,82.84c0,.18-.03,.38-.26,.37-.26,0-.35-.22-.36-.45,0-.19,.07-.35,.29-.33,.22,.02,.33,.18,.33,.41Z"/>
    <path class="cls-38" d="M83.63,50.06c.05,0,.11-.01,.16-.02,.3,.51,.41,1.08,.48,1.67-.21-.55-.43-1.1-.64-1.65Z"/>
    <path class="cls-4" d="M56.37,31.82s-.01-.01-.01-.01c-.02,.12-.02,.26-.07,.37-.05,.15-.17,.26-.34,.23-.16-.04-.25-.18-.25-.34,0-.24,.17-.26,.36-.24,.1,0,.21,0,.31-.01Z"/>
    <path class="cls-15" d="M69.11,25.64c-.08,.17-.13,.37-.34,.35-.22-.02-.24-.22-.22-.39,.02-.15,.05-.33,.25-.3,.19,.02,.27,.18,.31,.34Z"/>
    <path class="cls-65" d="M80.12,70.71c-.19,.02-.4,.21-.53-.11-.07-.18-.1-.33,.06-.46,.26-.21,.37,.07,.52,.18-.02,.13-.04,.26-.06,.4Z"/>
    <path class="cls-79" d="M79.28,65.84c.33,.38,.33,1.05,0,1.44,0-.48,0-.96,0-1.44Z"/>
    <path class="cls-1" d="M28.15,21.77c.19,.02,.26,.15,.25,.31-.01,.17-.05,.36-.28,.35-.2,0-.31-.14-.3-.34,.01-.19,.13-.31,.33-.32Z"/>
    <path class="cls-88" d="M86.84,4.28c.57,.26,.59,.43,.08,.84-.23-.26-.25-.54-.08-.84Z"/>
    <path class="cls-91" d="M59.24,26.86c-.02,.16-.06,.32-.26,.3-.15-.01-.23-.13-.24-.27-.01-.17,.06-.31,.24-.33,.21-.03,.23,.15,.26,.3Z"/>
    <path class="cls-92" d="M73.34,58.61c-.25-.39-.11-.8-.09-1.21,.27,.39,.27,.79,.09,1.21Z"/>
    <path class="cls-80" d="M48.35,11.91c-.05,0-.11-.02-.16-.03,0-.02,.02-.03,.03-.05,.04,.03,.08,.06,.12,.09,0,0,0-.01,0-.01Z"/>
    <path class="cls-37" d="M80.72,76.26c-.06,.1-.13,.16-.25,.07,.05-.06,.1-.11,.16-.17,.03,.03,.06,.07,.09,.1Z"/>
    <path class="cls-33" d="M25.33,57.17s0,0,0,0c0,0,0,0,0,0Z"/>
    <path class="cls-42" d="M94.26,8.55c.02-.1,.08-.15,.18-.17-.06,.06-.12,.11-.18,.17Z"/>
    <path class="cls-40" d="M59.4,38.75s-.04-.01-.05-.02c0,0,0-.02,0-.04,.02,.02,.03,.05,.05,.07,0,0,.01,0,.01,0Z"/>
    <path class="cls-97" d="M6.44,49.32s-.13,.05-.14,.04c-.05-.06,.01-.09,.06-.11,.03,.02,.05,.05,.07,.07Z"/>
    <path class="cls-106" d="M17.03,23.48c-.12,.14-.23,.29-.35,.43-.03-.03-.06-.06-.09-.09,.06-.19,.15-.35,.32-.47,.04,.04,.08,.09,.12,.13Z"/>
    <path class="cls-45" d="M17.12,23.05c.07-.11,.13-.33,.28-.21,.14,.12-.06,.24-.15,.34-.05-.04-.09-.09-.14-.13Z"/>
    <path class="cls-55" d="M16.67,23.91c-.08,.1-.15,.19-.23,.29-.03-.03-.06-.05-.09-.08,.08-.1,.15-.2,.23-.3,.03,.03,.06,.06,.09,.09Z"/>
    <path class="cls-19" d="M29.8,26.32s.06,.09,.09,.14c-.11,.06-.22,.11-.36,.07,0-.17,.17-.15,.27-.21Z"/>
    <path class="cls-52" d="M16.15,24.57s-.06,.1-.09,.15c-.01-.02-.04-.04-.04-.05,.03-.05,.06-.09,.09-.14l.04,.04Z"/>
    <path class="cls-24" d="M16.45,24.21c-.06,.08-.12,.15-.18,.23-.02-.02-.04-.04-.06-.06,.05-.08,.1-.16,.14-.25,.03,.03,.06,.05,.09,.08Z"/>
    <path class="cls-18" d="M16.97,23.28c.05-.08,.1-.16,.15-.24,.05,.04,.09,.09,.14,.13-.06,.07-.12,.14-.19,.21-.03-.03-.07-.07-.1-.1Z"/>
    <path class="cls-109" d="M56.45,13.02l-.05-.16c.05,0,.11,.02,.16,.03-.04,.04-.07,.09-.11,.13Z"/>
    <path class="cls-3" d="M17.03,23.48s-.08-.09-.12-.13c.01-.03,.03-.06,.06-.07,.03,.03,.07,.07,.1,.1,0,.04-.02,.07-.04,.1Z"/>
    <path class="cls-2" d="M49.4,26.65s.08-.03,.09,.03c0,.02-.01,.04-.02,.06-.02-.03-.05-.06-.07-.09h0Z"/>
    <path class="cls-70" d="M16.11,24.53c.03-.05,.07-.11,.1-.16,.02,.02,.04,.04,.06,.06-.04,.05-.08,.09-.13,.14,0,0-.04-.04-.04-.04Z"/>
    <path class="cls-53" d="M34.4,33.25c1.14-.8,2.28-1.59,3.42-2.39,.46-.23,.95-.41,1.33-.78,.88-.2,1.65-.73,2.55-.88,.6-.1,1.18-.31,1.83-.25-.48,.25-.97,.49-1.43,.76-2.39,1.39-4.38,3.27-6.32,5.2-2.45,2.44-4.7,5.09-7.28,7.4-4.79,4.3-10.33,7.17-16.63,8.54-.82,.18-1.64,.44-2.51,.36,1.7-.61,3.43-1.17,5.07-1.92,2.69-1.23,5.31-2.59,7.55-4.56,.22-.2,.54-.29,.72-.54,.21-.16,.43-.3,.63-.47,3.9-3.26,7.25-7.1,11.06-10.46Z"/>
    <path class="cls-87" d="M33.48,29.66c1.05-.56,2.11-1.13,3.16-1.69,1.4-.5,2.78-1.08,4.29-1.12,1.24-.04,2.46,.08,3.62,.61-4.04,.03-7.36,1.79-10.43,4.18-.86,.6-1.65,1.29-2.41,2.01-3.15,2.99-6.17,6.12-9.4,9.03-1.16,.81-2.18,1.8-3.39,2.54-.03-.04-.07-.07-.1-.11,2.9-2.63,5.29-5.71,7.68-8.78,2-2.57,4.24-4.89,6.99-6.67Z"/>
    <path class="cls-8" d="M22.3,42.68c3.22-2.92,6.24-6.04,9.4-9.03,.76-.72,1.55-1.41,2.41-2.01,.47,.31,.76,.66,.33,1.23-.07,.09-.03,.25-.03,.39-3.81,3.35-7.16,7.2-11.06,10.46-.2,.17-.42,.31-.63,.47-.44-.41-.45-.95-.41-1.5Z"/>
    <path class="cls-71" d="M39.16,30.08c-.38,.37-.87,.55-1.33,.78-.22-.38-.39-.74,.16-1,.46-.23,.88-.34,1.18,.22Z"/>
    <path class="cls-35" d="M18.91,45.22c-.08,.05-.16,.11-.24,.16-.02-.02-.04-.05-.06-.07,.07-.07,.13-.13,.2-.2,.03,.04,.07,.07,.1,.11Z"/>
    <path class="cls-21" d="M18.67,45.38c-.08,.06-.17,.11-.26,.02,.07-.03,.13-.06,.2-.09,.02,.02,.04,.05,.06,.07Z"/>
    <path class="cls-57" d="M78.07,19.68c-.26-.09-.44,.03-.57,.24-.3,.04-.6,.02-.9,.08-.49,.09-.6,.29-.32,.68,.56,.77,1.21,1.44,2.06,1.89,.1,.57,.32,.65,.78,.26,3.11-2.66,6.18-5.38,9.2-8.14,.06-.06,.13-.12,.19-.19,.18-.23,.36-.1,.5,.03,.19,.18-.05,.27-.14,.35-.95,.87-1.91,1.74-2.87,2.6-2.22,1.99-4.44,3.97-6.66,5.95-.13,.12-.28,.21-.4,.33-.38,.37-.64,.25-.97-.11-1.01-1.13-2.05-2.22-3.08-3.32-.58-.62-.55-.96,.1-1.54,2.74-2.42,5.48-4.84,8.22-7.27,1.57-1.39,3.15-2.78,4.71-4.19,.35-.31,.56-.4,.93,0,1.2,1.31,2.44,2.58,3.67,3.86,.18,.19,.26,.29,.01,.5-.98,.84-1.94,1.7-2.94,2.59-.26-.71-.8-1.13-1.25-1.62-.74-.78-1.48-1.56-2.24-2.31-.16-.16-.41-.44-.66-.13-.21,.25-.04,.5,.14,.7,.41,.45,.89,.85,1.21,1.38-.68,.6-1.35,1.21-2.03,1.81-.5,.44-1.08,.8-1.43,1.4-.2-.07-.37-.3-.62-.08-.22,.2-.09,.37-.01,.56-.59,.52-1.3,.93-1.73,1.62-.19-.08-.35-.27-.59-.1-.25,.18-.1,.39-.07,.59-.74,.52-1.55,.96-2.22,1.58Z"/>
    <path class="cls-27" d="M92.56,8.54c.87,.93,1.72,1.86,2.61,2.77,.28,.28,.37,.47,.03,.79-.34,.32-.53,.23-.8-.05-2.15-2.28-4.31-4.54-6.46-6.82-.22-.23-.44-.44-.09-.81,.39-.4,.55-.1,.77,.13,.98,1,1.97,2,2.95,2.99,.28,.39,.63,.7,.99,1.01Z"/>
    <path class="cls-64" d="M96.87,4.95c-.5,.77-1.34,1.21-1.93,1.9-.14,.16-.3,.31-.45,.46-.29,.25-.6,.48-.86,.76-.23,.24-.36,.09-.53-.05-.28-.29-.57-.59-.85-.88-.47-.37-.4-.67,.06-1.01,.35-.26,.65-.59,.97-.88,.57-.49,1.16-.98,1.71-1.49,.25-.23,.42-.28,.67,.01,.37,.42,.8,.79,1.21,1.17Z"/>
    <path class="cls-78" d="M83.32,15.51c.34-.6,.93-.96,1.43-1.4,.68-.6,1.36-1.21,2.03-1.81,.42,.41,.83,.83,1.25,1.24,.24,.23,.17,.37-.06,.57-.99,.85-1.97,1.72-2.93,2.6-.27,.25-.45,.27-.69-.02-.34-.4-.74-.74-1.02-1.18Z"/>
    <path class="cls-81" d="M78.07,19.68c.67-.62,1.48-1.06,2.22-1.58,.39,.4,.78,.81,1.19,1.21,.19,.18,.18,.32-.02,.47-.1,.08-.19,.18-.29,.27-1.59,1.57-1.87,1.54-3.1-.37Z"/>
    <path class="cls-44" d="M80.95,17.61c.44-.69,1.14-1.1,1.73-1.62,.51,.35,.82,.89,1.28,1.29,.16,.14,.13,.24-.02,.37-.48,.41-.96,.82-1.43,1.23-.17,.15-.29,.15-.44-.02-.36-.43-.86-.74-1.12-1.25Z"/>
    <path class="cls-12" d="M78.34,22.57c-.86-.44-1.51-1.12-2.06-1.89-.28-.39-.17-.6,.32-.68,.3-.05,.6-.04,.9-.08,.06,.6,.59,.89,.92,1.3,.57,.69,.59,.67-.08,1.35Z"/>
    <path class="cls-29" d="M74.12,20.7c1.21,1.27,2.29,2.4,3.42,3.59-.58,.13-1.04,.16-1.46-.31-.55-.62-1.14-1.2-1.73-1.78-.42-.41-.16-.89-.23-1.51Z"/>
    <path class="cls-10" d="M74.26,23.35c.96,.81,.98,.83,.02,1.59-.37,.29-.63,.72-1.08,.9-.09-.37-.35-.64-.6-.91-.11-.12-.28-.27,0-.38,.66-.25,1.1-.81,1.65-1.2Z"/>
    <path class="cls-31" d="M74.26,23.35c-.56,.39-.99,.95-1.65,1.2-.29,.11-.12,.26,0,.38,.25,.27,.5,.54,.6,.91-.23,.37-.43,.45-.78,.08-.72-.78-.73-.96,.03-1.65,.35-.32,.72-.63,1.04-.98,.32-.35,.55-.36,.78,.07Z"/>
    <path class="cls-90" d="M92.25,7.14c.28,.29,.57,.59,.85,.88-.03,.33-.22,.49-.54,.52-.36-.31-.71-.62-.99-1.01,.14-.27,.46-.25,.68-.4Z"/>
    <path class="cls-73" d="M64.32,43.95c3,1.5,6.28,1.96,9.5,2.66,4.07,.88,6.82,3.38,8.34,7.25,.42,1.08,.76,2.19,1.05,3.31,.05,.64,.32,1.25,.23,2.05-.3-.69-.53-1.27-.79-1.84-1.76-3.84-4.56-6.57-8.55-8.06-2.29-.85-4.61-1.67-6.71-2.96-.43-.26-.86-.53-1.28-.79-.6-.54-1.39-.85-1.86-1.55,.03-.02,.05-.05,.07-.07Z"/>
    <path class="cls-22" d="M68.75,51.1c.76,.43,1.52,.65,2.33,.77-.7,.77-1.62,.48-2.33-.77Z"/>
    <path class="cls-46" d="M83.52,59.32s.02,.07,.03,.11c0,.01-.02,.03-.04,.04-.01-.04-.02-.07-.03-.11,0-.01,.02-.03,.04-.04Z"/>
    <path class="cls-14" d="M21.57,59.21c.03-.17,.07-.33,.1-.5,.11,.2,.13,.41,.03,.61-.04-.04-.09-.07-.13-.11Z"/>
    <path class="cls-85" d="M82.92,42.71c-.09-.06-.2-.18-.09-.24,.13-.08,.13,.1,.16,.18-.02,.02-.05,.04-.07,.06Z"/>
    <path class="cls-34" d="M82.99,42.64c.07,.08,.12,.17,.02,.27-.03-.07-.06-.13-.09-.2,.02-.02,.05-.04,.07-.06Z"/>
    <path class="cls-11" d="M64.25,44.02s-.05-.08-.07-.12c.05,.02,.09,.03,.14,.04-.02,.03-.05,.05-.07,.07Z"/>
    <path class="cls-62" d="M99.13,5.13c.17,.19,.33,.35,.03,.59-.26,.21-.4,.04-.55-.11-.41-.39-.81-.79-1.21-1.19-.87-.95-1.75-1.89-2.61-2.84-.13-.15-.38-.27-.1-.52,.24-.21,.38-.15,.58,.06,1.28,1.34,2.57,2.67,3.86,4.01Z"/>
    <path class="cls-98" d="M71.46,3.39c.5,.76,.93,1.39,1.14,2.14,.16,.55,0,1.01-.45,1.33-.45,.32-.95,.32-1.41,0-.49-.33-.54-.83-.39-1.34,.23-.74,.78-1.3,1.1-2.12Z"/>
    <path class="cls-48" d="M71.74,12.48c.38,.69,.73,1.26,.95,1.89,.18,.52,.05,.96-.4,1.27-.4,.28-.82,.3-1.22,0-.46-.34-.51-.82-.3-1.29,.27-.61,.61-1.19,.96-1.87Z"/>
    <path class="cls-76" d="M67.36,10.2c.33,.56,.65,1.01,.82,1.53,.17,.51,.09,.96-.36,1.27-.39,.27-.79,.21-1.14-.09-.44-.39-.38-.85-.14-1.31,.25-.46,.52-.9,.82-1.4Z"/>
  </g>
</svg>