<?xml version="1.0" encoding="UTF-8"?>
<svg xmlns="http://www.w3.org/2000/svg" xmlns:xlink="http://www.w3.org/1999/xlink" viewBox="0 0 55.6 55.71">
  <defs>
    <style>
      .cls-1 {
        fill: #ffbe91;
      }

      .cls-2 {
        fill: #f7ff51;
        mix-blend-mode: overlay;
      }

      .cls-3 {
        isolation: isolate;
      }

      .cls-4 {
        fill: #5c0026;
      }

      .cls-5 {
        fill: #ffdfb3;
      }

      .cls-6 {
        fill: #b0b0b0;
      }

      .cls-7 {
        fill: url(#Adsız_degrade_27);
      }

      .cls-8 {
        fill: #d3d3d3;
      }
    </style>
    <linearGradient id="Adsız_degrade_27" data-name="Adsız degrade 27" x1="27.8" y1="55.64" x2="27.8" y2=".03" gradientUnits="userSpaceOnUse">
      <stop offset="0" stop-color="#b99f6c"/>
      <stop offset=".6" stop-color="#eee6db"/>
    </linearGradient>
  </defs>
  <g class="cls-3">
    <g id="katman_2" data-name="katman 2">
      <g id="katman_1" data-name="katman 1">
        <g>
          <rect class="cls-7" x="0" y=".03" width="55.6" height="55.6" rx="27.8" ry="27.8"/>
          <path class="cls-4" d="M28.4,28.99c.17-.72,.36-1.44,.52-2.17,.12-.51-.64-.72-.86-.26-.12,.25-.23,.51-.34,.78-.06,.05-.12,.12-.16,.21-1.26,2.89-1.35,6.08-1.08,9.18,.07,.8,.16,1.59,.27,2.38,.01,.11,.03,.24,.04,.38-.17,.66-.16,1.4,.32,1.94,.48,.53,1.27,.56,1.85,.18,1.34-.9,1.07-2.81,.55-4.08-.31-.76-.68-1.48-.91-2.27-.23-.78-.35-1.59-.41-2.4-.08-1.3,.05-2.57,.22-3.85Z"/>
          <path class="cls-5" d="M52.65,35.51c.04-.36-.18-.73-.7-.77-5.36-.33-11.21-.34-16.13,2.04-.07,.03-.12,.07-.16,.12-.41,.06-.81,.13-1.2,.23-.87,.23-1.38,.81-1.67,1.62-.28,.78-.47,1.58-.77,2.36-.42,1.09-1.11,2.91-2.57,2.95-1.62,.04-2.41-1.75-2.78-2.99-.21-.72-.35-1.49-.78-2.12-.44-.65-1.1-1.04-1.9-1.14-.85-.11-1.7,.1-2.52,.27-.96,.19-1.93,.38-2.89,.58-4.24,.85-8.5,1.65-12.68,2.72-.3-.29-.96,.04-.81,.5,.28,.86,.6,1.63,1.11,2.39,.52,.76,1.12,1.47,1.78,2.12,1.39,1.35,3.05,2.42,4.74,3.39,1.77,1.01,3.56,2.05,5.45,2.83,1.93,.8,3.97,1.12,6.03,1.42,2.14,.31,4.31,.62,6.48,.5,2.05-.11,4.03-.64,5.93-1.4,1.86-.74,3.71-1.61,5.46-2.58,1.69-.94,3.04-2.4,4.29-3.82,2.76-3.14,4.92-6.73,6.38-10.6,.09-.25,.04-.45-.09-.6Z"/>
          <path class="cls-1" d="M49.68,34.53c-1.84-.64-3.96-.43-5.85-.16-1.99,.28-3.98,.62-5.95,1.06-.98,.22-1.96,.48-2.92,.8-.85,.28-1.78,.55-2.26,1.38-.44,.75-.56,1.7-.76,2.54-.21,.84-.43,1.7-.85,2.46-.57,1.02-2.09,2.22-3.29,1.43-.61-.4-.82-1.15-.97-1.82-.17-.74-.25-1.49-.52-2.2-.27-.71-.66-1.39-1.3-1.83-.81-.57-1.74-.48-2.66-.31-2.1,.39-4.19,.8-6.29,1.2-2.1,.4-4.19,.8-6.29,1.2-1.05,.2-2.1,.4-3.15,.6-.75,.14-1.64,.52-1.62,1.43,.02,.55,.37,.93,.81,1.17-.24,.3-.07,.92,.4,.86,2.11-.27,4.23-.51,6.35-.68,1.97-.16,4.12-.49,6.07,0,1.59,.4,2.91,1.45,4.22,2.4,1.31,.95,2.72,1.84,4.35,2.11,1.01,.16,2.01,.11,3.02-.02,.95-.13,1.88-.3,2.76-.7,1.49-.67,2.38-2.01,3.16-3.38,.76-1.34,1.49-2.68,2.86-3.48,1.47-.86,3.23-1.09,4.89-1.29,1.85-.22,3.72-.43,5.44-1.21,.75-.34,1.64-.85,1.75-1.76,.11-.91-.62-1.5-1.4-1.78Z"/>
          <path class="cls-4" d="M52.71,33.92c-.09-.02-.18-.03-.28-.01-.11-.22-.31-.39-.62-.4-6.7-.27-13.39,.86-19.64,3.31-.27,.11-.52,.34-.5,.66,.07,1.37-.02,2.74-.29,4.09-.18,.9-.36,2.35-1.22,2.9-.79,.5-1.72-.19-2.2-.82-.71-.92-.81-2.19-1.04-3.3-.23-1.06-.57-2.37-1.54-3-.48-.32-1.06-.38-1.63-.33-.69,.06-1.39,.18-2.07,.28-2.76,.39-5.51,.85-8.24,1.41-1.51,.31-3.02,.64-4.52,.99-1.4,.33-2.86,.66-4.16,1.27-.05,.01-.09,.03-.13,.06-.02,0-.03,.01-.05,.02-.24,.12-.23,.42-.09,.6,.2,2.15,1.69,3.92,3.18,5.38,1.58,1.55,3.43,3.17,5.31,4.34,3.76,2.33,7.26,3.6,11.65,4.14,4.15,.51,9.09,.05,13-1.47,3.73-1.45,7.4-3.83,10.08-6.81,1.47-1.64,3.36-3.66,4.32-5.65,1.08-2.24,2.22-3.99,2.6-6.44,.06-.39-1.51-1.12-1.92-1.23Zm-2.49,6.47c-.75,1.7-1.71,3.32-2.87,4.78-2.34,2.94-5.36,5.3-8.76,6.89-7.43,3.47-16.2,2.55-23.31-1.25-2.06-1.1-3.99-2.44-5.76-3.97-1.67-1.44-3.22-3.05-4.05-5.12,1.22-.14,2.42-.47,3.62-.74,1.39-.31,2.78-.62,4.18-.9,2.79-.56,5.6-1.05,8.42-1.46,.69-.1,1.38-.22,2.07-.28,.61-.05,.99,.06,1.3,.6,.62,1.1,.65,2.45,.96,3.66,.3,1.14,.87,2.14,1.83,2.83,.88,.63,2.06,.83,3.01,.24,1.16-.71,1.52-2.17,1.78-3.41,.3-1.42,.42-2.87,.39-4.32,5.95-2.21,12.34-3.24,18.68-2.98-.33,1.86-.75,3.69-1.51,5.43Z"/>
          <path class="cls-6" d="M34.16,1.74c-3.82-.58-7.68-.61-11.51-.09-.13-.15-.34-.17-.44,.07-.02,.04-.03,.08-.04,.12-.18,.15-.3,.38-.3,.69,0,.33,.19,.69,.45,.82,.22,.46,.54,.89,.68,1.41,.16,.57,.17,1.18,.22,1.77,.05,.72,.1,1.43,.15,2.15,.1,1.5,.19,3.01,.27,4.52,.04,.72,.09,1.43,.14,2.15,.05,.61,.06,1.28,.43,1.75,.4,.5,.94,.43,1.47,.43,.65,0,1.29,0,1.94,.01,.59,0,1.17,0,1.76,.01,.57,0,1.2,.1,1.76-.03,.55-.13,.85-.61,.91-1.27,.07-.77,.09-1.55,.13-2.32,.08-1.48,.17-2.96,.26-4.44,.05-.81,.1-1.62,.07-2.44-.02-.61-.11-1.27,0-1.88,.11-.57,.48-.78,.88-1.01,.46-.27,.9-.52,1.26-.98,.46-.59,.09-1.39-.5-1.47Z"/>
          <path class="cls-8" d="M31.13,7.88c0-.5-.02-1-.04-1.5,0-.06,0-.12-.01-.18,.02-.61,.03-1.23,.03-1.84,0-.37-.28-.78-.61-.74-.26,.03-.51,.06-.76,.1-.32,.05-.62,.31-.61,.75,.05,2.15,.16,4.3,.21,6.45,.02,.97,.01,1.95,0,2.92-.06,.87-.08,1.74-.03,2.6,0,.05,0,.1,0,.15,0,.12,.01,.24,.02,.37,0,.02,0,.03,0,.04,0,.08,0,.17,.02,.25,.02,.13,.08,.21,.17,.26,.37,.5,1.14,.33,1.21-.55,.15-2.02,.33-4.05,.38-6.08,.03-1,.03-2,.01-3Z"/>
          <path class="cls-8" d="M26.48,13.74c-.04-1.11-.12-2.22-.19-3.33-.06-1.07-.2-2.14-.23-3.22-.02-.54-.04-1.07-.05-1.61,0-.51,0-1.09-.15-1.57-.07-.23-.38-.29-.42,0-.09,.51-.02,1.06,.03,1.57,.05,.57,.08,1.14,.11,1.71,.05,1.16-.02,2.38-.07,3.54-.06,1.14-.13,2.29-.17,3.43-.02,.57-.05,1.14-.06,1.72-.01,.47-.14,1.14,.18,1.51,.39,.45,1.22,0,.98-.7-.03-.1,.04-.56,.05-.7,0-.29,.01-.57,.01-.86,0-.5,.01-1,0-1.5Z"/>
          <path class="cls-8" d="M32.65,2.81c-.3-.99-1.29-1.29-2.04-1.4-.01,0-.08-.01-.09-.02-.02,0-.08-.02-.09-.02-.13-.02-.27-.05-.4-.06-.19-.01-.39,0-.58,0-.22,.01-.48,.01-.69,.09-.08,.03-.16,.07-.23,.12-.03,.02-.07,.05-.1,.09-.08,.06-.09,.08-.05,.06-.05,.06-.19,.21-.26,.34-.15,.31-.04,.65,.18,.84,.05,.05,.11,.09,.18,.11,.03,.01,.04,.02,.05,.02,.14,.07,.25,.12,.42,.12,.18,0,.36-.04,.54-.05,.34-.02,.68-.04,1.02-.08,.34-.04,.53-.04,.84,.1,.13,.06,.24,.14,.41,.22,.17,.08,.35,.14,.53,.12,.23-.02,.47-.29,.37-.6Z"/>
          <path class="cls-2" d="M30.78,18.45c-.02-.49-.31-.85-.71-.87-1.45-.09-2.94-.09-4.37,.23,0,0-.02,0-.02,0-.19-.05-.44,.09-.43,.39,0,.04,0,.08,0,.12-.04,.17-.03,.36,.01,.53,.03,1.61,.16,3.22,.22,4.83,.08,1.87,.14,3.74,.2,5.61,.05,1.84,.1,3.67,.13,5.51,.03,1.52,0,3.06,.19,4.56,.17,1.27,.59,2.54,1.44,3.34,.49,.45,1.07,.75,1.67,.47,.6-.28,.98-1.03,1.22-1.72,.52-1.48,.48-3.17,.52-4.75,.06-1.86,.09-3.72,.11-5.58,.04-4.23-.03-8.46-.19-12.69Z"/>
          <path class="cls-4" d="M31.43,6.21c-.01,.95-.03,1.89-.05,2.84-.04,1.89-.11,3.79-.19,5.68-.02,.47-.04,.95-.07,1.42,0,.18-.07,.46-.04,.64,0,0,0,0,0,0,0-.01,0-.01,0,0-.15-.02-.47,.04-.54,.04-.18,0-.35,0-.53,.01-.38,0-.76,.02-1.14,.03-.76,.02-1.52,.02-2.28,.05-.37,.01-.74,.04-1.12,.06-.07-.34-.29-.63-.57-.65-.17-.86-.24-1.79-.35-2.66,0-.51,0-1.01-.01-1.5-.02-1.89-.04-3.77-.07-5.66,0-.47-.02-.94-.02-1.42,0-.03,0-.17,0-.25,.01,0,.02-.01,.04-.01,.1-.01,.2-.05,.29-.07,.72-.17,1.44-.29,2.17-.37,.73-.09,1.47-.13,2.21-.14,.74-.01,1.48,.1,2.21,.08,0,0,.04,0,.06,0,0,.15,.02,.34,.02,.47,0,.47,0,.95-.01,1.42Zm1.25-2.79c-.36-.83-1.21-.84-1.9-.89-.88-.05-1.76-.05-2.64,0-.88,.06-1.77,.17-2.64,.32-.72,.13-1.81,.14-2.25,.98-.02,.03-.03,.06-.04,.09-.24-.6-.44-1.23-.59-1.88,3.73-.92,7.61-.74,11.27,.49-.39,.32-.79,.61-1.22,.87Zm3.48-2.11c-4.36-1.76-11.26-1.63-15.73-.29-.29,.09,.94,.37,1.01,.71,.29,1.49,.82,2.84,1.61,4,0,.06,0,.12,0,.19,0,.4,0,.8,.02,1.19,0,.05,0,.1,0,.15,.02,1.27,.05,2.54,.07,3.81,.05,2.28-.04,4.66,.75,6.78,.11,.31,.45,.45,.72,.38,.3,.17,.65,.24,1.01,.28,.9,.08,1.81,.08,2.72,.08,.91,0,1.81,0,2.72-.04,.88-.03,1.36-.56,1.44-1.65,.16-2.25,.21-4.52,.27-6.77,.03-1.13,.05-2.26,.07-3.39,0-.55,.01-1.09,.02-1.64,0-.08,0-.15,0-.23,.03,0,.05-.01,.08-.03,.99-.49,1.88-1.22,2.67-2.09,.36-.39,.95-1.3,.55-1.46Z"/>
          <path class="cls-1" d="M17.83,45.36c0-.06-.03-.12-.05-.18-.06-.17-.14-.32-.23-.47-.07-.12-.17-.2-.3-.26-.12-.05-.28-.07-.41-.03-.02,0-.04,.02-.06,.03-.04-.01-.09-.02-.14-.02,.04,0,.08,.01,.12,.02-.04,0-.09-.01-.13-.02-.16-.03-.29-.01-.42,.09-.11,.09-.17,.2-.18,.34-.02,.11-.05,.21-.07,.31-.03,.15-.06,.3-.06,.45,0,.3,.1,.6,.31,.82,.29,.3,.74,.35,1.1,.15,.16-.08,.28-.22,.38-.37,.1-.16,.14-.34,.16-.52,.01-.11,0-.22-.03-.33Z"/>
          <path class="cls-1" d="M19.49,47.66c-.02-.08-.07-.16-.13-.22-.03-.03-.07-.05-.1-.08-.08-.05-.16-.07-.25-.07h-.08c-.07,0-.13,.01-.19,.04-.06,.02-.12,.05-.16,.1-.05,.05-.08,.1-.1,.16-.03,.06-.05,.12-.04,.19,0,.04,.01,.09,.02,.13,.02,.08,.07,.16,.13,.22,.03,.03,.07,.05,.1,.08,.08,.05,.16,.07,.25,.07h.08c.07,0,.13-.01,.19-.04,.06-.02,.12-.05,.16-.1,.05-.05,.08-.1,.1-.16,.03-.06,.05-.12,.04-.19,0-.04-.01-.09-.02-.13Z"/>
          <path class="cls-1" d="M41.22,43.36c-.03-.12-.09-.22-.18-.3-.05-.04-.09-.07-.14-.11-.11-.06-.22-.09-.34-.09-.09,0-.18,.02-.26,.06-.08,.03-.16,.07-.22,.14-.07,.06-.11,.14-.14,.22-.04,.08-.06,.17-.06,.26,0,.06,.02,.12,.02,.18,.03,.12,.09,.22,.18,.3,.05,.04,.09,.07,.14,.11,.11,.06,.22,.09,.34,.09,.09,0,.18-.02,.26-.06,.08-.03,.16-.07,.22-.14,.07-.06,.11-.14,.14-.22,.04-.08,.06-.17,.06-.26,0-.06-.02-.12-.02-.18Z"/>
          <path class="cls-1" d="M38.25,46.23s-.01-.04-.02-.07c0,0,0,0,0,0,0-.04,0-.1-.02-.13-.02-.06-.05-.11-.09-.16-.04-.04-.07-.05-.12-.08-.06-.02-.03-.02-.09-.02-.03,0-.06,0-.1,0-.05,0-.09,.02-.13,.04-.01,0-.02,.01-.03,.02,0,0,0,0,0,0-.11,.04-.21,.11-.27,.21-.05,.09-.09,.19-.13,.29-.03,.05-.05,.11-.05,.17-.01,.06-.01,.12,0,.18,.01,.06,.04,.11,.08,.16,.03,.05,.08,.09,.13,.12,.11,.06,.24,.09,.36,.05,.11-.04,.22-.11,.28-.21,.05-.09,.11-.18,.15-.28,.02-.04,.03-.08,.05-.11,.02-.06,.02-.13,0-.19Z"/>
          <path class="cls-1" d="M45.05,40.64c-.02-.06-.05-.12-.1-.17-.03-.04-.07-.06-.12-.08-.04-.02-.09-.03-.15-.03-.13,0-.26,.07-.33,.19-.01,.02-.02,.04-.03,.06,0,0,0,.01,0,.02-.01,.02-.02,.03-.03,.06,0,0-.01,.03-.02,.04,0,.03,0,.06-.01,.09,0,.03,0,.06,.01,.09,0,0,0,0,0,0,0,0,0,0,0,0,0,0,0,.01,0,.02v.03s.05,.07,.08,.09c0,0,.02,.02,.03,.02,.02,.02,.04,.03,.06,.04,.02,0,.02,.01,.04,.02,0,0,0,0,0,0,0,0,.01,0,.02,0,.07,.02,.08,.01,.14,0,.02,0,.03,0,.05,0,0,0,0,0,0,0,.04,0,.06-.02,.09-.04h.02s.05-.04,.07-.05c.06-.03,.1-.08,.14-.14,.03-.06,.05-.12,.05-.19,0-.03,0-.07-.01-.1Z"/>
        </g>
      </g>
    </g>
  </g>
</svg>