<?xml version="1.0" encoding="UTF-8"?>
<svg id="katman_2" data-name="katman 2" xmlns="http://www.w3.org/2000/svg" viewBox="0 0 37.47 41.55">
  <defs>
    <style>
      .cls-1 {
        fill: #f7ff51;
      }

      .cls-2 {
        fill: #ffbe91;
      }

      .cls-3 {
        fill: #5c0026;
      }

      .cls-4 {
        fill: #ffdfb3;
      }

      .cls-5 {
        fill: #b0b0b0;
      }

      .cls-6 {
        fill: #d3d3d3;
      }
    </style>
  </defs>
  <g id="katman_2-2" data-name="katman 2">
    <g>
      <path class="cls-3" d="M17.91,21.62c.13-.54,.27-1.07,.39-1.62,.09-.38-.48-.54-.64-.19-.09,.19-.17,.38-.25,.58-.04,.04-.09,.09-.12,.16-.94,2.16-1.01,4.53-.81,6.85,.05,.6,.12,1.19,.2,1.77,0,.08,.02,.18,.03,.28-.13,.49-.12,1.04,.24,1.45,.36,.4,.95,.42,1.38,.13,1-.67,.8-2.1,.41-3.04-.23-.57-.51-1.1-.68-1.69-.17-.58-.26-1.19-.31-1.79-.06-.97,.04-1.92,.16-2.87h0Z"/>
      <path class="cls-4" d="M35.99,26.48c.03-.27-.13-.54-.52-.57-4-.25-8.36-.25-12.03,1.52-.05,.02-.09,.05-.12,.09-.31,.04-.6,.1-.89,.17-.65,.17-1.03,.6-1.25,1.21-.21,.58-.35,1.18-.57,1.76-.31,.81-.83,2.17-1.92,2.2-1.21,.03-1.8-1.31-2.07-2.23-.16-.54-.26-1.11-.58-1.58-.33-.48-.82-.78-1.42-.85-.63-.08-1.27,.07-1.88,.2-.72,.14-1.44,.28-2.16,.43-3.16,.63-6.34,1.23-9.46,2.03-.22-.22-.72,.03-.6,.37,.21,.64,.45,1.22,.83,1.78,.39,.57,.84,1.1,1.33,1.58,1.04,1.01,2.27,1.8,3.53,2.53,1.32,.75,2.65,1.53,4.06,2.11,1.44,.6,2.96,.84,4.5,1.06,1.6,.23,3.21,.46,4.83,.37,1.53-.08,3.01-.48,4.42-1.04,1.39-.55,2.77-1.2,4.07-1.92,1.26-.7,2.27-1.79,3.2-2.85,2.06-2.34,3.67-5.02,4.76-7.91,.07-.19,.03-.34-.07-.45h0Z"/>
      <path class="cls-2" d="M33.78,25.75c-1.37-.48-2.95-.32-4.36-.12-1.48,.21-2.97,.46-4.44,.79-.73,.16-1.46,.36-2.18,.6-.63,.21-1.33,.41-1.69,1.03-.33,.56-.42,1.27-.57,1.89-.16,.63-.32,1.27-.63,1.83-.43,.76-1.56,1.66-2.45,1.07-.45-.3-.61-.86-.72-1.36-.13-.55-.19-1.11-.39-1.64s-.49-1.04-.97-1.36c-.6-.43-1.3-.36-1.98-.23-1.57,.29-3.12,.6-4.69,.89-1.57,.3-3.12,.6-4.69,.89-.78,.15-1.57,.3-2.35,.45-.56,.1-1.22,.39-1.21,1.07,.01,.41,.28,.69,.6,.87-.18,.22-.05,.69,.3,.64,1.57-.2,3.15-.38,4.74-.51,1.47-.12,3.07-.37,4.53,0,1.19,.3,2.17,1.08,3.15,1.79s2.03,1.37,3.24,1.57c.75,.12,1.5,.08,2.25-.01,.71-.1,1.4-.22,2.06-.52,1.11-.5,1.77-1.5,2.36-2.52,.57-1,1.11-2,2.13-2.6,1.1-.64,2.41-.81,3.65-.96,1.38-.16,2.77-.32,4.06-.9,.56-.25,1.22-.63,1.31-1.31s-.46-1.12-1.04-1.33h0Z"/>
      <path class="cls-3" d="M36.03,25.3c-.07-.01-.13-.02-.21,0-.08-.16-.23-.29-.46-.3-5-.2-9.99,.64-14.65,2.47-.2,.08-.39,.25-.37,.49,.05,1.02-.01,2.04-.22,3.05-.13,.67-.27,1.75-.91,2.16-.59,.37-1.28-.14-1.64-.61-.53-.69-.6-1.63-.78-2.46-.17-.79-.43-1.77-1.15-2.24-.36-.24-.79-.28-1.22-.25-.51,.04-1.04,.13-1.54,.21-2.06,.29-4.11,.63-6.15,1.05-1.13,.23-2.25,.48-3.37,.74-1.04,.25-2.13,.49-3.1,.95-.04,0-.07,.02-.1,.04-.01,0-.02,0-.04,.01-.18,.09-.17,.31-.07,.45,.15,1.6,1.26,2.92,2.37,4.01,1.18,1.16,2.56,2.36,3.96,3.24,2.8,1.74,5.41,2.68,8.69,3.09,3.09,.38,6.78,.04,9.69-1.1,2.78-1.08,5.52-2.86,7.52-5.08,1.1-1.22,2.51-2.73,3.22-4.21,.81-1.67,1.66-2.98,1.94-4.8,.04-.29-1.13-.84-1.43-.92h0Zm-1.86,4.83c-.56,1.27-1.28,2.48-2.14,3.56-1.75,2.19-4,3.95-6.53,5.14-5.54,2.59-12.08,1.9-17.38-.93-1.54-.82-2.98-1.82-4.3-2.96-1.25-1.07-2.4-2.27-3.02-3.82,.91-.1,1.8-.35,2.7-.55,1.04-.23,2.07-.46,3.12-.67,2.08-.42,4.18-.78,6.28-1.09,.51-.07,1.03-.16,1.54-.21,.45-.04,.74,.04,.97,.45,.46,.82,.48,1.83,.72,2.73,.22,.85,.65,1.6,1.36,2.11,.66,.47,1.54,.62,2.24,.18,.87-.53,1.13-1.62,1.33-2.54,.22-1.06,.31-2.14,.29-3.22,4.44-1.65,9.2-2.42,13.93-2.22-.25,1.39-.56,2.75-1.13,4.05h.01Z"/>
      <path class="cls-5" d="M22.2,1.3c-2.85-.43-5.73-.45-8.58-.07-.1-.11-.25-.13-.33,.05-.01,.03-.02,.06-.03,.09-.13,.11-.22,.28-.22,.51,0,.25,.14,.51,.34,.61,.16,.34,.4,.66,.51,1.05,.12,.43,.13,.88,.16,1.32,.04,.54,.07,1.07,.11,1.6,.07,1.12,.14,2.24,.2,3.37,.03,.54,.07,1.07,.1,1.6,.04,.45,.04,.95,.32,1.31,.3,.37,.7,.32,1.1,.32,.48,0,.96,0,1.45,0,.44,0,.87,0,1.31,0,.43,0,.89,.07,1.31-.02,.41-.1,.63-.45,.68-.95,.05-.57,.07-1.16,.1-1.73,.06-1.1,.13-2.21,.19-3.31,.04-.6,.07-1.21,.05-1.82-.01-.45-.08-.95,0-1.4,.08-.43,.36-.58,.66-.75,.34-.2,.67-.39,.94-.73,.34-.44,.07-1.04-.37-1.1v.02Z"/>
      <path class="cls-6" d="M19.94,5.88c0-.37-.01-.75-.03-1.12,0-.04,0-.09,0-.13,.01-.45,.02-.92,.02-1.37,0-.28-.21-.58-.45-.55-.19,.02-.38,.04-.57,.07-.24,.04-.46,.23-.45,.56,.04,1.6,.12,3.21,.16,4.81,.01,.72,0,1.45,0,2.18-.04,.65-.06,1.3-.02,1.94v.11c0,.09,0,.18,.01,.28v.03c0,.06,0,.13,.01,.19,.01,.1,.06,.16,.13,.19,.28,.37,.85,.25,.9-.41,.11-1.51,.25-3.02,.28-4.53,.02-.75,.02-1.49,0-2.24h0Z"/>
      <path class="cls-6" d="M16.47,10.25c-.03-.83-.09-1.66-.14-2.48-.04-.8-.15-1.6-.17-2.4-.01-.4-.03-.8-.04-1.2,0-.38,0-.81-.11-1.17-.05-.17-.28-.22-.31,0-.07,.38-.01,.79,.02,1.17,.04,.43,.06,.85,.08,1.28,.04,.87-.01,1.77-.05,2.64-.04,.85-.1,1.71-.13,2.56-.01,.43-.04,.85-.04,1.28,0,.35-.1,.85,.13,1.13,.29,.34,.91,0,.73-.52-.02-.07,.03-.42,.04-.52,0-.22,0-.43,0-.64,0-.37,0-.75,0-1.12h-.01Z"/>
      <path class="cls-6" d="M21.07,2.09c-.22-.74-.96-.96-1.52-1.04,0,0-.06,0-.07-.01-.01,0-.06-.01-.07-.01-.1-.01-.2-.04-.3-.04-.14,0-.29,0-.43,0-.16,0-.36,0-.51,.07-.06,.02-.12,.05-.17,.09-.02,.01-.05,.04-.07,.07-.06,.04-.07,.06-.04,.04-.04,.04-.14,.16-.19,.25-.11,.23-.03,.48,.13,.63,.04,.04,.08,.07,.13,.08,.02,0,.03,.01,.04,.01,.1,.05,.19,.09,.31,.09,.13,0,.27-.03,.4-.04,.25-.01,.51-.03,.76-.06s.4-.03,.63,.07c.1,.04,.18,.1,.31,.16s.26,.1,.4,.09c.17-.01,.35-.22,.28-.45h0Z"/>
      <path class="cls-1" d="M19.68,13.76c-.01-.37-.23-.63-.53-.65-1.08-.07-2.19-.07-3.26,.17h-.01c-.14-.04-.33,.07-.32,.29v.09c-.03,.13-.02,.27,0,.4,.02,1.2,.12,2.4,.16,3.6,.06,1.39,.1,2.79,.15,4.18,.04,1.37,.07,2.74,.1,4.11,.02,1.13,0,2.28,.14,3.4,.13,.95,.44,1.89,1.07,2.49,.37,.34,.8,.56,1.25,.35s.73-.77,.91-1.28c.39-1.1,.36-2.36,.39-3.54,.04-1.39,.07-2.77,.08-4.16,.03-3.15-.02-6.31-.14-9.46h0Z"/>
      <path class="cls-3" d="M20.16,4.63c0,.71-.02,1.41-.04,2.12-.03,1.41-.08,2.83-.14,4.24-.01,.35-.03,.71-.05,1.06,0,.13-.05,.34-.03,.48h0s0,0,0,0c-.11-.01-.35,.03-.4,.03-.13,0-.26,0-.4,0-.28,0-.57,.01-.85,.02-.57,.01-1.13,.01-1.7,.04-.28,0-.55,.03-.84,.04-.05-.25-.22-.47-.43-.48-.13-.64-.18-1.33-.26-1.98,0-.38,0-.75,0-1.12-.01-1.41-.03-2.81-.05-4.22,0-.35-.01-.7-.01-1.06v-.19s.01,0,.03,0c.07,0,.15-.04,.22-.05,.54-.13,1.07-.22,1.62-.28,.54-.07,1.1-.1,1.65-.1,.55,0,1.1,.07,1.65,.06h.04c0,.11,.01,.25,.01,.35,0,.35,0,.71,0,1.06h0Zm.93-2.09c-.27-.62-.9-.63-1.42-.66-.66-.04-1.31-.04-1.97,0-.66,.04-1.32,.13-1.97,.24-.54,.1-1.35,.1-1.68,.73-.01,.02-.02,.04-.03,.07-.18-.45-.33-.92-.44-1.4,2.78-.69,5.68-.55,8.4,.37-.29,.24-.59,.45-.91,.65h0Zm2.6-1.56C20.44-.34,15.3-.24,11.96,.76c-.22,.07,.7,.28,.75,.53,.22,1.11,.61,2.12,1.2,2.98v.14c0,.3,0,.6,.01,.89v.11c.01,.95,.04,1.89,.05,2.84,.04,1.7-.03,3.48,.56,5.06,.08,.23,.34,.34,.54,.28,.22,.13,.48,.18,.75,.21,.67,.06,1.35,.06,2.03,.06s1.35,0,2.03-.03c.66-.02,1.01-.42,1.07-1.23,.12-1.68,.16-3.37,.2-5.05,.02-.84,.04-1.69,.05-2.53,0-.41,0-.81,.01-1.22v-.17s.04,0,.06-.02c.74-.37,1.4-.91,1.99-1.56,.27-.29,.71-.97,.41-1.09h0Z"/>
      <path class="cls-2" d="M10.02,33.83s-.02-.09-.04-.13c-.04-.13-.1-.24-.17-.35-.05-.09-.13-.15-.22-.19-.09-.04-.21-.05-.31-.02-.01,0-.03,.01-.04,.02-.03,0-.07-.01-.1-.01,.03,0,.06,0,.09,.01-.03,0-.07,0-.1-.01-.12-.02-.22,0-.31,.07-.08,.07-.13,.15-.13,.25-.01,.08-.04,.16-.05,.23-.02,.11-.04,.22-.04,.34,0,.22,.07,.45,.23,.61,.22,.22,.55,.26,.82,.11,.12-.06,.21-.16,.28-.28,.07-.12,.1-.25,.12-.39,0-.08,0-.16-.02-.25h0Z"/>
      <path class="cls-2" d="M11.26,35.54c-.01-.06-.05-.12-.1-.16-.02-.02-.05-.04-.07-.06-.06-.04-.12-.05-.19-.05h-.06c-.05,0-.1,0-.14,.03-.04,.01-.09,.04-.12,.07-.04,.04-.06,.07-.07,.12-.02,.04-.04,.09-.03,.14,0,.03,0,.07,.01,.1,.01,.06,.05,.12,.1,.16,.02,.02,.05,.04,.07,.06,.06,.04,.12,.05,.19,.05h.06c.05,0,.1,0,.14-.03,.04-.01,.09-.04,.12-.07,.04-.04,.06-.07,.07-.12,.02-.04,.04-.09,.03-.14,0-.03,0-.07-.01-.1Z"/>
      <path class="cls-2" d="M27.47,32.34c-.02-.09-.07-.16-.13-.22-.04-.03-.07-.05-.1-.08-.08-.04-.16-.07-.25-.07-.07,0-.13,.01-.19,.04-.06,.02-.12,.05-.16,.1-.05,.04-.08,.1-.1,.16-.03,.06-.04,.13-.04,.19,0,.04,.01,.09,.01,.13,.02,.09,.07,.16,.13,.22,.04,.03,.07,.05,.1,.08,.08,.04,.16,.07,.25,.07,.07,0,.13-.01,.19-.04,.06-.02,.12-.05,.16-.1,.05-.04,.08-.1,.1-.16,.03-.06,.04-.13,.04-.19,0-.04-.01-.09-.01-.13Z"/>
      <path class="cls-2" d="M25.25,34.48s0-.03-.01-.05h0s0-.07-.01-.1c-.01-.04-.04-.08-.07-.12-.03-.03-.05-.04-.09-.06-.04-.01-.02-.01-.07-.01h-.07s-.07,.01-.1,.03c0,0-.01,0-.02,.01h0c-.08,.03-.16,.08-.2,.16-.04,.07-.07,.14-.1,.22-.02,.04-.04,.08-.04,.13,0,.04,0,.09,0,.13s.03,.08,.06,.12c.02,.04,.06,.07,.1,.09,.08,.04,.18,.07,.27,.04,.08-.03,.16-.08,.21-.16,.04-.07,.08-.13,.11-.21,.01-.03,.02-.06,.04-.08,.01-.04,.01-.1,0-.14h0Z"/>
      <path class="cls-2" d="M30.32,30.31s-.04-.09-.07-.13c-.02-.03-.05-.04-.09-.06-.03-.01-.07-.02-.11-.02-.1,0-.19,.05-.25,.14,0,.01-.01,.03-.02,.04h0s-.01,.04-.02,.06c0,0,0,.02-.01,.03,0,.02,0,.04,0,.07,0,.02,0,.04,0,.07h0v.04s.04,.05,.06,.07c0,0,.01,.01,.02,.01,.01,.01,.03,.02,.04,.03,.01,0,.01,0,.03,.01h.01c.05,.01,.06,0,.1,0h.04s.04-.01,.07-.03h.01s.04-.03,.05-.04c.04-.02,.07-.06,.1-.1,.02-.04,.04-.09,.04-.14,0-.02,0-.05,0-.07v.02Z"/>
    </g>
  </g>
</svg>