<?xml version="1.0" encoding="UTF-8"?>
<svg id="katman_2" data-name="katman 2" xmlns="http://www.w3.org/2000/svg" xmlns:xlink="http://www.w3.org/1999/xlink" viewBox="0 0 26.31 42.79">
  <defs>
    <style>
      .cls-1 {
        fill: url(#Adsız_degrade-2);
      }

      .cls-2 {
        fill: url(#Adsız_degrade);
      }

      .cls-3 {
        fill: url(#Adsız_degrade-3);
      }
    </style>
    <linearGradient id="Adsız_degrade" data-name="Adsız degrade" x1="13.16" y1="-193.3" x2="13.16" y2="-159.39" gradientTransform="translate(0 -150.51) scale(1 -1)" gradientUnits="userSpaceOnUse">
      <stop offset="0" stop-color="#b99f6c"/>
      <stop offset=".6" stop-color="#eee6db"/>
    </linearGradient>
    <linearGradient id="Adsız_degrade-2" data-name="Adsız degrade" x1="78.9" y1="-185.65" x2="78.9" y2="-175.11" gradientTransform="translate(-14.51 -189.38) rotate(13.61) scale(1 -1)" xlink:href="#Adsız_degrade"/>
    <linearGradient id="Adsız_degrade-3" data-name="Adsız degrade" x1="79.26" y1="-180.64" x2="79.26" y2="-178.94" gradientTransform="translate(-14.51 -189.38) rotate(13.61) scale(1 -1)" xlink:href="#Adsız_degrade"/>
  </defs>
  <g id="katman_2-2" data-name="katman 2">
    <path class="cls-2" d="M2.09,29.36c.17-.26,.3-.56,.28-.87-.03-.36-.08-.8-.22-1.13-.04-.08-.18-.1-.21,0-.08,.29-.04,.6-.05,.89-.01,.33,.04,.7-.02,1.02-.02,.12,.15,.19,.22,.09Zm-.47-4.11c-.05,.15-.12,.27-.11,.44,.02,.33,.12,.63,.23,.94,.04,.1-.09,.17-.16,.09-.32-.38-.98-1.11-.7-1.67,.12-.24,.3-.5,.59-.54,.28-.03,.47,.12,.56,.39,.03,.1-.02,.22-.13,.23-.12,0-.25,.05-.27,.13h0Zm24.65,.75v.04c-.05,1.09-1.03,5.46-2.24,5.46-.25,0-.51-.19-.78-.57-.02-.03,0-.04,0-.05,0-.02,.06-.05,.09-.02,.18,.12,.36,.18,.53,.18,1.52,0,2.02-4.48,2.03-4.52,.06-.53,.03-1.11,0-1.67,0-.15-.02-.3-.02-.45-.03-.76-.47-1.19-1.24-1.19-.26,0-.51,.05-.72,.11,0,.19,0,.39,.02,.6,0,.28-.13,.47-.31,.56v.02c.06,.46,.11,.93,.11,1.4,0,.43,.04,1-.11,1.44,0,.18,0,.35-.02,.53,.08,.61,.08,1.27-.2,1.79-.16,1.16-.4,2.55-.89,4.09-.5,1.57-1.22,3.33-2.43,5.01-.6,.84-1.34,1.64-2.21,2.33-.45,.34-.93,.65-1.45,.91-.52,.25-1.08,.46-1.67,.6-1.17,.27-2.45,.24-3.65-.16-1.2-.39-2.3-1.08-3.23-1.96-1.87-1.77-3.17-4.15-4.03-6.67-.43-1.26-.76-2.57-.97-3.91-.02-.15-.04-.3-.07-.45-.15-.37-.18-.8-.15-1.22-.08-.79-.13-1.58-.14-2.38,0-.49,0-.98,.03-1.47-.12-.1-.19-.26-.18-.48,0-.21,.01-.41,.02-.6-.21-.06-.46-.11-.72-.11-.77,0-1.21,.42-1.24,1.19,0,.15-.01,.3-.02,.45-.03,.56-.06,1.13,0,1.67,0,.05,.51,4.53,2.03,4.52,.17,0,.35-.06,.53-.18,.04-.02,.08,0,.09,.02,0,0,.01,.02,0,.05-.27,.38-.53,.57-.78,.57C1.05,31.49,.08,27.12,.03,26.03v-.04c-.05-1.09-.11-2.32,.65-3.09,.15-.15,.33-.23,.54-.23,.42,0,.87,.3,1.16,.62v-.14c0-.14,0-.29-.01-.43,0-.14,.04-.26,.1-.37-.03-.79-.07-1.57-.08-2.36-.01-1.19-.32-2.35-.16-3.53,.16-1.21,.44-3,1.59-3.58,.27-.67,.59-1.23,1.15-1.75,.26-.25,.58-.36,.9-.48,.33-.27,.67-.51,1.02-.72,.68-.69,1.36-1.09,2.29-.86,.11-.02,.22-.03,.34-.04,.48-.15,.96-.04,1.49,.18,.03,0,.05-.02,.08-.03,.61-.19,1.24-.29,1.86-.3h.46c.15,.02,.29,.02,.45,.04,.16,.02,.31,.03,.46,.06,.15,.03,.3,.06,.45,.09,.18,.04,.35,.09,.52,.15,.54-.23,1.02-.33,1.51-.18,.11,0,.22,.02,.34,.04,.93-.23,1.6,.17,2.29,.86,.35,.21,.7,.45,1.02,.72,.31,.12,.63,.23,.9,.48,.55,.52,.88,1.09,1.15,1.75,1.15,.58,1.44,2.38,1.59,3.58,.15,1.19-.15,2.34-.16,3.53,0,.79-.05,1.57-.08,2.36,.07,.11,.11,.23,.1,.37,0,.14,0,.29,0,.43v.14c.3-.31,.74-.62,1.16-.62,.21,0,.39,.08,.54,.23,.76,.77,.7,2,.65,3.09h-.02Zm-3.02,3.86c-.08,.1-.16,.19-.27,.28-.23,.18-.62,.08-.71-.2-.25-.39-.58-.62-1-.7-.37-.11-.35-.6-.1-.81,.26-.21,.45-.51,.61-.85-.05-.94,.14-1.87,.32-2.8,.02-.48,.02-.96,.02-1.44v-.19h.02c.04-.17,.13-.31,.24-.41,.02-.6-.03-1.19-.21-1.79-.11-.35-.19-.78-.15-1.14,0-.06,0-.12,.02-.18-.31-1.24-.75-2.42-1.38-3.61-.54-1.02-1.13-1.98-1.86-2.87-.8-.98-1.99-1.66-2.91-2.52-.22-.2-.31-.44-.32-.67-.3-.12-.6-.21-.92-.29l-.41-.08c-.14-.02-.27-.03-.41-.05-.13-.02-.28-.02-.43-.03h-.42c-.57,.02-1.14,.11-1.7,.28-.17,.05-.34,.11-.51,.18-.01,.23-.11,.46-.32,.66-.92,.86-2.11,1.54-2.91,2.52-.73,.89-1.33,1.85-1.86,2.87-.63,1.19-1.08,2.37-1.38,3.61,0,.06,.01,.12,.02,.18,.04,.36-.05,.8-.15,1.14-.19,.6-.24,1.2-.21,1.79,.12,.1,.21,.24,.24,.41h.02v.19c0,.48,0,.96,.02,1.44,.18,.93,.36,1.86,.32,2.8,.16,.34,.35,.63,.61,.85,.25,.21,.27,.7-.1,.81-.42,.08-.76,.31-1,.7-.1,.28-.48,.39-.71,.2-.08-.06-.14-.13-.2-.19,.2,1.3,.51,2.58,.91,3.81,.43,1.25,.97,2.45,1.65,3.56,.33,.55,.7,1.08,1.11,1.57,.4,.49,.84,.95,1.31,1.36,.93,.83,2.01,1.46,3.15,1.78,.14,.04,.28,.08,.43,.11l.43,.08c.28,.03,.56,.07,.87,.07,.57,0,1.14-.04,1.68-.18s1.06-.33,1.55-.58,.93-.55,1.36-.86c.84-.65,1.56-1.4,2.16-2.2,1.21-1.59,2.01-3.27,2.56-4.81,.5-1.41,.81-2.7,.99-3.8h-.07Zm1.45-3.15c.32-.38,.98-1.11,.7-1.67-.12-.24-.3-.5-.59-.54-.28-.03-.47,.12-.56,.39-.03,.1,.02,.22,.13,.23,.12,0,.25,.05,.27,.13,.05,.15,.12,.27,.11,.44-.02,.33-.12,.63-.23,.94-.04,.1,.09,.17,.16,.09h0Zm-.57,.63c-.15,.33-.19,.77-.22,1.13-.03,.31,.1,.61,.28,.87,.07,.1,.24,.03,.22-.09-.06-.32,0-.69-.02-1.02,0-.29,.03-.6-.05-.89-.03-.1-.17-.08-.21,0Z"/>
    <g>
      <path class="cls-1" d="M23.27,.06c-.21,.15-.17,.48,0,.85l-.76,.55c-.44-.18-.95-.14-1.36,.16l-4.46,3.27c-.3,.22-.5,.54-.56,.91-.05,.31,0,.62,.16,.89l-2.16,1.58c-.08,.06-.09,.16-.04,.24,.03,.03,.06,.06,.1,.07,.05,.01,.1,0,.14-.03l2.16-1.58c.19,.2,.43,.34,.69,.4,.39,.09,.81,.02,1.16-.23l4.46-3.27c.3-.22,.5-.54,.56-.91,.02-.11,.02-.23,0-.34l.76-.55c.05,.05,.11,.09,.16,.13,.13,.09,.24,.14,.33,.16,.15,.04,.25,0,.32-.05,.32-.24,.04-.93-.35-1.47-.4-.54-.97-1.02-1.3-.78h0Zm1.02,.99c.38,.52,.46,.9,.43,.99-.05,0-.16-.05-.32-.17l.03-.02s.06-.07,.07-.11c0-.05,0-.09-.03-.13l-.65-.89c-.06-.08-.16-.09-.24-.04l-.03,.02c-.07-.18-.08-.31-.07-.35,.09,0,.43,.19,.81,.7Zm-1.29,1.86c-.04,.28-.19,.52-.42,.69l-.11,.08-.24-.32c-.04-.06-.12-.07-.18-.03s-.07,.12-.03,.18l.24,.32-.38,.28-.43-.58c-.04-.06-.12-.07-.18-.03s-.07,.12-.03,.18l.43,.58-.42,.3-.24-.32c-.04-.06-.12-.07-.18-.03s-.07,.12-.03,.18l.24,.32-.19,.14-.19,.14-.43-.58c-.04-.06-.12-.07-.18-.03s-.07,.12-.03,.18l.43,.58-.32,.23-.24-.32c-.04-.06-.12-.07-.18-.03s-.07,.12-.03,.18l.24,.32-.38,.28-.43-.58c-.04-.06-.12-.07-.18-.03s-.07,.12-.03,.18l.43,.58-.42,.3-.24-.32c-.04-.06-.12-.07-.18-.03s-.07,.12-.03,.18l.24,.32-.38,.28-.43-.58c-.04-.06-.12-.07-.18-.03s-.07,.12-.03,.18l.43,.58h-.02c-.47,.36-1.13,.25-1.47-.21-.17-.23-.23-.5-.19-.78,.04-.28,.19-.52,.42-.69l2.74-2.01,1.72-1.26c.23-.17,.5-.23,.78-.19,.03,0,.06,.01,.09,.02,.24,.06,.45,.2,.6,.4,.17,.23,.23,.5,.19,.78l.03,.02Zm.09-.99c-.08-.11-.17-.2-.26-.27l.81-.59,.44,.61-.81,.59c-.04-.12-.1-.23-.18-.33h0Z"/>
      <path class="cls-3" d="M19.43,3.15c.46,.62,.92,1.24,1.38,1.86,.09,.12,.28,0,.19-.12-.46-.62-.92-1.24-1.38-1.86-.09-.12-.28,0-.19,.12h0Z"/>
    </g>
  </g>
</svg>