<?xml version="1.0" encoding="UTF-8"?>
<svg id="katman_2" data-name="katman 2" xmlns="http://www.w3.org/2000/svg" viewBox="0 0 36.95 51.29">
  <defs>
    <style>
      .cls-1 {
        fill: #fff;
      }

      .cls-2 {
        fill: #3e1314;
      }

      .cls-3 {
        fill: #36164d;
      }

      .cls-4 {
        fill: #ffc8b1;
      }

      .cls-5 {
        fill: #fe164d;
      }
    </style>
  </defs>
  <g id="katman_2-2" data-name="katman 2">
    <g>
      <rect class="cls-1" x="18.22" y="45.35" width=".36" height="1.33"/>
      <path class="cls-2" d="M27.3,19.55h-.68c.05,.96,.1,1.94,.03,2.78-.25,3.25-1.79,6.39-2.29,7.79-.04,.11-.09,.21-.13,.32-.27,.21-.55,.41-.82,.61-.78-.3-2.71-.93-5.01-.94h0c-2.3,0-4.23,.64-5.01,.94-.28-.2-.55-.4-.82-.61-.04-.11-.09-.22-.13-.32-.5-1.4-2.04-4.54-2.29-7.79-.07-.84-.15-1.82-.1-2.78h-.56c.24,3.35,.67,7.09,1.18,9.33-.01,0-.02-.02-.03-.03,.23,2.72,.54,4.62,.97,5.8,1.14,3.18,5.36,4.73,6.8,4.74h0c1.44,0,5.65-1.56,6.8-4.74,.42-1.18,.74-3.08,.97-5.8,0,0-.02,.02-.03,.03,.51-2.24,.94-5.98,1.18-9.33h-.03Z"/>
      <path class="cls-4" d="M.12,44.32s-.08,.05-.12,.08"/>
      <path class="cls-4" d="M33.9,46.81c.52-.38,1.05-.75,1.57-1.13,.29-.24,.57-.49,.8-.79,0,0-.02,.03-.03,.04,.19-.25,.42-.43,.71-.56-2.74-2.09-12.91-3.4-12.91-3.4,0,.02,0,.03,0,.05-1.17-1.95-1.19-6-1.13-7.83,.02-.57-.3-1.09-.82-1.33l-3.07-1.45c-.39-.18-.83-.18-1.22,0l-3.07,1.45c-.52,.24-.83,.77-.82,1.33,.06,1.83,.04,5.89-1.13,7.83,0-.02,0-.03-.01-.05-.77,.24-8.72,.82-12.65,3.35l3.53,2.68,1.79,1.14,1.54,.66,1.65,.69,2.1,.7,2.01,.5,1.53,.28,2.19,.25,2.04,.07,2.31-.1,2.11-.26,2.47-.51,2.08-.62,3.08-1.16,2.98-1.65c.11-.08,.23-.14,.36-.19h.02Z"/>
      <path class="cls-2" d="M26.37,13.34c-.56-.98-1.26-1.83-2.07-2.54-1.6-1.41-4.16,1.82-5.93,2.89-1.77-1.07-4.32-4.3-5.93-2.89-.8,.71-1.51,1.55-2.07,2.54-1.09,1.9-1.87,2.17-1.87,4.41,0,2.5,2.16,8.52,2.6,9.02,.79,.9,1.93,2.17,3.09,2.42,.02,0,.03,0,.05,0,1.81-1.66,2.58-2.37,4.13-3.8,1.56,1.43,2.33,2.14,4.13,3.8,.02,0,.03,0,.05,0,1.16-.25,2.29-1.52,3.09-2.42,.44-.5,2.6-6.52,2.6-9.02,0-2.24-.78-2.51-1.87-4.41Z"/>
      <path class="cls-4" d="M10.64,24.15s-.96-1.02-1.56-.51c-.2,.17-.53,.71-.26,1.45,.76,2.14,.96,3.74,1.68,4.07,.57,.26,1.38-.59,1.38-.59l-1.23-4.42h-.01Z"/>
      <path class="cls-4" d="M26.16,24.15s.96-1.02,1.56-.51c.2,.17,.53,.71,.26,1.45-.76,2.14-.96,3.74-1.68,4.07-.57,.26-1.38-.59-1.38-.59l1.23-4.42h.01Z"/>
      <path class="cls-4" d="M9.68,19.11H27.13c.02-.38,.04-.75,.06-1.11,.56-8.26-7.45-8.32-8.76-8.33s-9.38-.18-8.81,8.37c.02,.35,.04,.71,.06,1.07Z"/>
      <path class="cls-2" d="M14.15,10.1c-2.25-.62-4.3,.41-5.18,3.41-.55,1.88-.63,4.99,0,7.02,.37,.17,.73,.36,1.09,.57,.05-1,.02-2.04,.34-3,.16-.47,.02-2.09,.12-2.59,.24-1.28,.79-2.9,2.3-4.26,.38-.34,2.06-.95,1.34-1.15h-.01Z"/>
      <path class="cls-2" d="M22.62,10.1c2.25-.62,4.3,.41,5.18,3.41,.55,1.88,.63,4.99,0,7.02-.37,.17-.73,.36-1.09,.57-.05-1-.02-2.04-.34-3-.16-.47-.02-2.09-.12-2.59-.24-1.28-.79-2.9-2.3-4.26-.38-.34-2.06-.95-1.34-1.15h.01Z"/>
      <path class="cls-2" d="M18.37,18.09c-3.66,0-6.88-.81-8.72-2.03-.07,.6-.08,1.26-.03,1.98,.23,4.36,.66,10.05,1.39,12.08,.51,1.42,1.14,3.81,2.44,4.54,1.16,.65,2.05-.35,3.15,.06,.18,.07,.35,.15,.52,.24,.81,.45,1.76,.45,2.57,0,.16-.09,.34-.17,.52-.24,1.1-.41,1.98,.59,3.15-.06,1.3-.72,1.93-3.12,2.44-4.54,.73-2.03,1.16-7.72,1.39-12.08,.05-.73,.03-1.4-.04-2.01-1.83,1.24-5.07,2.06-8.76,2.06h-.02Z"/>
      <rect class="cls-3" x="18.22" y="2.65" width=".36" height="1.33"/>
      <rect class="cls-3" x="18.22" y="5.3" width=".36" height="1.33"/>
      <rect class="cls-3" x="18.22" width=".36" height="1.33"/>
      <rect class="cls-1" x="18.22" y="10.87" width=".36" height="1.33"/>
      <rect class="cls-1" x="18.22" y="13.53" width=".36" height="1.33"/>
      <rect class="cls-3" x="18.22" y="7.95" width=".36" height="1.33"/>
      <rect class="cls-1" x="18.22" y="42.7" width=".36" height="1.33"/>
      <rect class="cls-1" x="18.22" y="37.39" width=".36" height="1.33"/>
      <rect class="cls-1" x="18.22" y="34.74" width=".36" height="1.33"/>
      <rect class="cls-1" x="18.22" y="32.09" width=".36" height="1.33"/>
      <rect class="cls-1" x="18.22" y="40.05" width=".36" height="1.33"/>
      <rect class="cls-1" x="18.22" y="24.13" width=".36" height="1.33"/>
      <rect class="cls-1" x="18.22" y="21.48" width=".36" height="1.33"/>
      <rect class="cls-1" x="18.22" y="18.83" width=".36" height="1.33"/>
      <rect class="cls-1" x="18.22" y="16.18" width=".36" height="1.33"/>
      <rect class="cls-1" x="18.22" y="29.44" width=".36" height="1.33"/>
      <rect class="cls-1" x="18.22" y="26.79" width=".36" height="1.33"/>
      <g>
        <path class="cls-3" d="M28.53,28.94l-.25-.26c.27-.26,.54-.54,.78-.85l.28,.22c-.26,.32-.53,.62-.82,.89h.01Zm1.51-1.87l-.31-.19c.2-.32,.39-.66,.56-1.02l.33,.15c-.18,.37-.37,.72-.58,1.05h0Zm1.05-2.14l-.34-.12c.13-.36,.26-.73,.36-1.1l.35,.09c-.11,.38-.23,.77-.37,1.13Zm.64-2.3l-.36-.06c.07-.4,.12-.78,.15-1.15l.36,.02c-.03,.37-.08,.77-.16,1.18h0Zm.18-2.37h-.36v-.06c0-.35-.04-.72-.09-1.08l.36-.05c.04,.37,.07,.75,.09,1.11v.07h0Zm-.63-2.27c-.08-.37-.17-.75-.27-1.13l.35-.1c.11,.38,.2,.77,.28,1.15l-.36,.07h0Zm-.62-2.22c-.13-.36-.27-.72-.42-1.08l.34-.14c.15,.37,.3,.74,.43,1.1l-.34,.12h-.01Z"/>
        <path class="cls-3" d="M29.81,13.29l.84,.02v-.03l-.99-.78c-.28-.31-.56-.61-.84-.92,.12,.4,.25,.79,.37,1.19l.18,1.24h.02l.41-.72h.01Z"/>
      </g>
      <g>
        <path class="cls-3" d="M7.45,28.05l.28-.22c.25,.31,.51,.59,.78,.85l-.25,.26c-.29-.27-.56-.57-.82-.89h0Zm-1.27-2.03l.33-.15c.17,.35,.36,.7,.56,1.02l-.31,.19c-.21-.33-.4-.69-.58-1.05h0Zm-.84-2.24l.35-.09c.1,.37,.22,.75,.36,1.1l-.34,.12c-.14-.37-.26-.75-.37-1.13Zm-.42-2.35l.36-.02c.03,.36,.08,.75,.15,1.15l-.36,.06c-.08-.41-.13-.81-.16-1.18h.01Zm-.02-1.27c.01-.36,.04-.74,.09-1.11l.36,.05c-.04,.36-.07,.73-.09,1.08v.07h-.37v-.08h.01Zm.28-2.29c.08-.38,.17-.77,.28-1.15l.35,.1c-.11,.38-.2,.76-.27,1.13l-.36-.07h0Zm.63-2.29c.13-.37,.27-.74,.43-1.1l.34,.14c-.15,.36-.29,.72-.42,1.08l-.34-.12h-.01Z"/>
        <path class="cls-3" d="M7,13.29l-.84,.02v-.03l.99-.78c.28-.31,.56-.61,.84-.92-.12,.4-.25,.79-.37,1.19l-.18,1.24h-.02l-.41-.72h0Z"/>
      </g>
      <g>
        <path class="cls-4" d="M11.27,27.39s3.29,.73,6.08,1.04c0,0-.12,2.5-.82,2.58-.64,.08-4.62-.47-4.93-1.13-.39-.83-.33-2.49-.33-2.49Z"/>
        <path class="cls-5" d="M16.24,30.61s-.05-.02-.06-.04c0-.03,0-.07,.04-.07,.1-.03,.19-.09,.25-.17,.02-.03,.06-.03,.08,0,.03,.02,.03,.06,.01,.08-.08,.11-.19,.18-.32,.22h0Zm-.35-.02h-.01l-.35-.07s-.05-.04-.05-.07,.04-.05,.07-.05l.35,.07s.05,.04,.05,.07-.03,.05-.06,.05Zm-.69-.14h-.01l-.35-.07s-.05-.04-.05-.07,.04-.05,.07-.05l.35,.07s.05,.04,.05,.07-.03,.05-.06,.05Zm-.69-.14h-.01l-.35-.07s-.05-.04-.05-.07,.04-.05,.07-.05l.35,.07s.05,.04,.05,.07-.03,.05-.06,.05Zm-.69-.14h-.01l-.35-.07s-.05-.04-.05-.07,.04-.05,.07-.05l.35,.07s.05,.04,.05,.07-.03,.05-.06,.05Zm2.83-.08h-.01s-.05-.04-.04-.07c.03-.11,.05-.23,.08-.34,0-.03,.04-.05,.07-.05s.05,.04,.05,.07c-.03,.12-.05,.23-.08,.34,0,.03-.03,.05-.06,.05h0Zm-3.53-.06h-.01l-.35-.07s-.05-.04-.05-.07,.04-.05,.07-.05l.35,.07s.05,.04,.05,.07-.03,.05-.06,.05Zm-.69-.14h-.07c-.11-.03-.2-.08-.28-.16-.02-.02-.03-.06,0-.09,.02-.02,.06-.03,.08,0,.06,.06,.14,.1,.23,.12h.06s.05,.05,.05,.08-.03,.05-.06,.05h0Zm-.49-.45s-.05-.02-.06-.04c-.03-.1-.06-.22-.08-.35,0-.03,.01-.06,.05-.07,.03,0,.06,0,.07,.05,.03,.13,.05,.24,.08,.34,0,.03,0,.07-.04,.07h-.02Zm4.86-.04h-.01s-.05-.04-.05-.07h0s.01-.07,.01-.1c0-.07-.02-.14-.05-.2-.01-.03,0-.07,.03-.08,.03,0,.07,0,.08,.03,.04,.08,.06,.17,.06,.26,0,.04,0,.08-.01,.13,0,.03-.03,.05-.06,.05v-.02Zm-.28-.59h-.03s-.1-.04-.15-.05c-.06,0-.11-.02-.18-.03-.03,0-.06-.04-.05-.07,0-.03,.04-.06,.07-.05,.06,0,.12,.02,.18,.03,.06,0,.13,.03,.18,.06,.03,0,.04,.05,.03,.08-.01,.02-.03,.03-.05,.03Zm-4.72-.06s-.05-.02-.06-.05c0-.04-.01-.08-.02-.13v-.08c0-.06,0-.12,.03-.17,.01-.03,.04-.05,.08-.04,.03,0,.05,.04,.04,.08-.01,.04-.02,.09-.02,.13v.06s.01,.08,.02,.12c0,.03-.02,.06-.05,.07h-.02Zm4.03-.07h0c-.11-.02-.23-.04-.35-.06-.03,0-.05-.04-.05-.07s.04-.05,.07-.05c.12,.02,.24,.04,.35,.06,.03,0,.06,.04,.05,.07,0,.03-.03,.05-.06,.05h-.01Zm-.7-.12h-.01l-.35-.06s-.05-.04-.05-.07,.04-.06,.07-.05l.35,.06s.05,.04,.05,.07-.03,.05-.06,.05Zm-.7-.12h-.01l-.35-.06s-.05-.04-.05-.07,.04-.05,.07-.05l.35,.06s.05,.04,.05,.07-.03,.05-.06,.05Zm-.7-.12h-.01l-.35-.06s-.05-.04-.05-.07,.04-.05,.07-.05l.35,.06s.05,.04,.05,.07-.03,.05-.06,.05Zm-.7-.13h-.01l-.34-.06s-.06-.04-.05-.07c0-.03,.03-.05,.07-.05l.35,.06s.05,.04,.05,.07-.03,.05-.06,.05h-.01Zm-1.03-.05s-.04,0-.05-.03c-.02-.03,0-.07,.02-.08,.09-.06,.19-.08,.3-.09h.07s.06,.03,.05,.07c0,.03-.03,.06-.07,.05h-.06c-.08,0-.17,.02-.24,.07h-.02Z"/>
      </g>
      <g>
        <path class="cls-5" d="M20.57,30.84s-.06-.02-.06-.06c0-.03,.02-.06,.06-.06,.03,0,.05,0,.08,0l.27-.06s.06,0,.07,.05c0,.03-.01,.06-.05,.07l-.27,.06s-.07,0-.1,0h0Zm-.35-.09h-.03c-.12-.07-.21-.17-.27-.29-.01-.03,0-.07,.03-.08,.03,0,.07,0,.08,.03,.05,.1,.12,.19,.22,.24,.03,.02,.04,.05,.02,.08-.01,.02-.03,.03-.05,.03h0Zm1.08-.07s-.05-.02-.06-.05c0-.03,.01-.06,.05-.07l.36-.07s.06,0,.07,.05c0,.03-.01,.06-.05,.07l-.36,.07h-.01Zm.72-.15s-.05-.02-.06-.05c0-.03,.01-.06,.05-.07l.36-.07s.06,0,.07,.05c0,.03-.01,.06-.05,.07l-.36,.07h-.01Zm.72-.15s-.05-.02-.06-.05c0-.03,.01-.06,.05-.07l.36-.07s.06,0,.07,.05c0,.03,0,.06-.05,.07l-.36,.07h-.01Zm.72-.15s-.05-.02-.06-.05c0-.03,0-.06,.05-.07l.36-.07s.06,0,.07,.05c0,.03,0,.06-.05,.07l-.36,.07h0Zm-3.59-.12s-.05-.02-.06-.05c-.03-.12-.06-.24-.08-.36,0-.03,.01-.06,.05-.07,.03,0,.06,0,.07,.05,.03,.12,.06,.24,.08,.36,0,.03-.01,.06-.04,.07h-.02Zm4.31-.03s-.05-.02-.06-.05c0-.03,0-.06,.05-.07l.36-.07s.06,0,.07,.05c0,.03,0,.06-.05,.07l-.36,.07h0Zm.72-.15s-.05-.02-.06-.04c0-.03,0-.07,.04-.07,.11-.03,.2-.09,.27-.18,.02-.03,.06-.03,.08,0,.03,.02,.03,.06,0,.08-.09,.1-.2,.18-.33,.22h0Zm.46-.54h-.02s-.05-.04-.04-.07c.03-.1,.06-.22,.08-.35,0-.03,.04-.05,.07-.05s.05,.04,.05,.07c-.03,.13-.06,.26-.09,.36,0,.03-.03,.04-.06,.04h.01Zm-5.65,0s-.05-.02-.06-.04h0s-.01-.09-.01-.14c0-.09,.02-.17,.05-.25,.01-.03,.05-.05,.08-.03,.03,0,.05,.05,.03,.08-.03,.07-.04,.14-.04,.21,0,.04,0,.08,.01,.12v.02h0s-.02,.04-.04,.05h-.02v-.02Zm.26-.65s-.04,0-.05-.03c-.02-.03-.01-.06,.02-.08,.09-.06,.18-.1,.29-.11h.08s.06,0,.07,.04c0,.03-.02,.06-.05,.07h-.08c-.09,.02-.17,.06-.24,.1-.01,0-.02,0-.03,0h-.01Zm5.55-.07h0s-.06-.04-.05-.07c0-.06,.02-.12,.03-.19v-.16s.02-.06,.05-.07c.03,0,.06,.02,.07,.05v.2c0,.06-.02,.12-.03,.19,0,.03-.03,.05-.06,.05h0Zm-4.83-.1s-.05-.02-.06-.05c0-.03,.02-.06,.05-.07,.11-.02,.24-.04,.36-.06,.03,0,.06,.02,.07,.05,0,.03-.02,.06-.05,.07-.13,.02-.25,.04-.36,.06h-.01Zm.73-.12s-.05-.02-.06-.05c0-.03,.02-.06,.05-.07l.36-.06s.06,.02,.07,.05c0,.03-.02,.06-.05,.07l-.36,.06h-.01Zm.73-.13s-.05-.02-.06-.05c0-.03,.02-.06,.05-.07l.36-.06s.06,.02,.07,.05c0,.03-.02,.06-.05,.07l-.36,.06h-.01Zm.73-.13s-.05-.02-.06-.05c0-.03,.02-.06,.05-.07l.36-.07s.06,.02,.07,.05c0,.03-.02,.06-.05,.07l-.36,.07h0Zm.73-.13s-.05-.02-.06-.05c0-.03,.02-.06,.05-.07l.36-.07s.06,.02,.07,.05c0,.03-.02,.06-.05,.07l-.36,.07h0Zm1.78-.08s-.03,0-.04-.02c-.08-.08-.18-.13-.29-.14-.03,0-.06-.04-.05-.07,0-.03,.04-.05,.07-.05,.14,.02,.26,.08,.36,.18,.02,.02,.02,.06,0,.09,0,0-.03,.02-.04,.02h0Zm-1.05-.07s-.05-.02-.06-.05c0-.03,.02-.06,.05-.07l.36-.07s.06,.02,.07,.05c0,.03-.02,.06-.05,.07l-.36,.07h0Z"/>
        <path class="cls-5" d="M20.46,29.16c0,.09-.07,.17-.17,.17s-.17-.07-.17-.17,.07-.17,.17-.17,.17,.07,.17,.17Z"/>
        <path class="cls-5" d="M21.28,29.44c0,.09-.07,.17-.17,.17s-.17-.07-.17-.17,.07-.17,.17-.17,.17,.07,.17,.17Z"/>
        <path class="cls-5" d="M20.68,30.11c0,.09-.07,.17-.17,.17s-.17-.07-.17-.17,.07-.17,.17-.17,.17,.07,.17,.17Z"/>
        <path class="cls-5" d="M21.82,28.9c0,.09-.07,.17-.17,.17s-.17-.07-.17-.17,.07-.17,.17-.17,.17,.07,.17,.17Z"/>
        <circle class="cls-5" cx="22.47" cy="29.16" r=".17"/>
        <path class="cls-5" d="M22.03,29.85c0,.09-.07,.17-.17,.17s-.17-.07-.17-.17,.07-.17,.17-.17,.17,.07,.17,.17Z"/>
        <path class="cls-5" d="M23.27,28.65c0,.09-.07,.17-.17,.17s-.17-.07-.17-.17,.07-.17,.17-.17,.17,.07,.17,.17Z"/>
        <path class="cls-5" d="M24.14,28.95c0,.09-.07,.17-.17,.17s-.17-.07-.17-.17,.07-.17,.17-.17,.17,.07,.17,.17Z"/>
        <path class="cls-5" d="M23.49,29.59c0,.09-.07,.17-.17,.17s-.17-.07-.17-.17,.07-.17,.17-.17,.17,.07,.17,.17Z"/>
        <path class="cls-5" d="M24.77,28.39c0,.09-.07,.17-.17,.17s-.17-.07-.17-.17,.07-.17,.17-.17,.17,.07,.17,.17Z"/>
        <path class="cls-5" d="M24.98,29.33c0,.09-.07,.17-.17,.17s-.17-.07-.17-.17,.07-.17,.17-.17,.17,.07,.17,.17Z"/>
      </g>
    </g>
  </g>
</svg>