<?xml version="1.0" encoding="UTF-8"?>
<svg xmlns="http://www.w3.org/2000/svg" xmlns:xlink="http://www.w3.org/1999/xlink" viewBox="0 0 55.6 55.6">
  <defs>
    <style>
      .cls-1, .cls-2, .cls-3 {
        mix-blend-mode: multiply;
      }

      .cls-1, .cls-4 {
        fill: #edc8a4;
      }

      .cls-2 {
        fill: #973d22;
      }

      .cls-5 {
        fill: #795540;
      }

      .cls-6 {
        isolation: isolate;
      }

      .cls-7 {
        fill: #d4ab84;
      }

      .cls-3 {
        opacity: .54;
      }

      .cls-8 {
        fill: #523828;
      }

      .cls-9 {
        fill: #396eb3;
      }

      .cls-10 {
        fill: url(#Adsız_degrade_27);
      }

      .cls-11 {
        fill: #dfb48b;
      }

      .cls-12 {
        fill: #6f4e43;
      }
    </style>
    <linearGradient id="Adsız_degrade_27" data-name="Adsız degrade 27" x1="27.8" y1="55.6" x2="27.8" y2="0" gradientUnits="userSpaceOnUse">
      <stop offset="0" stop-color="#b99f6c"/>
      <stop offset=".6" stop-color="#eee6db"/>
    </linearGradient>
  </defs>
  <g class="cls-6">
    <g id="katman_2" data-name="katman 2">
      <g id="katman_1" data-name="katman 1">
        <g>
          <rect class="cls-10" x="0" y="0" width="55.6" height="55.6" rx="27.8" ry="27.8"/>
          <g>
            <g>
              <path class="cls-8" d="M38.01,36.24c-.11-.16-.19-.32-.23-.5-.02-.02-.04-.05-.03-.09,0,0,0-.01,0-.02-.05-.25-.04-.51,0-.77,.04-.56,.24-1.01,.56-1.44,.13,.67,.12,1.42-.27,1.93,0,0,0,0,0,0,.51,.14,1.04-.15,1.44-.55,.25-.35,.42-.78,.49-1.28,.13-.86-.13-2.25-1-2.69-.01-.07-.08-.12-.17-.08,0,0-.01,0-.02,0-.02,0-.03-.01-.05-.02-.05-.01-.09,.04-.07,.08-.15,.09-.25,.21-.35,.39-.26,.44-.91,.74-1.39,.74-.91-.01-1.83-.19-2.74-.29-1.05-.11-2.1-.35-3.14-.53-1.11-.19-2.21-.36-3.3-.61-1.89-.42-3.8-.8-5.69-1.2-1-.21-2.01-.39-3.02-.53-.45-.06-.91-.13-1.36-.18-.28-.03-.67-.11-.96-.06,.01-.02,.03-.04,.04-.06,0,0,0-.02-.01,0-.02,.03-.05,.05-.07,.07-.02,0-.04,0-.06,.01,0,0-.01,.02,0,.02,.01,0,.02,0,.03,0-.23,.26-.55,.45-.83,.65-.28,.2-.5,.46-.74,.7-.5,.52-.78,1.08-.92,1.78-.29,1.41,.34,2.93,1.58,3.68,.04,.02,.1-.03,.07-.07-.37-.5-.49-1.04-.51-1.59,0,.04,0,.08,.01,.13,.1,.69,.48,1.24,1.01,1.65,.29,.22,.59,.43,.88,.66,.18,.14,.33,.28,.48,.46,.03,.05,.06,.11,.09,.16,0,0,.01,.02,.01,.03,.02,.03,.03,.06,.05,.09,.07,.17,.06,.32,0,.45-.05,.22-.18,.44-.33,.62,.04,0,.09,0,.14-.02,.21,.1,.37,.12,.65-.13,.02-.02,.03-.04,.05-.06,.08,1.16,.66,2.24,1.81,2.55,0,.02,.02,.04,.02,.06,.06,.15,.14,.29,.21,.43,.34,.41,.97,.86,.69,1.37-.02,.04-.05,.08-.08,.12,.61,.03,.79-.58,.75-1.23,.18,.28,.4,.53,.69,.77,1.24,1.02,3.18,1.32,4.72,1.13,1.42-.18,2.9-.48,4.17-1.21,.26,.26,.84,.05,1.13-.02,.74-.19,1.42-.56,2.01-1.04,.39-.32,.78-.75,1.07-1.24-.1,.52-.34,.99-.83,1.31-.02,.01-.03,.03-.03,.04,.57-.14,1.09-.46,1.59-.77,.31-.3,.55-.65,.68-1.05,.2-.63,.15-1.15-.02-1.64,.68,.31,1.43,.06,2.07-.27,.05-.05,.09-.11,.13-.17-.09,0-.17-.02-.26-.05-.4-.03-.67-.29-.85-.62Z"/>
              <g>
                <g>
                  <path class="cls-4" d="M39.89,25.81c0,6.79-5.51,12.3-12.3,12.3s-12.3-5.51-12.3-12.3,5.51-12.3,12.3-12.3,12.3,5.51,12.3,12.3Z"/>
                  <g>
                    <path class="cls-11" d="M39.52,30.47c-.15-.23-.33-.43-.56-.58-.57-.38-1.51-.67-2.63,.31-.84,.73-1.22,1.88-1.34,2.95-.09,.75-.19,2.16,.8,2.37,.59,.12,1.26-.28,1.75-.57,.99-.6,2.2-1.79,2.33-3.01,.06-.51-.07-1.04-.34-1.47Z"/>
                    <path class="cls-11" d="M15.36,30.65c.14-.22,.32-.41,.54-.56,.55-.37,1.46-.64,2.54,.3,.81,.71,1.17,1.81,1.29,2.85,.08,.72,.18,2.09-.77,2.29-.57,.12-1.22-.27-1.69-.56-.96-.58-2.12-1.73-2.25-2.91-.05-.49,.06-1.01,.33-1.42Z"/>
                  </g>
                  <path class="cls-4" d="M16.09,22.85s2.96,14.17,2.98,14.28c.7,3.37,5.22,7.6,8.52,7.46,3.29,.13,7.81-4.1,8.52-7.46,.02-.11,2.98-14.28,2.98-14.28H16.09Z"/>
                </g>
                <polygon class="cls-7" points="29.05 36.76 27.59 37.62 26.13 36.76 29.05 36.76"/>
              </g>
              <path class="cls-9" d="M19.31,36.77s-.05,.06-.01,.06c.03,0,.05-.06,.01-.06Z"/>
              <path class="cls-12" d="M42.07,25.68c.29-.91,.34-1.92-.13-2.77-.07-.13-.17-.25-.27-.36,.02-.04,.03-.07,.05-.11,.44-.88,.2-2.19-.1-3.08-.27-.79-.77-1.45-1.38-1.99-.18-1.38-.8-2.64-2.16-3.36-.23-.12-.47-.21-.72-.27-.08-.2-.18-.39-.31-.58-.48-.65-1.44-1.08-2.21-1.23-.9-.17-1.89,.19-2.63,.82-.18-.48-.46-.88-.89-1.24-.86-.71-1.89-.63-2.7-.1-.08-.03-.16-.06-.24-.09-1.43-.46-3.25-.39-4.69-.02-1.54,.4-2.9,1.22-3.83,2.52-.15,.21-.29,.42-.43,.63-1.14,.66-2.17,1.55-2.79,2.66-.26,.47-.48,.99-.63,1.54-.52,.35-.99,.78-1.41,1.32-.71,.92-1.21,2.38-1.28,3.53-.04,.6,.02,1.2,.16,1.78,.24,.61,.56,1.19,.88,1.77,.34,.61,.8,1.34,.85,2.06,.06,.8-.75,1.4-1.27,.99,.15,.55,.57,1.18,1.22,.87,.23-.11,.43-.25,.6-.42,.04,.21,.11,.41,.2,.62,.3,.65,.6,1.11,1.16,1.56,.61,.5,1.07,.97,1.28,1.68,.06,.13,.11,.27,.16,.4,0-.01,0-.02,0-.03,.04,.11,.07,.22,.12,.33,.04,.11,.07,.22,.11,.32-.01-.11-.02-.22-.03-.33-.02-.12-.05-.24-.06-.36-.05-.2-.09-.4-.14-.61-.07-.49-.12-.98-.16-1.45-.08-.91-.09-1.86-.07-2.77,.02-.85-.02-1.7-.02-2.55,0-.87,0-2.01,.58-2.73,.09-.24,.23-.45,.41-.61,0,0-.02,0-.03,0-.21,0-.39,.1-.58,.17,.17-.24,.38-.45,.58-.66,.04-.04,.08-.07,.12-.1,.08-.16,.2-.31,.34-.43-.21-.07-.42-.04-.62,0,.12-.08,.25-.14,.39-.2,.18-.07,.35-.15,.53-.23,.03-.01,.05-.02,.08-.03,.53-.13,1.07-.25,1.62-.2,.48,.04,.97,.07,1.45,.12,.34,.04,.76,.25,1.1,.23,.03,0,.04-.03,.05-.06,0-.1-.05-.14-.15-.18-.23-.09-.45-.2-.67-.3,.07,.02,.14,.03,.21,.05,.7,.18,1.3,.62,1.8,1.11,.02,.02,.04,0,.04-.03-.03-.28-.15-.59-.31-.87,.35,.23,.68,.48,.98,.76,.16,.15,.35,.64,.58,.69,.05,.01,.09-.02,.1-.07,.02-.06,.03-.13,.04-.21,.27-.3,.5-.62,.81-.9,.13-.12,.27-.21,.42-.3-.09,.15-.17,.31-.23,.46-.02,.05,.03,.1,.08,.06,.43-.35,1.14-.75,1.75-.75-.21,.14-.41,.32-.58,.5-.05,.05,0,.15,.07,.11,.92-.46,2.12-.71,3.15-.76,.44-.02,.88-.03,1.32,0,.45,.03,.79,.18,1.17,.35,.17,.15,.33,.3,.46,.47-.22-.12-.43-.24-.68-.19,0,0-.01,0-.02,.01,.13,.16,.25,.32,.38,.48,.29,.2,.56,.52,.72,.86-.23-.11-.39-.35-.67-.36-.02,0-.03,0-.04,.01,.28,.3,.55,.58,.75,.97,.06,.09,.12,.2,.18,.31,.73,1.18,1.08,2.72,1.03,4.01-.05,1.35-.28,2.69-.36,4.04-.03,.61-.06,1.21-.08,1.82,.02-.05,.03-.1,.05-.15,.12-.43,.3-.85,.59-1.18,.39-.54,1.14-.95,1.53-1.36,.17-.18,.33-.4,.47-.64,.03-.05,.07-.09,.1-.14,.07-.1,.11-.23,.14-.36,.02-.05,.04-.09,.06-.14,.73,.5,1.38-.12,1.69-.77-.26,.12-.56,.14-.85,0-.28-.14-.48-.41-.52-.69-.18-.44,.18-.98,.48-1.3,.68-.74,1.46-1.38,1.78-2.37Z"/>
              <g class="cls-3">
                <path class="cls-5" d="M37.75,28.85c-.41-1.13,.04-1.26,.04-1.26,0,.53,.6,.92,.6,.92-.56-1.66,1.39-3.03,1.11-4.2-.28-1.17-1.19-.94-1.19-.94,.73-.73,1.92-.15,1.92-.15-1.17-1.3-3.03-.47-3.03-.47,.3-1.13,1.36-1.49,1.36-1.49,1.22-.7,2.65,.52,2.65,.52-.17-.95-1.22-1.31-1.22-1.31-2.08-.72-3.34,.27-3.34,.27,.13-.45,.66-1.05,2.13-1.32,1.47-.28,2.43,1.09,2.43,1.09-1.41-3.24-4.67-1.28-5.95-.53-1.28,.75-1.6,.53-1.6,.53,.51-.34,.3-.77,.62-2.47,.32-1.71,1.62-2.26,1.62-2.26-.6,0-1.83,.77-2.28,2.59-.45,1.82-2.04,2.04-2.04,2.04,1.06-.62,1.05-3.29,1.52-4.97,.47-1.69,3.34-1.8,3.34-1.8-5.44-1.83-5.94,5.36-5.94,5.36-.59-1.05-.18-3.15-.18-3.15,0,0-.18,.96-1.27,2.07-1.09,1.11-.94,1.98-.94,1.98-.28-.7-.11-1.43,1-3.14,1.11-1.71,.26-3.07,.26-3.07,.28,1.58-1.94,3.31-2.9,4.49-.96,1.18-.37,2.46-.37,2.46-.88-1.17,1.16-4.74-.42-7.12-1.58-2.39-4.19-.29-4.19-.29,1.75-.8,2.14,.95,2.14,.95-.73-.9-2.74,.36-2.74,.36,1.07-.39,2.52,.84,1.47,2.76-1.05,1.92,.21,2.9,.21,2.9-.96,.08-1.6-.85-1.6-.85,.23,1.26,1.6,1.6,1.6,1.6-1.88,.25-2.45-1.6-4.75-1.95-2.3-.35-3.03,1.82-3.03,1.82,.49-.81,1.71-1,2.94,0,1.24,1,2.07,.81,2.07,.81-1.47,1.34-2.03,.68-4.07,1.02-2.05,.34-1.92,2.33-1.92,2.33,.11-.41,.68-1.3,1.71-1.17,1.03,.13,2.07-.17,2.07-.17-1.69,.72-1.58,2.62-1.58,2.62,.23-.73,2.03-1.43,2.03-1.43-1.36,.85-.38,2.99-.96,4.37-.58,1.39,.34,2.64,.34,2.64-.57-.34-.73-1.22-.88-2.4-.15-1.18-.96-1.23-.96-1.23,.4,.87,.34,1.88-.45,2.33-.78,.45-1.13-.4-1.13-.4h0s-.03-.02-.05-.03c.15,.55,.57,1.18,1.22,.87,.23-.11,.43-.25,.6-.42,.04,.21,.11,.41,.2,.62,.3,.65,.6,1.11,1.16,1.56,.61,.5,1.07,.97,1.28,1.68,.06,.13,.11,.27,.16,.4,0-.01,0-.02,0-.03,.04,.11,.07,.22,.12,.33,.04,.11,.07,.22,.11,.32-.01-.11-.02-.22-.03-.33-.02-.12-.05-.24-.06-.36-.05-.2-.09-.4-.14-.61-.07-.49-.12-.98-.16-1.45-.08-.91-.09-1.86-.07-2.77,.02-.85-.02-1.7-.02-2.55,0-.87,0-2.01,.58-2.73,.09-.24,.23-.45,.41-.61,0,0-.02,0-.03,0-.21,0-.39,.1-.58,.17,.17-.24,.38-.45,.58-.66,.04-.04,.08-.07,.12-.1,.08-.16,.2-.31,.34-.43-.21-.07-.42-.04-.62,0,.12-.08,.25-.14,.39-.2,.18-.07,.35-.15,.53-.23,.03-.01,.05-.02,.08-.03,.53-.13,1.07-.25,1.62-.2,.48,.04,.97,.07,1.45,.12,.34,.04,.76,.25,1.1,.23,.03,0,.04-.03,.05-.06,0-.1-.05-.14-.15-.18-.23-.09-.45-.2-.67-.3,.07,.02,.14,.03,.21,.05,.7,.18,1.3,.62,1.8,1.11,.02,.02,.04,0,.04-.03-.03-.28-.15-.59-.31-.87,.35,.23,.68,.48,.98,.76,.16,.15,.35,.64,.58,.69,.05,.01,.09-.02,.1-.07,.02-.06,.03-.13,.04-.21,.27-.3,.5-.62,.81-.9,.13-.12,.27-.21,.42-.3-.09,.15-.17,.31-.23,.46-.02,.05,.03,.1,.08,.06,.43-.35,1.14-.75,1.75-.75-.21,.14-.41,.32-.58,.5-.05,.05,0,.15,.07,.11,.92-.46,2.12-.71,3.15-.76,.44-.02,.88-.03,1.32,0,.45,.03,.79,.18,1.17,.35,.17,.15,.33,.3,.46,.47-.22-.12-.43-.24-.68-.19,0,0-.01,0-.02,.01,.13,.16,.25,.32,.38,.48,.29,.2,.56,.52,.72,.86-.23-.11-.39-.35-.67-.36-.02,0-.03,0-.04,.01,.28,.3,.55,.58,.75,.97,.06,.09,.12,.2,.18,.31,.73,1.18,1.08,2.72,1.03,4.01-.05,1.35-.28,2.69-.36,4.04-.03,.61-.06,1.21-.08,1.82,.02-.05,.03-.1,.05-.15,.12-.43,.3-.85,.59-1.18,.39-.54,1.14-.95,1.53-1.36,.17-.18,.33-.4,.47-.64,.03-.05,.07-.09,.1-.14,.07-.1,.11-.23,.14-.36,.02-.05,.04-.09,.06-.14,.73,.5,1.38-.12,1.69-.77-.04,.02-.09,.04-.13,.05-1.23,1.05-2.9-.12-3.3-1.25Z"/>
              </g>
              <g>
                <path class="cls-2" d="M20.67,21.76c-.7,.51-1.44,.84-2.27,1.06-.77,.2-1.53,.17-2.32,.19-.84,.02-1.82,.56-2.09,1.38,0,.03,.03,.03,.04,0,.57-1.39,2.33-1.04,3.51-1.16,1.15-.12,2.25-.74,3.12-1.46,0,0,0-.01,0,0Z"/>
                <path class="cls-2" d="M26.37,22.52c-1.07-.3-1.49-1.12-1.94-2.05-.49-1.02-.43-2.14-.41-3.25,.02-.78,.37-3.23-1.12-3.04,0,0,0,0,0,0,1.2-.07,.94,1.66,.87,2.38-.08,.85-.13,1.69,.11,2.52,.37,1.32,.95,3.12,2.46,3.47,.02,0,.04-.03,.02-.04Z"/>
                <path class="cls-2" d="M26.06,14.67c-.08-.93-.56-1.55-1.31-2.07-.6-.41-1.79-.29-2.43-.05-.85,.32-1.5,1.17-1.84,1.98,0,0,0,0,0,0,.4-.87,1.1-1.59,2.05-1.85,.81-.22,1.83,.03,2.44,.55,.69,.58,.86,1.52,.97,2.37,.12,.9-.05,1.78-.1,2.67,0,.01,.02,0,.02,0,.11-1.22,.31-2.37,.2-3.61Z"/>
                <path class="cls-2" d="M29.25,11.67s-.03,.02-.02,.03c.67,.48,.76,1.61,.74,2.35-.02,.7-.16,1.88-.73,2.4,0,0,0,.01,0,0,.6-.5,.84-1.73,.9-2.44,.07-.81-.08-1.93-.89-2.35Z"/>
                <path class="cls-2" d="M34.82,12.27c-.94-.02-1.64,.38-2.37,.92-1.54,1.14-1.99,3.16-1.95,4.96,0,.03,.04,.02,.04,0,.06-1.53,.46-3.06,1.46-4.25,.46-.54,1.11-1,1.76-1.29,.78-.34,2.21-.39,2.67,.49,0,0,0,0,0,0-.26-.59-1.02-.81-1.62-.82Z"/>
                <path class="cls-2" d="M36.23,13.75c-.87-.23-1.69-.13-2.53,.19-.99,.38-1.63,1.29-2.03,2.24-.4,.94-.47,2.04-.79,3.02-.23,.71-.54,1.39-1.13,1.86-.47,.37-1.16,.69-1.75,.77,0,0,0,0,0,0,.67,.01,1.45-.38,1.99-.75,.79-.53,1.09-1.64,1.33-2.5,.33-1.19,.44-2.38,1.2-3.39,.88-1.17,2.27-1.75,3.7-1.41,.02,0,.04-.03,.02-.03Z"/>
                <path class="cls-2" d="M36.93,19.37c-.9,.32-1.65,.8-2.48,1.26-.46,.25-.94,.42-1.44,.54-.4,.1-1.01,.25-1.42,.15,0,0,0,0,0,0,.49,.15,1.14-.01,1.64-.09,.67-.11,1.37-.39,1.94-.75,1.3-.81,4.17-2.08,5.24-.37,.03,.06,.12,0,.1-.06-.54-1.49-2.38-1.1-3.56-.67Z"/>
                <path class="cls-2" d="M39.98,20.47c-.84-.35-1.72-.14-2.58-.02,0,0,0,0,0,0,.75-.07,1.44-.2,2.18,.02,.78,.22,1.47,.77,1.72,1.56,.01,.04,.07,.01,.06-.02-.11-.77-.7-1.26-1.39-1.54Z"/>
                <path class="cls-2" d="M22.56,21.31c-.88,.27-1.89-.39-2.61-.84-.62-.4-1.14-.83-1.84-1.09-1.13-.42-2.16-.05-2.85,.89-.04,.05,.02,.09,.06,.05,1.33-1.4,2.9-.73,4.31,.15,.8,.5,1.95,1.2,2.92,.86,0,0,0-.01,0,0Z"/>
              </g>
            </g>
            <g>
              <path class="cls-1" d="M31.38,38.28c0-.06,.01-.11,0-.17,0-.13-.17-.12-.24-.04-.03,.04-.06,.08-.07,.12-.56,0-1.12-.15-1.67-.19-.69-.05-1.37-.03-2.06,0-.66,.02-1.32,.04-1.97,.15-.32,.05-.74,.26-1.06,.12h0c-.09-.03-.24,.09-.18,.19,.08,.15,.32,.13,.46,.11,.21-.02,.41-.07,.61-.12,.63-.16,1.29-.18,1.94-.21,.71-.03,1.42-.05,2.12,0,.61,.04,1.21,.16,1.81,.19,.07,.11,.3,0,.3-.14,0,0,0,0,0,0Z"/>
              <path class="cls-1" d="M28.42,38.89c-.27-.01-.53,.01-.8,.04-.13,.01-.25,.03-.38,.05-.03,0-.06,.01-.1,.02,0,0-.02,0-.03,0-.14,0-.32,.17-.18,.29,.18,.17,.38,.35,.61,.47,.06,.03,.12,.06,.19,.06,.08,0,.16-.03,.22-.07,.13-.08,.23-.21,.32-.33,.08-.11,.16-.22,.23-.34,.05-.09,.02-.19-.09-.2Z"/>
            </g>
          </g>
        </g>
      </g>
    </g>
  </g>
</svg>