<?xml version="1.0" encoding="UTF-8"?>
<svg id="katman_2" data-name="katman 2" xmlns="http://www.w3.org/2000/svg" xmlns:xlink="http://www.w3.org/1999/xlink" viewBox="0 0 115.78 60.96">
  <defs>
    <style>
      .cls-1 {
        fill: url(#Adsız_degrade_11-13);
      }

      .cls-2 {
        fill: url(#Adsız_degrade_11-7);
      }

      .cls-3 {
        fill: url(#Adsız_degrade_11);
      }

      .cls-4 {
        fill: url(#Adsız_degrade_11-9);
      }

      .cls-5 {
        fill: url(#Adsız_degrade_11-4);
      }

      .cls-6 {
        fill: url(#Adsız_degrade_11-2);
      }

      .cls-7 {
        fill: url(#Adsız_degrade_11-14);
      }

      .cls-8 {
        stroke: url(#Adsız_degrade_11-20);
      }

      .cls-8, .cls-9, .cls-10, .cls-11 {
        fill: none;
        stroke-miterlimit: 10;
      }

      .cls-9 {
        stroke: url(#Adsız_degrade_11-17);
      }

      .cls-12 {
        fill: url(#Adsız_degrade_11-15);
      }

      .cls-13 {
        fill: url(#Adsız_degrade_11-16);
      }

      .cls-14 {
        fill: url(#Adsız_degrade_11-12);
      }

      .cls-15 {
        fill: url(#Adsız_degrade_11-6);
      }

      .cls-16 {
        fill: url(#Adsız_degrade_11-10);
      }

      .cls-17 {
        fill: url(#Adsız_degrade_11-5);
      }

      .cls-18 {
        fill: url(#Adsız_degrade_11-11);
      }

      .cls-10 {
        stroke: url(#Adsız_degrade_11-19);
      }

      .cls-11 {
        stroke: url(#Adsız_degrade_11-18);
      }

      .cls-19 {
        fill: url(#Adsız_degrade_11-3);
      }

      .cls-20 {
        fill: url(#Adsız_degrade_11-8);
      }
    </style>
    <linearGradient id="Adsız_degrade_11" data-name="Adsız degrade 11" x1="0" y1="13.3" x2="90.62" y2="13.3" gradientUnits="userSpaceOnUse">
      <stop offset="0" stop-color="#b99f6c"/>
      <stop offset=".6" stop-color="#eee6db"/>
    </linearGradient>
    <linearGradient id="Adsız_degrade_11-2" data-name="Adsız degrade 11" x1="9.19" y1="46.15" x2="73.12" y2="46.15" xlink:href="#Adsız_degrade_11"/>
    <linearGradient id="Adsız_degrade_11-3" data-name="Adsız degrade 11" x1="42.83" y1="56.36" x2="45.66" y2="56.36" xlink:href="#Adsız_degrade_11"/>
    <linearGradient id="Adsız_degrade_11-4" data-name="Adsız degrade 11" x1="33.15" y1="55.88" x2="37.02" y2="55.88" xlink:href="#Adsız_degrade_11"/>
    <linearGradient id="Adsız_degrade_11-5" data-name="Adsız degrade 11" x1="24.48" y1="54.08" x2="30.21" y2="54.08" xlink:href="#Adsız_degrade_11"/>
    <linearGradient id="Adsız_degrade_11-6" data-name="Adsız degrade 11" x1="16.17" y1="51.64" x2="23.09" y2="51.64" xlink:href="#Adsız_degrade_11"/>
    <linearGradient id="Adsız_degrade_11-7" data-name="Adsız degrade 11" x1="9.19" y1="48.89" x2="16.85" y2="48.89" xlink:href="#Adsız_degrade_11"/>
    <linearGradient id="Adsız_degrade_11-8" data-name="Adsız degrade 11" x1="49.56" y1="55.7" x2="54.93" y2="55.7" xlink:href="#Adsız_degrade_11"/>
    <linearGradient id="Adsız_degrade_11-9" data-name="Adsız degrade 11" x1="56.19" y1="52.77" x2="63.34" y2="52.77" xlink:href="#Adsız_degrade_11"/>
    <linearGradient id="Adsız_degrade_11-10" data-name="Adsız degrade 11" x1="62.65" y1="48.78" x2="70.96" y2="48.78" xlink:href="#Adsız_degrade_11"/>
    <linearGradient id="Adsız_degrade_11-11" data-name="Adsız degrade 11" x1="67.83" y1="44.32" x2="76.77" y2="44.32" xlink:href="#Adsız_degrade_11"/>
    <linearGradient id="Adsız_degrade_11-12" data-name="Adsız degrade 11" x1="76.01" y1="37.76" x2="105.8" y2="37.76" xlink:href="#Adsız_degrade_11"/>
    <linearGradient id="Adsız_degrade_11-13" data-name="Adsız degrade 11" x1="101.79" y1="45.29" x2="113.07" y2="45.29" gradientTransform="translate(104.07 -71.25) rotate(65.49)" xlink:href="#Adsız_degrade_11"/>
    <linearGradient id="Adsız_degrade_11-14" data-name="Adsız degrade 11" x1="109.18" y1="47.59" x2="115.78" y2="47.59" gradientTransform="translate(109.09 -74.49) rotate(65.47)" xlink:href="#Adsız_degrade_11"/>
    <linearGradient id="Adsız_degrade_11-15" data-name="Adsız degrade 11" x1="71.94" y1="30.95" x2="81.35" y2="30.95" xlink:href="#Adsız_degrade_11"/>
    <linearGradient id="Adsız_degrade_11-16" data-name="Adsız degrade 11" x1="57.58" y1="26.02" x2="74.65" y2="26.02" gradientTransform="translate(62.36 -44.93) rotate(65.49)" xlink:href="#Adsız_degrade_11"/>
    <linearGradient id="Adsız_degrade_11-17" data-name="Adsız degrade 11" x1="17.49" y1="33.92" x2="39.49" y2="33.92" xlink:href="#Adsız_degrade_11"/>
    <linearGradient id="Adsız_degrade_11-18" data-name="Adsız degrade 11" x1="46.49" y1="33.92" x2="68.49" y2="33.92" xlink:href="#Adsız_degrade_11"/>
    <linearGradient id="Adsız_degrade_11-19" data-name="Adsız degrade 11" x1="36.49" y1="33.92" x2="49.49" y2="33.92" xlink:href="#Adsız_degrade_11"/>
    <linearGradient id="Adsız_degrade_11-20" data-name="Adsız degrade 11" x1="31.49" y1="33.92" x2="54.49" y2="33.92" xlink:href="#Adsız_degrade_11"/>
  </defs>
  <g id="katman_1" data-name="katman 1">
    <g>
      <path class="cls-3" d="M6.42,26.61c-1.3,0-2.6-.4-3.69-1.17-1.71-1.2-2.73-3.16-2.73-5.25,0-2.54,1.5-4.84,3.81-5.86C10.79,11.23,28.22,3.76,39.37,1.14c14.06-3.3,40.37-.38,51.11,21.51,.31,.63,.11,1.4-.48,1.8-.59,.4-1.37,.3-1.85-.23-3.54-3.95-21.24-11.37-30.67-12.15-4.86-.38-23.16,4.89-48.9,14.16-.71,.25-1.44,.38-2.17,.38ZM49.89,2.82c-3.45,0-6.8,.36-9.87,1.08C29.1,6.46,11.86,13.85,4.96,16.91c-1.29,.57-2.13,1.86-2.13,3.28,0,1.18,.56,2.25,1.52,2.93,.97,.68,2.16,.84,3.28,.44,15.56-5.6,42.76-14.92,50.09-14.32,7.02,.57,19.22,4.9,26.77,9.02-5.58-7.41-13.15-11.16-19.02-13.05-4.95-1.59-10.36-2.4-15.57-2.4Z"/>
      <path class="cls-6" d="M43.99,54.58c-13.91,0-33.11-9.51-34.02-9.97-.7-.35-.98-1.2-.63-1.9,.35-.7,1.2-.98,1.9-.63,.25,.12,24.63,12.2,37.32,9.2,12.74-3.02,22.02-13,22.11-13.1,.53-.58,1.42-.62,2-.09,.58,.53,.62,1.42,.09,2-.4,.44-9.93,10.72-23.54,13.95-1.61,.38-3.36,.55-5.21,.55Z"/>
      <path class="cls-19" d="M44.24,60.96c-.78,0-1.42-.63-1.42-1.42v-6.38c0-.78,.63-1.42,1.42-1.42s1.42,.63,1.42,1.42v6.38c0,.78-.63,1.42-1.42,1.42Z"/>
      <path class="cls-5" d="M34.56,60.96c-.07,0-.13,0-.2-.01-.77-.11-1.31-.83-1.2-1.6l1.04-7.32c.11-.77,.82-1.31,1.6-1.2,.77,.11,1.31,.83,1.2,1.6l-1.04,7.32c-.1,.71-.71,1.22-1.4,1.22Z"/>
      <path class="cls-17" d="M25.9,59.07c-.18,0-.36-.03-.53-.1-.72-.29-1.07-1.12-.78-1.84l2.9-7.16c.29-.72,1.12-1.07,1.84-.78,.72,.29,1.07,1.12,.78,1.84l-2.9,7.16c-.22,.55-.75,.89-1.31,.89Z"/>
      <path class="cls-15" d="M17.59,56.61c-.24,0-.48-.06-.7-.19-.68-.39-.91-1.25-.52-1.93l4.09-7.11c.39-.68,1.26-.91,1.93-.52,.68,.39,.91,1.25,.52,1.93l-4.09,7.11c-.26,.46-.74,.71-1.23,.71Z"/>
      <path class="cls-2" d="M10.6,53.64c-.29,0-.58-.09-.83-.27-.63-.46-.77-1.34-.32-1.98l4.83-6.66c.46-.63,1.34-.77,1.98-.32,.63,.46,.77,1.34,.32,1.98l-4.83,6.66c-.28,.38-.71,.58-1.15,.58Z"/>
      <path class="cls-20" d="M53.52,60.58c-.58,0-1.12-.36-1.33-.93l-2.54-6.95c-.27-.73,.11-1.55,.84-1.82,.73-.27,1.55,.11,1.82,.84l2.54,6.95c.27,.73-.11,1.55-.84,1.82-.16,.06-.32,.09-.49,.09Z"/>
      <path class="cls-4" d="M61.93,57.38c-.45,0-.9-.22-1.17-.62l-4.33-6.4c-.44-.65-.27-1.53,.38-1.97,.65-.44,1.53-.27,1.97,.38l4.33,6.4c.44,.65,.27,1.53-.38,1.97-.24,.16-.52,.24-.79,.24Z"/>
      <path class="cls-16" d="M69.55,53.25c-.39,0-.77-.16-1.05-.47l-5.48-6.11c-.52-.58-.47-1.48,.11-2,.58-.52,1.48-.47,2,.11l5.48,6.11c.52,.58,.47,1.48-.11,2-.27,.24-.61,.36-.94,.36Z"/>
      <path class="cls-18" d="M75.36,48.49c-.34,0-.68-.12-.95-.36l-6.11-5.51c-.58-.52-.63-1.42-.1-2,.52-.58,1.42-.63,2-.1l6.11,5.51c.58,.52,.63,1.42,.1,2-.28,.31-.66,.47-1.05,.47Z"/>
      <path class="cls-14" d="M100.37,48.81c-.2,0-.4-.04-.59-.13l-22.95-10.46c-.71-.32-1.02-1.16-.7-1.87l4.02-8.81c.16-.34,.44-.61,.79-.74,.35-.13,.74-.12,1.08,.04l22.95,10.47c.34,.16,.61,.44,.74,.79,.13,.35,.12,.74-.04,1.08l-4.02,8.81c-.24,.52-.75,.83-1.29,.83Zm-21.07-12.58l20.37,9.29,2.84-6.23-20.37-9.29-2.84,6.24Z"/>
      <rect class="cls-1" x="106.02" y="39.74" width="2.83" height="11.1" transform="translate(21.65 124.25) rotate(-65.49)"/>
      <rect class="cls-7" x="107.64" y="46.18" width="9.68" height="2.83" transform="translate(22.49 130.17) rotate(-65.47)"/>
      <path class="cls-12" d="M78.17,35.73l-5.4-2.46c-.34-.16-.61-.44-.74-.79-.13-.35-.12-.74,.04-1.08l2.01-4.41c.32-.71,1.16-1.03,1.87-.7l5.4,2.46-1.17,2.57-4.11-1.87-.83,1.83,4.11,1.88-1.17,2.57Z"/>
      <rect class="cls-13" x="65.41" y="16.96" width="1.42" height="18.12" transform="translate(15.01 75.39) rotate(-65.49)"/>
    </g>
    <g>
      <path class="cls-9" d="M29.99,33.92c0-4.74,2.55-8.88,6.35-11.15-10.24,2.56-17.69,10.07-18.07,10.45-.38,.39-.38,1.01,0,1.4,.37,.38,7.83,7.89,18.07,10.45-3.8-2.27-6.35-6.41-6.35-11.15Z"/>
      <path class="cls-11" d="M67.7,33.22c-.37-.38-7.83-7.89-18.07-10.45,3.8,2.27,6.35,6.41,6.35,11.15s-2.55,8.88-6.35,11.15c10.24-2.56,17.69-10.07,18.07-10.45,.38-.39,.38-1.01,0-1.4Z"/>
      <path class="cls-10" d="M42.99,27.92c-.71,0-1.39,.12-2.04,.35,.24,.99-.04,2.06-.8,2.82-.75,.76-1.82,1.03-2.81,.79-.24,.65-.35,1.33-.35,2.04,0,3.31,2.69,6,6,6s6-2.69,6-6-2.69-6-6-6Z"/>
      <path class="cls-8" d="M53.99,33.92c0-6.07-4.93-11-11-11s-11,4.93-11,11,4.93,11,11,11,11-4.93,11-11Zm-11,8c-4.41,0-8-3.59-8-8,0-1.36,.33-2.65,.98-3.84,.14-.26,.39-.44,.67-.5,.29-.06,.58,0,.81,.19,.39,.3,.93,.26,1.28-.09,.36-.36,.4-.9,.1-1.29-.18-.23-.25-.53-.19-.81,.06-.29,.24-.53,.5-.67,1.19-.65,2.48-.98,3.84-.98,4.41,0,8,3.59,8,8s-3.59,8-8,8Z"/>
    </g>
  </g>
</svg>