<?xml version="1.0" encoding="UTF-8"?>
<svg id="katman_2" data-name="katman 2" xmlns="http://www.w3.org/2000/svg" xmlns:xlink="http://www.w3.org/1999/xlink" viewBox="0 0 76.94 113.31">
  <defs>
    <style>
      .cls-1 {
        fill: url(#Adsız_degrade_11);
      }
    </style>
    <linearGradient id="Adsız_degrade_11" data-name="Adsız degrade 11" x1="0" y1="56.65" x2="76.94" y2="56.65" gradientUnits="userSpaceOnUse">
      <stop offset="0" stop-color="#b99f6c"/>
      <stop offset=".6" stop-color="#eee6db"/>
    </linearGradient>
  </defs>
  <g id="katman_1" data-name="katman 1">
    <path class="cls-1" d="M76.94,39.77c0-2.11-.47-3.98-1.7-5.29-1.84-1.97-3.41-2.01-4.4-1.7-.4,.13-.75,.33-1.08,.58C69.45,14.91,55.53,0,38.47,0S7.47,14.94,7.18,33.37c-.32-.26-.68-.46-1.08-.59-1-.31-2.56-.27-4.4,1.7-4.45,4.76,1,16.89,3.09,21.06-.94,3.84-1.54,10.99-.38,24.35,2.1,24.19,25.96,32.1,32.59,33.27,.32,.07,.61,.11,.85,.15,.23-.04,.52-.08,.85-.15,6.63-1.17,30.5-9.08,32.59-33.27,1.06-12.17,.98-19.02,.19-23.07,.7-1.3,5.46-10.38,5.46-17.05Zm-38.24,37.21s-.05-.09-.07-.14h-1.55c-.03,.05-.05,.11-.08,.16-2.7,5.31-11.79,2.56-11.47-1.79,.31-4.19,11.31-5.26,12.29-5.36h.07c.97,.1,11.96,1.17,12.27,5.36,.34,4.35-8.77,7.11-11.46,1.77Zm29.69-25.86s-7.17,7.8-7.82,13.98-7.8,2.15-7.8,2.15c0,0-9.51-8.22-14.88-4.91v.04s-.02-.01-.03-.02c-.01,0-.03,.01-.04,.02v-.04c-5.37-3.31-14.88,4.91-14.88,4.91,0,0-7.16,4.03-7.8-2.15-.66-6.18-7.83-13.98-7.83-13.98,0,0-.41,.05-.95,.72-2.56-5.69-4.72-12.91-2.47-15.31,.77-.82,1.21-.91,1.31-.88,.62,.19,1.49,2.26,1.79,4.25l2.98-.16,.21-5.74C10.18,16.9,22.87,3,38.47,3s28.3,13.9,28.3,31.05l.2,5.69,2.98,.16c.29-1.95,1.17-4.06,1.79-4.25,.1-.03,.54,.06,1.31,.88,2.4,2.56-.24,10.65-3,16.47-.85-1.78-1.66-1.88-1.66-1.88Zm-23.54-12.91s4.84-8.56,16-2.6c-1.58,.17-9.91,.82-11.49,2.34l-4.51,.26Zm-18.51-.26c-1.58-1.51-9.91-2.17-11.49-2.34,11.16-5.96,16,2.6,16,2.6l-4.51-.26Z"/>
  </g>
</svg>