<?xml version="1.0" encoding="UTF-8"?>
<svg id="katman_2" data-name="katman 2" xmlns="http://www.w3.org/2000/svg" xmlns:xlink="http://www.w3.org/1999/xlink" viewBox="0 0 175.87 176.42">
  <defs>
    <style>
      .cls-1 {
        fill: url(#Adsız_degrade_48-4);
      }

      .cls-2 {
        fill: url(#Adsız_degrade_48-6);
      }

      .cls-3 {
        fill: url(#Adsız_degrade_48);
      }

      .cls-4 {
        fill: url(#Adsız_degrade_48-10);
      }

      .cls-5 {
        fill: url(#Adsız_degrade_48-8);
      }

      .cls-6 {
        fill: url(#Adsız_degrade_48-9);
      }

      .cls-7 {
        fill: url(#Adsız_degrade_48-5);
      }

      .cls-8 {
        fill: url(#Adsız_degrade_48-11);
      }

      .cls-9 {
        fill: url(#Adsız_degrade_48-7);
      }

      .cls-10 {
        fill: url(#Adsız_degrade_48-2);
      }

      .cls-11 {
        fill: url(#Adsız_degrade_48-3);
      }
    </style>
    <linearGradient id="Adsız_degrade_48" data-name="Adsız degrade 48" x1="21.45" y1="88.21" x2="175.87" y2="88.21" gradientUnits="userSpaceOnUse">
      <stop offset=".58" stop-color="#eee6db"/>
      <stop offset="1" stop-color="#b99f6c"/>
    </linearGradient>
    <linearGradient id="Adsız_degrade_48-2" data-name="Adsız degrade 48" x1="56.78" y1="17.02" x2="62.69" y2="17.02" xlink:href="#Adsız_degrade_48"/>
    <linearGradient id="Adsız_degrade_48-3" data-name="Adsız degrade 48" x1="102.5" y1="10.32" x2="108.41" y2="10.32" xlink:href="#Adsız_degrade_48"/>
    <linearGradient id="Adsız_degrade_48-4" data-name="Adsız degrade 48" x1="122.74" y1="18.28" x2="128.65" y2="18.28" xlink:href="#Adsız_degrade_48"/>
    <linearGradient id="Adsız_degrade_48-5" data-name="Adsız degrade 48" x1="105.03" y1="24.51" x2="110.94" y2="24.51" xlink:href="#Adsız_degrade_48"/>
    <linearGradient id="Adsız_degrade_48-6" data-name="Adsız degrade 48" x1="118.88" y1="33.93" x2="124.79" y2="33.93" xlink:href="#Adsız_degrade_48"/>
    <linearGradient id="Adsız_degrade_48-7" data-name="Adsız degrade 48" x1="103.76" y1="56.28" x2="109.67" y2="56.28" xlink:href="#Adsız_degrade_48"/>
    <linearGradient id="Adsız_degrade_48-8" data-name="Adsız degrade 48" x1="100.27" y1="39.85" x2="106.18" y2="39.85" xlink:href="#Adsız_degrade_48"/>
    <linearGradient id="Adsız_degrade_48-9" data-name="Adsız degrade 48" x1="86.97" y1="17.02" x2="92.88" y2="17.02" xlink:href="#Adsız_degrade_48"/>
    <linearGradient id="Adsız_degrade_48-10" data-name="Adsız degrade 48" x1="72.31" y1="24.51" x2="78.22" y2="24.51" xlink:href="#Adsız_degrade_48"/>
    <linearGradient id="Adsız_degrade_48-11" data-name="Adsız degrade 48" x1="0" y1="65.72" x2="25.99" y2="65.72" xlink:href="#Adsız_degrade_48"/>
  </defs>
  <g id="katman_1" data-name="katman 1">
    <g>
      <path class="cls-3" d="M174.51,95.4c-9.69-18.39-15.89-30.2-16.95-32.25C157.09,18.89,136.72,0,89.51,0,48.8,0,21.45,25.54,21.45,63.55c0,21.78,8.6,32.81,16.93,43.49,7.5,9.62,14.58,18.7,14.57,35.35v32.34c0,.93,.76,1.69,1.69,1.69s1.69-.76,1.69-1.69v-32.34c0-1.94-.11-3.78-.28-5.55,4.44-31.57,17.99-43.02,22.73-46.12,.35,1.28,.63,2.61,.77,4,.58,5.7,4.78,9.83,10,9.83,3.45,0,6.61-1.74,8.46-4.66,.5-.79,.26-1.83-.52-2.33-.79-.5-1.83-.26-2.33,.52-1.22,1.93-3.32,3.09-5.61,3.09-3.5,0-6.23-2.8-6.64-6.8-.46-4.57-2.12-8.45-3.59-11.88-1.28-2.99-2.38-5.56-2.38-7.84,0-5.45,4.43-9.89,9.89-9.89s9.89,4.43,9.89,9.89c0,.93,.76,1.69,1.69,1.69s1.69-.76,1.69-1.69c0-6.08-4.11-11.2-9.7-12.76,2-2.43,4.48-6.62,4.83-12.74,.28-4.88-.99-8.68-3.79-11.3-6.64-6.23-20.26-4.57-33.44-2.96-12.1,1.47-23.56,2.87-25.15-2.66,1.52-2.6,3.24-5.04,5.15-7.33,.51,.42,1.16,.69,1.87,.69,1.63,0,2.95-1.33,2.95-2.95,0-.79-.32-1.5-.82-2.03,8.31-8,19.33-13.5,32.37-15.89,.32,1.28,1.48,2.23,2.86,2.23,1.63,0,2.95-1.33,2.95-2.95,0-.04-.01-.08-.01-.12,3.02-.32,6.13-.51,9.33-.51,45.6,0,64.34,17.44,64.68,60.19q0,.51,17.33,33.4c1.01,1.91,1.1,3.04,.85,3.46-.27,.45-1.28,.72-2.7,.73-4.82,.04-13.7,0-13.79,0-.44,0-.88,.18-1.2,.49-.32,.32-.5,.75-.5,1.2v29.43c0,4.64-4.11,8.42-9.16,8.42h-35.6c-10.87,0-15.72-4.67-15.72-15.16v-10.65c0-.93-.76-1.69-1.69-1.69s-1.69,.76-1.69,1.69v10.65c0,12.3,6.42,18.53,19.09,18.53h14.68v30.65c0,.93,.76,1.69,1.69,1.69s1.69-.76,1.69-1.69v-30.65h17.54c6.91,0,12.53-5.29,12.53-11.8v-27.74c2.84,0,8.58,.02,12.13,0,2.76-.02,4.64-.82,5.56-2.38,1-1.68,.76-3.89-.76-6.76ZM58.41,38.25c11.83-1.44,25.24-3.07,30.72,2.07,2.06,1.93,2.95,4.76,2.73,8.64-.42,7.39-4.43,11.4-5.66,12.47-7.02,.34-12.62,6.13-12.62,13.23,0,2.97,1.29,5.98,2.65,9.17,.49,1.14,.99,2.33,1.47,3.58-4.36,2.55-17.45,12.34-23.43,40.22-2.81-9.31-8.07-16.07-13.21-22.66-7.97-10.22-16.21-20.8-16.21-41.41,0-10.3,2.14-19.63,6.08-27.7,4.14,5.24,15.54,3.86,27.5,2.4Z"/>
      <path class="cls-10" d="M56.78,17.02c0,1.63,1.33,2.95,2.95,2.95s2.95-1.33,2.95-2.95-1.33-2.95-2.95-2.95-2.95,1.33-2.95,2.95Z"/>
      <path class="cls-11" d="M105.45,7.36c-1.63,0-2.95,1.33-2.95,2.95s1.33,2.95,2.95,2.95,2.95-1.33,2.95-2.95-1.33-2.95-2.95-2.95Z"/>
      <circle class="cls-1" cx="125.7" cy="18.28" r="2.95"/>
      <path class="cls-7" d="M110.94,24.51c0-1.63-1.33-2.95-2.95-2.95s-2.95,1.33-2.95,2.95,1.33,2.95,2.95,2.95,2.95-1.33,2.95-2.95Z"/>
      <path class="cls-2" d="M118.88,33.93c0,1.63,1.33,2.95,2.95,2.95s2.95-1.33,2.95-2.95-1.33-2.95-2.95-2.95-2.95,1.33-2.95,2.95Z"/>
      <path class="cls-9" d="M103.76,56.28c0,1.63,1.33,2.95,2.95,2.95s2.95-1.33,2.95-2.95-1.33-2.95-2.95-2.95-2.95,1.33-2.95,2.95Z"/>
      <path class="cls-5" d="M100.27,39.85c0,1.63,1.33,2.95,2.95,2.95s2.95-1.33,2.95-2.95-1.33-2.95-2.95-2.95-2.95,1.33-2.95,2.95Z"/>
      <path class="cls-6" d="M86.97,17.02c0,1.63,1.33,2.95,2.95,2.95s2.95-1.33,2.95-2.95-1.33-2.95-2.95-2.95-2.95,1.33-2.95,2.95Z"/>
      <path class="cls-4" d="M72.31,24.51c0,1.63,1.33,2.95,2.95,2.95s2.95-1.33,2.95-2.95-1.33-2.95-2.95-2.95-2.95,1.33-2.95,2.95Z"/>
      <path class="cls-8" d="M18.82,20.51l-.36,1.63c-.2,.91,.37,1.81,1.28,2.01,.12,.03,.25,.04,.37,.04,.77,0,1.47-.54,1.65-1.32l1.91-8.61c.14-.62-.09-1.27-.58-1.68-.5-.4-1.18-.49-1.76-.23l-8.04,3.64c-.85,.38-1.23,1.38-.84,2.23,.38,.85,1.39,1.23,2.23,.84l1.51-.69C-7.46,49.32-5.2,82.99,22.98,118.59c.33,.42,.83,.64,1.32,.64,.37,0,.74-.12,1.05-.36,.73-.58,.85-1.64,.28-2.37C-1.42,82.33-3.69,50.07,18.82,20.51Z"/>
    </g>
  </g>
</svg>