<?xml version="1.0" encoding="UTF-8"?>
<svg id="katman_2" data-name="katman 2" xmlns="http://www.w3.org/2000/svg" xmlns:xlink="http://www.w3.org/1999/xlink" viewBox="0 0 55.34 55.34">
  <defs>
    <style>
      .cls-1 {
        fill: #ffa497;
      }

      .cls-2 {
        fill: #fff;
      }

      .cls-3 {
        fill: #a7807d;
      }

      .cls-4 {
        fill: #5b2c24;
      }

      .cls-5 {
        fill: #f5867c;
      }

      .cls-6 {
        fill: #411c16;
      }

      .cls-7 {
        fill: url(#Adsız_degrade_27);
      }

      .cls-8 {
        clip-path: url(#clippath);
      }

      .cls-9 {
        fill: none;
      }

      .cls-10 {
        fill: #8dc7c8;
      }

      .cls-11 {
        fill: #fdc5b4;
      }
    </style>
    <linearGradient id="Adsız_degrade_27" data-name="Adsız degrade 27" x1="27.67" y1="55.34" x2="27.67" y2="0" gradientUnits="userSpaceOnUse">
      <stop offset="0" stop-color="#b99f6c"/>
      <stop offset=".6" stop-color="#eee6db"/>
    </linearGradient>
    <clipPath id="clippath">
      <circle class="cls-9" cx="27.67" cy="27.67" r="27.67"/>
    </clipPath>
  </defs>
  <g id="katman_1" data-name="katman 1">
    <g>
      <circle class="cls-7" cx="27.67" cy="27.67" r="27.67"/>
      <path class="cls-2" d="M47.88,17.68c0,4.5-2.64,8.63-6.73,10.52-.04,.02-.08,.03-.13,.03-.12,0-.22-.07-.28-.18-.07-.15,0-.33,.15-.4,3.87-1.79,6.37-5.7,6.37-9.96,0-5.91-4.7-10.75-10.56-10.96l1.99,2.14c.12,.12,.11,.31-.02,.43-.06,.05-.13,.08-.21,.08-.08,0-.16-.03-.22-.1l-2.41-2.59c-.06-.07-.09-.15-.08-.24,.01-.09,.06-.17,.13-.22l.17-.12,2.75-1.89c.14-.09,.33-.06,.42,.08,.09,.14,.06,.33-.08,.42l-2.05,1.41c6.01,.41,10.78,5.44,10.78,11.55Z"/>
      <g class="cls-8">
        <g>
          <path class="cls-4" d="M41.55,21.16c-.02,1.24-.82,3.35-1.79,5.54-.59,1.31-1.24,2.65-1.84,3.84-.94,1.88-1.74,3.38-1.88,3.81-5.97-1.74-5.9-3.52-5.51-5.83,.38-2.31-.45-3.17-.45-3.17,.4-3.14-2.15-3.69-2.15-3.69-3.33-1.18-5.33,4.51-5.33,4.51-1.43,.44-2.26-.63-2.26-.63,0,0,.93-3.23,1.01-4.63,.08-1.4-2.14-1.33-2.68-2.6-.54-1.27,1.67-5.32,1.67-5.32,0,0,4.13-.35,10.13-.32,5.21,.03,4.09-2.15,5.38-2.68,.19-.08,.44-.12,.77-.11,2.54,.06,5.01,8.12,4.94,11.29Z"/>
          <path class="cls-3" d="M39.76,26.7c-.59,1.31-1.24,2.65-1.84,3.84-1.28-.02-2.56-.13-3.85-.31-.58-.09-1.08-.41-1.39-.87-.29-.42-.39-.92-.28-1.41,.22-1,1.22-1.66,2.26-1.49,1.72,.24,3.4,.32,5.1,.24Z"/>
          <path class="cls-4" d="M34.01,27.1c-.49,0-.49,.76,0,.76s.49-.76,0-.76Z"/>
          <path class="cls-4" d="M36.15,27.14c-.49,0-.49,.76,0,.76s.49-.76,0-.76Z"/>
          <path class="cls-4" d="M38.3,27.21c-.49,0-.49,.76,0,.76s.49-.76,0-.76Z"/>
          <path class="cls-4" d="M33.23,28.28c-.49,0-.49,.76,0,.76s.49-.76,0-.76Z"/>
          <path class="cls-4" d="M35.06,28.37c-.49,0-.49,.76,0,.76s.49-.76,0-.76Z"/>
          <path class="cls-4" d="M37.1,28.37c-.49,0-.49,.76,0,.76s.49-.76,0-.76Z"/>
          <path class="cls-4" d="M36.12,29.4c-.49,0-.49,.76,0,.76s.49-.76,0-.76Z"/>
          <path class="cls-4" d="M34,29.32c-.49,0-.49,.76,0,.76s.49-.76,0-.76Z"/>
          <path class="cls-4" d="M37.82,29.46c-.49,0-.49,.76,0,.76s.49-.76,0-.76Z"/>
          <path class="cls-11" d="M37.01,39.58c-3.99,.95-12.62,6.05-16,8.1,0-1.47-.57-3.1-1.03-4.61-.07-.23-.14-.46-.2-.68-.34-1.21-.47-2.55-.47-2.55,0,0-6.98,.84-7.93-.25-.69-.8-.25-1.84,.02-3.45,.28-1.61-.96-1.3-1.08-2.05-.12-.75,.3-1.14,.3-1.14,0,0-.85-.6-.49-1.18,.36-.58,.32-1.84,.32-1.84,0,0,0,0,0,0,0,0-.02,0-.03-.02-.26-.15-1.82-1.06-2.06-1.76-.25-.76,.7-1.36,1.77-2.74,1-1.29,1.31-2.75,1.35-2.94,0-.01,0-.02,0-.02,0,0-.27-.93-.42-1.72-.16-.79,.87-2.24,.87-2.24,2.38-4.56,4.22-9.89,11.41-11.41,7.12-1.51,12.37,2.81,12.48,2.9-1.29,.53-.17,2.7-5.38,2.68-5.99-.03-10.13,.32-10.13,.32,0,0-2.21,4.06-1.67,5.32,.54,1.27,2.76,1.2,2.68,2.6-.08,1.39-1.01,4.63-1.01,4.63,0,0,.84,1.08,2.26,.63,0,0,2-5.7,5.33-4.51,0,0,2.55,.55,2.15,3.69,0,0,.83,.86,.45,3.17-.38,2.31-.45,4.09,5.51,5.83-.38,1.14,.95,5.14,.95,5.14l.02,.1Z"/>
          <path class="cls-10" d="M49.37,65.64H11.08s5.28-14.01,7.1-14.47l1.44-2.62s.52-.33,1.4-.86c3.38-2.06,12.01-7.16,16-8.1,.65-.16,1.18-.2,1.54-.1,0,0,1.65,2.22,1.86,3.74,0,0,8.96,4.99,8.96,22.42Z"/>
          <path class="cls-1" d="M19.99,43.07c-.07-.23-.14-.46-.2-.68-.34-1.21-.47-2.55-.47-2.55,0,0,3.19-.59,4.35-2.24,1.16-1.65,2.58-4.9,2.58-4.9,0,0,.91,9.06-6.27,10.37Z"/>
          <path class="cls-1" d="M12.09,28.66c-.1,.68,.18,1.42-1.63,1.27,0,0,0,0,0,0,0,0-.02,0-.03-.02-.26-.15-1.82-1.06-2.06-1.76-.25-.76,.7-1.36,1.77-2.74,1-1.29,1.31-2.75,1.35-2.94-.04,.34-.52,4.81-.29,5.09,.23,.29,.99,.42,.89,1.1Z"/>
          <path class="cls-6" d="M36.04,34.5s-.03,0-.04,0c-5.87-1.71-6.04-3.49-5.62-6,.36-2.19-.41-3.03-.41-3.04-.03-.03-.05-.08-.04-.12,.38-2.96-1.93-3.5-2.03-3.52,0,0-.01,0-.02,0-.65-.23-1.3-.2-1.93,.1-2,.96-3.19,4.28-3.2,4.32-.02,.05-.05,.08-.1,.09-1.51,.47-2.42-.67-2.43-.69-.03-.04-.04-.09-.03-.14,0-.03,.93-3.23,1.01-4.59,.04-.66-.53-.95-1.2-1.29-.59-.3-1.21-.61-1.47-1.24-.56-1.32,1.58-5.29,1.67-5.46,.02-.04,.07-.07,.12-.08,.04,0,4.21-.35,10.14-.32,.03,0,.07,0,.1,0,3.44,0,3.97-.98,4.39-1.76,.2-.37,.39-.72,.83-.9,.22-.09,.49-.13,.83-.12,2.73,.07,5.15,8.36,5.09,11.44-.05,2.37-2.79,7.76-4.43,10.98-.56,1.1-1,1.96-1.1,2.25-.02,.06-.08,.1-.14,.1Zm-5.81-9.2c.18,.24,.78,1.18,.45,3.24-.34,2.07-.64,3.87,5.27,5.62,.16-.38,.55-1.15,1.06-2.16,1.63-3.2,4.35-8.55,4.4-10.85h0c.06-3.19-2.46-11.07-4.8-11.13-.29,0-.52,.03-.71,.1-.34,.14-.49,.42-.68,.77-.44,.82-1.05,1.94-4.76,1.92-5.46-.03-9.42,.26-10.03,.31-.63,1.17-2.03,4.16-1.62,5.12,.22,.53,.79,.81,1.33,1.09,.69,.35,1.41,.72,1.36,1.58-.07,1.29-.85,4.07-1,4.58,.19,.2,.88,.85,1.98,.55,.19-.52,1.36-3.48,3.33-4.42,.7-.33,1.43-.37,2.16-.12,.19,.05,2.62,.71,2.26,3.79Z"/>
          <path class="cls-6" d="M21.02,47.84s-.05,0-.07-.02c-.05-.03-.08-.08-.08-.13,0-1.28-.44-2.69-.86-4.05-.05-.17-.11-.35-.16-.52-.07-.23-.14-.46-.2-.68-.27-.97-.41-2.03-.45-2.42-1.21,.14-6.98,.74-7.91-.32-.6-.69-.43-1.51-.19-2.65,.06-.29,.12-.59,.18-.92,.15-.89-.18-1.11-.53-1.33-.23-.15-.49-.31-.54-.67-.09-.57,.1-.95,.23-1.14-.25-.22-.74-.74-.4-1.29,.28-.45,.3-1.38,.3-1.67-.48-.27-1.85-1.11-2.09-1.82-.2-.61,.25-1.12,.89-1.82,.27-.3,.59-.65,.91-1.06,.93-1.2,1.25-2.55,1.32-2.86-.05-.17-.28-.99-.42-1.7-.16-.82,.79-2.21,.89-2.35,.27-.51,.53-1.04,.78-1.55,2.1-4.21,4.27-8.56,10.73-9.93,7.23-1.53,12.56,2.89,12.61,2.93,.04,.03,.06,.09,.05,.14,0,.05-.04,.1-.09,.12-.34,.14-.49,.42-.68,.76-.44,.81-1.04,1.92-4.67,1.92-.03,0-.06,0-.09,0-5.46-.03-9.42,.26-10.03,.31-.63,1.17-2.03,4.16-1.62,5.12,.22,.53,.79,.81,1.33,1.09,.69,.35,1.41,.72,1.36,1.58-.07,1.29-.85,4.07-1,4.58,.19,.2,.88,.85,1.98,.55,.19-.52,1.36-3.48,3.33-4.42,.7-.33,1.43-.37,2.16-.12,.19,.05,2.62,.71,2.26,3.79,.18,.24,.78,1.18,.45,3.24-.34,2.09-.64,3.89,5.41,5.66,.04,.01,.07,.04,.09,.08,.02,.04,.02,.08,0,.12-.36,1.08,.94,5,.95,5.04l.03,.11c.02,.08-.03,.16-.11,.18-3.94,.94-12.47,5.97-15.95,8.09-.02,.01-.05,.02-.08,.02Zm-1.69-8.15s.07,.01,.1,.03c.03,.03,.05,.06,.06,.1,0,.01,.13,1.34,.46,2.52,.06,.22,.13,.45,.2,.68,.05,.17,.11,.34,.16,.52,.4,1.29,.81,2.62,.87,3.87,3.58-2.17,11.7-6.94,15.66-7.95-.15-.45-1.21-3.76-.97-5.02-5.73-1.7-5.89-3.47-5.48-5.96,.36-2.19-.41-3.03-.41-3.04-.03-.03-.05-.08-.04-.12,.38-2.96-1.93-3.5-2.03-3.52,0,0-.01,0-.02,0-.65-.23-1.3-.2-1.93,.1-2,.96-3.19,4.28-3.2,4.32-.02,.05-.05,.08-.1,.09-1.51,.47-2.42-.67-2.43-.69-.03-.04-.04-.09-.03-.14,0-.03,.93-3.23,1.01-4.59,.04-.66-.53-.95-1.2-1.29-.59-.3-1.21-.61-1.47-1.24-.56-1.32,1.58-5.29,1.67-5.46,.02-.04,.07-.07,.12-.08,.04,0,4.21-.35,10.14-.32,3.53,.02,4.06-.97,4.49-1.76,.16-.3,.32-.59,.61-.79-.97-.74-5.82-4.07-12.17-2.73-6.31,1.33-8.45,5.62-10.52,9.77-.26,.52-.52,1.05-.79,1.56,0,0,0,.01-.01,.02-.27,.39-.96,1.53-.84,2.12,.15,.77,.42,1.7,.42,1.71,0,.02,0,.05,0,.07,0,0,0,.02,0,.02-.06,.28-.38,1.72-1.38,3-.33,.43-.65,.77-.92,1.08-.61,.67-.97,1.07-.83,1.52,.18,.53,1.33,1.3,1.99,1.67,0,0,.01,0,.02,.01,.05,.02,.09,.08,.09,.14,0,.05,.04,1.31-.34,1.92-.28,.45,.44,.98,.45,.98,.04,.03,.06,.07,.06,.11,0,.05-.01,.09-.05,.12-.01,.01-.35,.35-.25,1.01,.03,.21,.18,.31,.41,.46,.38,.24,.86,.55,.67,1.64-.06,.33-.12,.64-.18,.93-.23,1.09-.37,1.81,.12,2.39,.73,.84,5.87,.43,7.79,.2,0,0,.01,0,.02,0Z"/>
          <path class="cls-6" d="M49.36,64.59c-.08,0-.15-.07-.15-.15-.21-8.29-2.61-13.58-4.59-16.56-2.14-3.23-4.26-4.52-4.28-4.53-.04-.02-.07-.06-.07-.11-.19-1.35-1.57-3.31-1.8-3.63-.32-.07-.79-.03-1.41,.11-3.94,.94-12.47,5.97-15.95,8.09-.74,.45-1.23,.76-1.36,.84l-1.42,2.58s-.05,.06-.1,.07c-.95,.24-3.34,5.04-6.4,12.84-.03,.08-.12,.12-.2,.09-.08-.03-.12-.12-.09-.2,1.82-4.63,5.06-12.41,6.54-13l1.41-2.57s.03-.04,.05-.06c0,0,.53-.34,1.4-.86,3.5-2.13,12.06-7.18,16.04-8.12,.71-.17,1.24-.2,1.62-.1,.03,0,.06,.03,.08,.06,.07,.09,1.63,2.2,1.88,3.74,.37,.24,2.31,1.56,4.31,4.57,2.01,3.02,4.44,8.37,4.65,16.74,0,.08-.06,.15-.15,.16h0Z"/>
          <path class="cls-6" d="M19.32,39.99c-.07,0-.13-.05-.15-.12-.02-.08,.04-.16,.12-.18,.03,0,3.37-.71,4.25-2.17,.92-1.51,2.56-4.86,2.57-4.89,.04-.08,.13-.11,.2-.07,.08,.04,.11,.13,.07,.2-.02,.03-1.66,3.4-2.59,4.92-.95,1.57-4.31,2.28-4.45,2.31-.01,0-.02,0-.03,0Z"/>
          <path class="cls-6" d="M25.85,30.7c-.83,0-1.44-.29-1.48-.31-.08-.04-.11-.13-.07-.2,.04-.08,.13-.11,.2-.07,.01,0,1.35,.64,2.71-.04,1.3-.65,2.21-2.25,2.7-4.76,.02-.08,.1-.14,.18-.12,.08,.02,.14,.1,.12,.18-.51,2.61-1.47,4.28-2.87,4.97-.53,.26-1.05,.35-1.5,.35Z"/>
          <path class="cls-6" d="M25.63,29.54s-.09-.02-.12-.06c-.05-.07-.04-.16,.03-.21,.46-.36,.72-.97,.65-1.56-.03-.29-.14-.57-.25-.86-.11-.29-.22-.59-.26-.91-.07-.58,.1-1.13,.25-1.55,.14-.38,.35-.86,.73-1.22,.4-.38,.94-.54,1.4-.41,.27,.08,.52,.28,.66,.53,.12,.23,.15,.48,.08,.7-.03,.08-.11,.12-.19,.1-.08-.02-.13-.11-.1-.19,.05-.15,.02-.31-.06-.47-.1-.19-.28-.33-.48-.39-.35-.1-.79,.03-1.11,.34-.33,.31-.53,.76-.66,1.11-.21,.58-.29,1.01-.24,1.41,.04,.28,.14,.55,.25,.84,.11,.3,.23,.61,.27,.94,.08,.68-.22,1.4-.76,1.83-.03,.02-.06,.03-.09,.03Z"/>
          <path class="cls-6" d="M15.87,22.2c-.1,0-.2-.05-.25-.14-.39-.59-.97-1.04-1.63-1.27-.66-.23-1.4-.24-2.07-.02-.16,.05-.33-.03-.38-.19-.05-.16,.03-.33,.19-.38,.8-.26,1.67-.25,2.46,.02,.79,.28,1.48,.81,1.94,1.51,.09,.14,.05,.33-.09,.42-.05,.03-.11,.05-.17,.05Z"/>
          <path class="cls-6" d="M11.7,29.96s-.07-.01-.1-.04c-.06-.06-.07-.15-.01-.21,.43-.48,.54-1.22,.26-1.8-.04-.08,0-.17,.07-.2,.08-.04,.17,0,.2,.07,.32,.69,.19,1.56-.31,2.13-.03,.03-.07,.05-.11,.05Z"/>
          <path class="cls-6" d="M15.38,23.7c-.05,0-.11-.03-.13-.08-.53-.99-1.68-1.59-2.8-1.46-.08,0-.16-.05-.17-.13,0-.08,.05-.16,.13-.17,1.24-.15,2.51,.52,3.1,1.62,.04,.07,.01,.17-.06,.21-.02,.01-.05,.02-.07,.02Z"/>
          <path class="cls-6" d="M14.11,22.73c0,.38-.31,.7-.7,.7s-.7-.31-.7-.7,.31-.7,.7-.7,.7,.31,.7,.7Z"/>
          <path class="cls-6" d="M10.75,33.11c-.06,0-.1,0-.11,0-.08,0-.15-.07-.15-.16,0-.08,.07-.15,.16-.15,.01,0,1.29,.02,2.02-.24,.08-.03,.17,.01,.19,.09,.03,.08-.01,.17-.09,.19-.66,.24-1.68,.26-2.02,.26Z"/>
          <g>
            <path class="cls-5" d="M20.5,8.63c-.49,0-.49,.76,0,.76s.49-.76,0-.76Z"/>
            <path class="cls-5" d="M23.4,7.89c-.49,0-.49,.76,0,.76s.49-.76,0-.76Z"/>
            <path class="cls-5" d="M26.13,7.72c-.49,0-.49,.76,0,.76s.49-.76,0-.76Z"/>
            <path class="cls-5" d="M28.96,8c-.49,0-.49,.76,0,.76s.49-.76,0-.76Z"/>
            <path class="cls-5" d="M31.62,8.52c-.49,0-.49,.76,0,.76s.49-.76,0-.76Z"/>
            <path class="cls-5" d="M33.71,9.22c-.49,0-.49,.76,0,.76s.49-.76,0-.76Z"/>
            <path class="cls-5" d="M20,10.38c-.49,0-.49,.76,0,.76s.49-.76,0-.76Z"/>
            <path class="cls-5" d="M22.51,9.6c-.49,0-.49,.76,0,.76s.49-.76,0-.76Z"/>
            <path class="cls-5" d="M25.09,9.2c-.49,0-.49,.76,0,.76s.49-.76,0-.76Z"/>
            <path class="cls-5" d="M27.67,9.2c-.49,0-.49,.76,0,.76s.49-.76,0-.76Z"/>
            <path class="cls-5" d="M30.29,9.58c-.49,0-.49,.76,0,.76s.49-.76,0-.76Z"/>
            <path class="cls-5" d="M32.72,10.24c-.49,0-.49,.76,0,.76s.49-.76,0-.76Z"/>
            <path class="cls-5" d="M21.33,11.06c-.49,0-.49,.76,0,.76s.49-.76,0-.76Z"/>
            <path class="cls-5" d="M24.03,10.83c-.49,0-.49,.76,0,.76s.49-.76,0-.76Z"/>
            <path class="cls-5" d="M26.74,10.66c-.49,0-.49,.76,0,.76s.49-.76,0-.76Z"/>
            <path class="cls-5" d="M29.11,10.62c-.49,0-.49,.76,0,.76s.49-.76,0-.76Z"/>
            <path class="cls-5" d="M31.2,10.96c-.49,0-.49,.76,0,.76s.49-.76,0-.76Z"/>
            <path class="cls-5" d="M20,12.84c-.06,0-.11-.03-.14-.08-.05-.1-.11-.2-.17-.3-.04-.07-.02-.17,.05-.21,.07-.04,.17-.02,.21,.05,.07,.11,.13,.22,.18,.32,.04,.07,0,.17-.07,.2-.02,.01-.05,.02-.07,.02Zm-.61-.91s-.09-.02-.12-.05c-.15-.18-.32-.35-.5-.52-.06-.06-.06-.15,0-.21,.06-.06,.15-.06,.21,0,.19,.18,.36,.36,.52,.55,.05,.06,.05,.16-.02,.21-.03,.02-.06,.04-.1,.04Zm-1.08-1.01s-.06,0-.09-.03c-.34-.26-.6-.39-.6-.39-.07-.04-.1-.13-.06-.21,.04-.07,.13-.1,.21-.06,.01,0,.27,.15,.64,.42,.07,.05,.08,.15,.03,.21-.03,.04-.08,.06-.12,.06Z"/>
          </g>
        </g>
      </g>
    </g>
  </g>
</svg>