<?xml version="1.0" encoding="UTF-8"?>
<svg id="katman_2" data-name="katman 2" xmlns="http://www.w3.org/2000/svg" xmlns:xlink="http://www.w3.org/1999/xlink" viewBox="0 0 70 83.12">
  <defs>
    <style>
      .cls-1 {
        fill: url(#Adsız_degrade_202-2);
      }

      .cls-2 {
        fill: url(#Adsız_degrade_202);
      }

      .cls-3 {
        fill: url(#Adsız_degrade_202-3);
      }
    </style>
    <linearGradient id="Adsız_degrade_202" data-name="Adsız degrade 202" x1="39.38" y1="17.5" x2="56.88" y2="17.5" gradientUnits="userSpaceOnUse">
      <stop offset=".13" stop-color="#b99f6c"/>
      <stop offset=".6" stop-color="#eee6db"/>
      <stop offset=".82" stop-color="#fff"/>
    </linearGradient>
    <linearGradient id="Adsız_degrade_202-2" data-name="Adsız degrade 202" x1="26.25" y1="19.69" x2="70" y2="19.69" xlink:href="#Adsız_degrade_202"/>
    <linearGradient id="Adsız_degrade_202-3" data-name="Adsız degrade 202" x1="0" y1="56.88" x2="45.27" y2="56.88" xlink:href="#Adsız_degrade_202"/>
  </defs>
  <g id="katman_1" data-name="katman 1">
    <g>
      <path class="cls-2" d="M55.67,15.54l-13.12-6.56c-.68-.34-1.48-.3-2.13,.1-.64,.4-1.04,1.1-1.04,1.86v13.12c0,.76,.39,1.46,1.04,1.86,.65,.4,1.45,.43,2.13,.1l13.12-6.56c.74-.37,1.21-1.13,1.21-1.96s-.47-1.59-1.21-1.96Zm-11.92,4.98v-6.05l6.05,3.02-6.05,3.02Z"/>
      <path class="cls-1" d="M63.44,0h-30.62c-3.62,0-6.56,2.94-6.56,6.56V28.44c0,3.62,2.94,6.56,6.56,6.56h10.03l3.73,3.73c.43,.43,.99,.64,1.55,.64s1.12-.21,1.55-.64l3.73-3.73h10.03c3.62,0,6.56-2.94,6.56-6.56V6.56c0-3.62-2.94-6.56-6.56-6.56Zm2.19,28.44c0,1.21-.98,2.19-2.19,2.19h-10.94c-.58,0-1.14,.23-1.55,.64l-2.83,2.83-2.83-2.83c-.41-.41-.97-.64-1.55-.64h-10.94c-1.21,0-2.19-.98-2.19-2.19V6.56c0-1.21,.98-2.19,2.19-2.19h30.62c1.21,0,2.19,.98,2.19,2.19V28.44Z"/>
      <path class="cls-3" d="M43.66,50.38c-1.25-1.42-3.06-2.25-4.97-2.25h-12.45v-6.56c0-6.04-4.9-10.94-10.94-10.94-1.2,0-2.19,.98-2.19,2.19v13.12c0,1.2-.98,2.19-2.19,2.19H2.19c-1.2,0-2.19,.98-2.19,2.19v30.62c0,1.2,.98,2.19,2.19,2.19H35.59c3.24,0,6.04-2.43,6.47-5.64l3.13-21.88c.28-1.88-.28-3.78-1.53-5.23ZM8.75,78.75H4.38v-26.25h4.38v26.25Zm29.01-1.88c-.15,1.07-1.09,1.88-2.17,1.88H13.12v-26.64c2.54-.92,4.38-3.33,4.38-6.17v-10.57c2.54,.9,4.38,3.35,4.38,6.19v8.75c0,1.2,.98,2.19,2.19,2.19h14.63c.66,0,1.25,.26,1.66,.74,.42,.5,.61,1.12,.5,1.75l-3.11,21.88Z"/>
    </g>
  </g>
</svg>