<?xml version="1.0" encoding="UTF-8"?>
<svg id="katman_2" data-name="katman 2" xmlns="http://www.w3.org/2000/svg" xmlns:xlink="http://www.w3.org/1999/xlink" viewBox="0 0 106.25 100.66">
  <defs>
    <style>
      .cls-1 {
        fill: url(#Adsız_degrade_202);
      }
    </style>
    <linearGradient id="Adsız_degrade_202" data-name="Adsız degrade 202" x1="0" y1="50.33" x2="106.25" y2="50.33" gradientUnits="userSpaceOnUse">
      <stop offset=".13" stop-color="#b99f6c"/>
      <stop offset=".6" stop-color="#eee6db"/>
      <stop offset=".82" stop-color="#fff"/>
    </linearGradient>
  </defs>
  <g id="katman_1" data-name="katman 1">
    <path class="cls-1" d="M100.66,34.06V13.98c0-4.61-3.77-8.39-8.39-8.39h-22.45c-2.54-3.38-6.54-5.59-11.1-5.59h-16.78c-7.72,0-13.98,6.26-13.98,13.98s6.26,13.98,13.98,13.98h16.78c4.56,0,8.56-2.21,11.1-5.59h14.06v11.18H8.39c-4.61,0-8.39,3.77-8.39,8.39v39.14c0,4.61,3.77,8.39,8.39,8.39H27.96v8.39c0,1.54,1.26,2.8,2.8,2.8h44.74c1.54,0,2.8-1.26,2.8-2.8v-8.39h19.57c4.61,0,8.39-3.77,8.39-8.39V41.94c0-3.63-2.35-6.71-5.59-7.88Zm-41.94-11.69h-16.78c-4.61,0-8.39-3.77-8.39-8.39s3.77-8.39,8.39-8.39h16.78c4.61,0,8.39,3.77,8.39,8.39s-3.77,8.39-8.39,8.39Zm30.76-11.18h2.8c1.54,0,2.8,1.26,2.8,2.8v19.57h-5.59V11.18Zm-17.06,5.59c.17-.89,.28-1.85,.28-2.8s-.11-1.9-.28-2.8h11.46v5.59h-11.46ZM5.59,53.12c0-1.54,1.26-2.8,2.8-2.8s2.8,1.26,2.8,2.8v16.78c0,1.54-1.26,2.8-2.8,2.8s-2.8-1.26-2.8-2.8v-16.78Zm67.1,41.94H33.55v-5.59h39.14v5.59Zm-19.57-27.96c2.07,0,4-.62,5.65-1.59,1.57,.7,2.99,1.65,4.25,2.91,2.63,2.63,4.08,6.12,4.08,9.87v5.59h-5.59v-8.39c0-1.54-1.26-2.8-2.8-2.8s-2.8,1.26-2.8,2.8v8.39h-5.59v-8.39c0-1.54-1.26-2.8-2.8-2.8s-2.8,1.26-2.8,2.8v8.39h-5.59v-5.59c0-5.56,3.33-10.54,8.36-12.75,1.65,.98,3.55,1.57,5.62,1.57Zm-5.59-11.18c0-3.08,2.52-5.59,5.59-5.59s5.59,2.52,5.59,5.59-2.52,5.59-5.59,5.59-5.59-2.52-5.59-5.59Zm53.12-2.29c-.87-.31-1.82-.5-2.8-.5s-1.93,.2-2.8,.5v-6.1c0-1.54-1.26-2.8-2.8-2.8s-2.8,1.26-2.8,2.8v27.96c0,1.54,1.26,2.8,2.8,2.8s2.8-1.26,2.8-2.8v-6.1c.87,.31,1.82,.5,2.8,.5s1.93-.2,2.8-.5v11.69c0,1.54-1.26,2.8-2.8,2.8h-25.16v-5.59c0-5.26-2.04-10.18-5.73-13.84-1.26-1.23-2.63-2.26-4.11-3.1,.89-1.62,1.45-3.44,1.45-5.42,0-6.18-5-11.18-11.18-11.18s-11.18,5-11.18,11.18c0,1.99,.56,3.8,1.45,5.42-5.98,3.44-9.84,9.84-9.84,16.94v5.59H8.39c-1.54,0-2.8-1.26-2.8-2.8v-3.3c.87,.31,1.82,.5,2.8,.5,4.61,0,8.39-3.77,8.39-8.39v-16.78c0-4.61-3.77-8.39-8.39-8.39-.98,0-1.93,.2-2.8,.5v-3.3c0-1.54,1.26-2.8,2.8-2.8H97.86c1.54,0,2.8,1.26,2.8,2.8v11.69Zm0,7.88c0,1.54-1.26,2.8-2.8,2.8s-2.8-1.26-2.8-2.8,1.26-2.8,2.8-2.8,2.8,1.26,2.8,2.8Z"/>
  </g>
</svg>