<?xml version="1.0" encoding="UTF-8"?>
<svg id="katman_2" data-name="katman 2" xmlns="http://www.w3.org/2000/svg" xmlns:xlink="http://www.w3.org/1999/xlink" viewBox="0 0 119.94 119.94">
  <defs>
    <style>
      .cls-1 {
        fill: url(#Adsız_degrade_202-2);
      }

      .cls-2 {
        fill: url(#Adsız_degrade_202);
      }

      .cls-3 {
        fill: url(#Adsız_degrade_202-3);
      }

      .cls-4 {
        fill: url(#Adsız_degrade_202-4);
      }
    </style>
    <linearGradient id="Adsız_degrade_202" data-name="Adsız degrade 202" x1="0" y1="59.97" x2="119.94" y2="59.97" gradientUnits="userSpaceOnUse">
      <stop offset=".13" stop-color="#b99f6c"/>
      <stop offset=".6" stop-color="#eee6db"/>
      <stop offset=".82" stop-color="#fff"/>
    </linearGradient>
    <linearGradient id="Adsız_degrade_202-2" data-name="Adsız degrade 202" x1="18.94" y1="56.81" x2="101" y2="56.81" xlink:href="#Adsız_degrade_202"/>
    <linearGradient id="Adsız_degrade_202-3" data-name="Adsız degrade 202" x1="18.94" y1="44.19" x2="101" y2="44.19" xlink:href="#Adsız_degrade_202"/>
    <linearGradient id="Adsız_degrade_202-4" data-name="Adsız degrade 202" x1="47.34" y1="25.25" x2="72.59" y2="25.25" xlink:href="#Adsız_degrade_202"/>
  </defs>
  <g id="katman_1" data-name="katman 1">
    <g>
      <path class="cls-2" d="M110.47,0H9.47C4.26,0,0,4.26,0,9.47V78.91c0,5.21,4.26,9.47,9.47,9.47H42.26l-.54,1.86c-12.47,2.62-19.63,7.67-19.63,13.92,0,10.35,19.06,15.78,37.88,15.78s37.88-5.43,37.88-15.78c0-6.25-7.16-11.3-19.63-13.92l-.54-1.86h32.79c5.21,0,9.47-4.26,9.47-9.47V9.47c0-5.21-4.26-9.47-9.47-9.47ZM9.47,82.06c-1.74,0-3.16-1.42-3.16-3.16v-3.16H51.07c-.35,.98-.57,2.05-.57,3.16s.22,2.18,.57,3.16H9.47Zm61.64,6.31l3.6,12.62h-29.48l3.6-12.62h22.28Zm-14.3-9.47c0-1.74,1.42-3.16,3.16-3.16s3.16,1.42,3.16,3.16-1.42,3.16-3.16,3.16-3.16-1.42-3.16-3.16Zm22.09,28.41c.98,0,1.93-.47,2.52-1.26s.79-1.8,.51-2.75l-1.74-6.12c8.14,2.24,11.33,5.33,11.33,6.98,0,3.76-12.59,9.47-31.56,9.47s-31.56-5.71-31.56-9.47c0-1.64,3.19-4.73,11.33-6.98l-1.74,6.12c-.28,.95-.09,1.96,.51,2.75s1.55,1.26,2.52,1.26h37.88Zm34.72-28.41c0,1.74-1.42,3.16-3.16,3.16h-41.6c.35-.98,.57-2.05,.57-3.16s-.22-2.18-.57-3.16h44.76v3.16Zm0-9.47H6.31V9.47c0-1.74,1.42-3.16,3.16-3.16H110.47c1.74,0,3.16,1.42,3.16,3.16v59.97Z"/>
      <path class="cls-1" d="M22.09,59.97h63.12c0,1.74,1.41,3.16,3.16,3.16s3.16-1.41,3.16-3.16h6.31c1.74,0,3.16-1.41,3.16-3.16s-1.41-3.16-3.16-3.16h-6.31c0-1.74-1.41-3.16-3.16-3.16s-3.16,1.41-3.16,3.16H22.09c-1.74,0-3.16,1.41-3.16,3.16s1.41,3.16,3.16,3.16Z"/>
      <path class="cls-3" d="M22.09,47.34h6.31c0,1.74,1.41,3.16,3.16,3.16s3.16-1.41,3.16-3.16h63.12c1.74,0,3.16-1.41,3.16-3.16s-1.41-3.16-3.16-3.16H34.72c0-1.74-1.41-3.16-3.16-3.16s-3.16,1.41-3.16,3.16h-6.31c-1.74,0-3.16,1.41-3.16,3.16s1.41,3.16,3.16,3.16Z"/>
      <path class="cls-4" d="M48.86,37.38c.88,.55,2.03,.67,3.06,.16l18.94-9.47c1.07-.53,1.74-1.63,1.74-2.82s-.68-2.29-1.74-2.82l-18.94-9.47c-.98-.49-2.14-.43-3.07,.14-.93,.57-1.5,1.59-1.5,2.68v18.94c0,1.15,.63,2.12,1.51,2.66Zm4.8-16.49l8.72,4.36-8.72,4.36v-8.72Z"/>
    </g>
  </g>
</svg>